<svg xmlns="http://www.w3.org/2000/svg" width="646" height="131" fill="none"><path fill="#FD9A1A" d="M618.271 69.208c5.478 7.073 9.88 7.443 5.948 15.765-6.416-2.5-8.088-12.792-5.948-15.765M616.921 80.812c2.746 8.093 6.599 9.797.454 16.088-5.011-4.26-3.312-14.073-.454-16.088m10.006-21.005c-5.49.193-9.97-6.807-9.344-9.662 6.25 3.443 9.588 2.323 9.344 9.662m.078 13.12c-6.656-1.558-9.749-11.432-8.062-14.651 6.38 6.177 10.754 5.917 8.062 14.65m-12.032-32.542c6.251 3.438 9.588 2.312 9.35 9.651-5.484.197-9.97-6.803-9.35-9.65m-5.708-7.901c6.162 1.85 8.886.224 10.068 6.735-4.797 1.218-10.078-4.099-10.068-6.735M630.5 54.979c-3.177-7.375.667-7.563 5.661-13.563 1.771 2.656.006 11.573-5.661 13.563m-18.959 71.057c-3.281 2.052-14.021-.407-16.224-7.344 9.047-3.579 9.136 1.084 16.224 7.344m7.683-26.041c6.317-6.823 8.323-2.839 17.021-.375-1.978 3.125-12.254 5.443-17.021.375m-14.901 14.016c8.349-5.402 9.374-.746 17.734 4.109-2.88 2.713-14.136 2.401-17.734-4.109m8.776-5.683c6.317-6.828 8.322-2.844 17.021-.38-1.979 3.131-12.255 5.443-17.021.38m15.656-23.91c.973-9.255 4.964-7.266 13.406-10.5.287 3.693-6.552 11.697-13.406 10.5m-10.667-54.111c-4.719-4.886-1.729-6.188.427-12.422 2.193 1.574 3.464 9.151-.427 12.422m5.527 7.562c-4.916-5.093-1.803-6.448.442-12.948 2.292 1.636 3.61 9.542-.442 12.948M610.693 11.297c2.49 1.052 5.391 8.167 2.312 12.214-4.242-2.794-3.842-4.573-3.064-8.036.262-1.167.567-2.525.752-4.178"/><path fill="#FD9A1A" fill-rule="evenodd" d="M613.005 23.51c3.079-4.046.178-11.16-2.312-12.213-.185 1.653-.49 3.01-.752 4.178-.778 3.463-1.178 5.242 3.064 8.036" clip-rule="evenodd"/><path fill="#FD9A1A" d="M592.921 116.115c-1.568-7.588 7.12-15.474 11.235-15.282-3.317 9.511-.969 13.891-11.235 15.282m9.439-91.287c6.307 1.25 8.869-.63 10.667 5.74-4.662 1.672-10.422-3.115-10.667-5.74m24.681 20.85c-2.797-6.5.594-6.667 4.99-11.954 1.568 2.339.005 10.203-4.99 11.953m-2.145 46.567c4.735-8.005 7.536-4.53 16.557-3.958-1.276 3.473-10.828 7.906-16.557 3.958m-18.193 15.646c-3.386-6.178 2.068-15.35 5.697-16.271-.349 9.145 2.86 12.328-5.697 16.271m24.74-34.036c-.558-8.73 3.458-7.511 10.776-11.839.849 3.37-4.23 11.875-10.776 11.839m.349-9.5c-1.855-8.156 2.12-7.62 8.369-12.818 1.312 3.058-2.193 11.855-8.369 12.818"/><path fill="#FD9A1A" d="M613.631 27.421a55 55 0 0 0-5.807-5.202.86.86 0 0 1-.339-.62c-.563-6.244-2.769-6.897-7.097-8.178-1.466-.434-3.176-.94-5.148-1.76-.349 3.219 4.964 10.084 10.912 10.38.18.004.354.063.5.167a53.4 53.4 0 0 1 6.479 5.703c9.578 9.88 15.494 23.541 15.494 38.625 0 4.11-.484 22.713-15.249 38.016-.197.203-.407.396-.615.588-4.697 4.339-11.109 9.625-19.052 12.531-.026.01-.046.021-.046.021a34 34 0 0 1-1.782.683l-.066.022c-.261.087-1.215.405-2.308.707-2.583.713-5.099 1.088-5.839 1.197 0 0-4.797.662-7.797.448a1 1 0 0 0-.083-.005h-.073c-.416.011-.787.307-.834.729a.84.84 0 0 0 .217.656.83.83 0 0 0 .638.266 57 57 0 0 0 4.041-.303 56 56 0 0 0 14.479-3.625l-.016.005c7.355-2.792 13.959-7.203 19.391-12.817 9.702-10.011 15.697-23.844 15.697-39.12s-6-29.103-15.697-39.114"/><path fill="#FD9A1A" fill-rule="evenodd" d="M613.631 27.421a55 55 0 0 0-5.807-5.202.86.86 0 0 1-.339-.62c-.563-6.244-2.769-6.897-7.097-8.178-1.466-.434-3.176-.94-5.148-1.76-.349 3.219 4.964 10.084 10.912 10.38.18.004.354.063.5.167a53.4 53.4 0 0 1 6.479 5.703c9.578 9.88 15.494 23.541 15.494 38.625 0 4.11-.484 22.713-15.249 38.016-.197.203-.407.396-.615.588-4.697 4.339-11.109 9.625-19.052 12.531-.026.01-.046.021-.046.021a34 34 0 0 1-1.782.683l-.066.022c-.261.087-1.215.405-2.308.707-2.583.713-5.099 1.088-5.839 1.197 0 0-4.797.662-7.797.448a1 1 0 0 0-.083-.005h-.073c-.416.011-.787.307-.834.729a.84.84 0 0 0 .217.656.83.83 0 0 0 .638.266 57 57 0 0 0 4.041-.303 56 56 0 0 0 14.479-3.625l-.016.005c7.355-2.792 13.959-7.203 19.391-12.817 9.702-10.011 15.697-23.844 15.697-39.12s-6-29.103-15.697-39.114" clip-rule="evenodd"/><path fill="#FD9A1A" d="M593.661 117.693c.016-.005.031-.016.047-.021Zm-260.62-48.485c-5.478 7.073-9.88 7.442-5.948 15.765 6.418-2.5 8.088-12.792 5.948-15.765m1.355 11.604c-2.745 8.093-6.604 9.797-.459 16.088 5.016-4.26 3.312-14.074.459-16.088m-10.005-21.006c5.484.194 9.969-6.806 9.338-9.661-6.245 3.443-9.582 2.323-9.338 9.661M324.307 72.927c6.656-1.558 9.75-11.433 8.068-14.651-6.38 6.177-10.755 5.917-8.068 14.65M336.344 40.385c-6.255 3.438-9.588 2.312-9.349 9.65 5.484.198 9.969-6.802 9.349-9.65M342.052 32.484c-6.161 1.85-8.891.224-10.068 6.735 4.797 1.218 10.073-4.1 10.068-6.735m-21.235 22.495c3.172-7.375-.672-7.563-5.661-13.563-1.776 2.656-.005 11.573 5.661 13.563m18.959 71.057c3.281 2.052 14.016-.407 16.224-7.344-9.047-3.579-9.136 1.084-16.224 7.344M332.093 99.994c-6.317-6.822-8.322-2.838-17.021-.374 1.979 3.125 12.251 5.442 17.021.374M346.989 114.01c-8.349-5.401-9.374-.745-17.729 4.11 2.875 2.713 14.131 2.401 17.729-4.11m-8.77-5.682c-6.318-6.828-8.328-2.844-17.022-.38 1.979 3.13 12.251 5.442 17.022.38"/><mask id="a" width="15" height="13" x="308" y="73" maskUnits="userSpaceOnUse" style="mask-type:luminance"><path fill="#fff" d="M308.251 73.334h14.416v12h-14.416z"/></mask><g mask="url(#a)"><path fill="#FD9A1A" d="M322.557 84.418c-.969-9.255-4.964-7.266-13.401-10.5-.292 3.693 6.552 11.697 13.401 10.5"/></g><path fill="#FD9A1A" d="M333.229 30.307c4.714-4.886 1.73-6.188-.426-12.422-2.198 1.574-3.464 9.15.426 12.422M327.703 37.87c4.917-5.094 1.802-6.449-.443-12.949-2.292 1.636-3.615 9.542.443 12.948"/><mask id="b" width="7" height="13" x="336" y="11" maskUnits="userSpaceOnUse" style="mask-type:luminance"><path fill="#fff" d="M336 11.245h6.667V24H336z"/></mask><g mask="url(#b)"><path fill="#FD9A1A" d="M340.625 11.297c-2.489 1.052-5.39 8.166-2.312 12.213 5.672-3.735 3.042-5.656 2.312-12.213"/></g><path fill="#FD9A1A" d="M358.396 116.115c1.568-7.588-7.12-15.474-11.24-15.282 3.317 9.511.969 13.891 11.24 15.282m-9.437-91.287c-6.312 1.25-8.87-.63-10.672 5.74 4.661 1.672 10.426-3.115 10.672-5.74m-24.688 20.85c2.802-6.5-.588-6.667-4.99-11.954-1.562 2.339-.005 10.203 4.99 11.954M326.421 92.245c-4.74-8.005-7.536-4.53-16.557-3.958 1.276 3.473 10.828 7.906 16.557 3.958M344.609 107.891c3.386-6.178-2.068-15.35-5.697-16.27.355 9.144-2.855 12.327 5.697 16.27"/><mask id="c" width="12" height="14" x="308" y="61" maskUnits="userSpaceOnUse" style="mask-type:luminance"><path fill="#fff" d="M308.251 61.334H320v13.333h-11.749z"/></mask><g mask="url(#c)"><path fill="#FD9A1A" d="M319.869 73.855c.558-8.73-3.458-7.51-10.77-11.839-.849 3.37 4.229 11.875 10.77 11.839"/></g><path fill="#FD9A1A" d="M319.527 64.354c1.849-8.156-2.126-7.62-8.37-12.817-1.312 3.057 2.188 11.855 8.37 12.817"/><mask id="d" width="56" height="112" x="321" y="11" maskUnits="userSpaceOnUse" style="mask-type:luminance"><path fill="#fff" d="M321.333 11.245h55.162v111.421h-55.162z"/></mask><g mask="url(#d)"><path fill="#FD9A1A" d="M337.683 27.421a55 55 0 0 1 5.812-5.203.87.87 0 0 0 .338-.62c.751-8.36 4.448-6.697 12.246-9.937.344 3.219-4.964 10.084-10.916 10.38a.9.9 0 0 0-.495.167 53.4 53.4 0 0 0-6.484 5.703c-9.573 9.88-15.495 23.54-15.495 38.625 0 4.11.49 22.713 15.251 38.016.197.202.407.396.615.588 4.702 4.338 11.109 9.625 19.057 12.53l.047.022c.464.193 1.068.432 1.781.682.068.022 1.125.386 2.375.73 2.578.713 5.093 1.088 5.833 1.197 0 0 4.797.661 7.803.448a.4.4 0 0 1 .084-.005h.068c.421.01.786.306.838.729a.82.82 0 0 1-.216.656.8.8 0 0 1-.291.202.8.8 0 0 1-.347.063 56 56 0 0 1-4.047-.302 56 56 0 0 1-14.473-3.626l.016.006c-7.36-2.792-13.959-7.203-19.396-12.818-9.698-10.01-15.698-23.843-15.698-39.12s6-29.104 15.698-39.114z"/></g><path fill="#FD9A1A" d="m375.448 120.751.151-.006Zm-17.792-3.058c-.016-.005-.031-.016-.052-.021ZM265.031 69.208c5.478 7.073 9.88 7.443 5.948 15.765-6.416-2.5-8.088-12.792-5.948-15.765M263.683 80.812c2.74 8.093 6.598 9.797.453 16.088-5.011-4.26-3.312-14.073-.453-16.088m10-21.005c-5.484.193-9.964-6.807-9.339-9.662 6.251 3.443 9.584 2.323 9.339 9.662m.082 13.12c-6.656-1.558-9.749-11.432-8.068-14.651 6.38 6.177 10.76 5.917 8.068 14.65m-12.03-32.542c6.25 3.438 9.584 2.312 9.344 9.65-5.484.198-9.97-6.802-9.344-9.65m-5.714-7.901c6.162 1.85 8.891.224 10.074 6.735-4.803 1.218-10.079-4.1-10.074-6.735m21.234 22.495c-3.172-7.375.672-7.563 5.661-13.563 1.776 2.656.005 11.573-5.661 13.563m-18.958 71.057c-3.281 2.052-14.016-.407-16.224-7.344 9.047-3.579 9.136 1.084 16.224 7.344m7.687-26.041c6.317-6.823 8.323-2.84 17.016-.375-1.979 3.125-12.249 5.443-17.016.375m-14.9 14.016c8.349-5.402 9.375-.746 17.729 4.109-2.874 2.713-14.13 2.401-17.729-4.109m8.771-5.683c6.317-6.828 8.328-2.844 17.021-.38-1.979 3.131-12.249 5.443-17.021.38m15.661-23.91c.969-9.255 4.964-7.266 13.401-10.5.292 3.693-6.546 11.697-13.401 10.5m-10.672-54.111c-4.713-4.886-1.729-6.188.427-12.422 2.197 1.574 3.464 9.15-.427 12.422m5.525 7.562c-4.916-5.093-1.802-6.448.448-12.948 2.287 1.636 3.61 9.542-.448 12.948"/><mask id="e" width="6" height="13" x="256" y="11" maskUnits="userSpaceOnUse" style="mask-type:luminance"><path fill="#fff" d="M256 11.245h5.333V24H256z"/></mask><g mask="url(#e)"><path fill="#FD9A1A" d="M257.448 11.297c2.489 1.052 5.391 8.166 2.317 12.213-5.677-3.735-3.046-5.656-2.317-12.213"/></g><path fill="#FD9A1A" d="M239.677 116.115c-1.568-7.588 7.12-15.474 11.24-15.282-3.317 9.511-.969 13.891-11.24 15.282m9.438-91.287c6.312 1.25 8.869-.63 10.672 5.74-4.662 1.672-10.427-3.115-10.672-5.74m24.688 20.85c-2.803-6.5.588-6.667 4.989-11.954 1.563 2.339.005 10.203-4.989 11.954m-2.152 46.568c4.74-8.006 7.536-4.531 16.557-3.96-1.271 3.474-10.828 7.907-16.557 3.96m-18.187 15.645c-3.385-6.178 2.068-15.35 5.697-16.27-.354 9.144 2.86 12.327-5.697 16.27m24.739-34.036c-.558-8.73 3.458-7.51 10.776-11.839.844 3.37-4.235 11.875-10.776 11.839m.344-9.5c-1.85-8.156 2.125-7.62 8.374-12.818 1.307 3.058-2.193 11.855-8.374 12.818"/><mask id="f" width="57" height="112" x="221" y="11" maskUnits="userSpaceOnUse" style="mask-type:luminance"><path fill="#fff" d="M221.579 11.245h55.754v111.421h-55.754z"/></mask><g mask="url(#f)"><path fill="#FD9A1A" d="M260.391 27.421a55 55 0 0 0-5.812-5.203.87.87 0 0 1-.339-.62c-.749-8.36-4.448-6.697-12.245-9.937-.344 3.219 4.964 10.084 10.917 10.38.178.005.35.063.495.167a53.4 53.4 0 0 1 6.484 5.703c9.573 9.88 15.494 23.54 15.494 38.625 0 4.11-.484 22.713-15.249 38.016-.197.202-.407.396-.615.588-4.702 4.338-11.109 9.625-19.052 12.53l-.052.022c-.464.193-1.068.432-1.781.682-.068.022-1.125.386-2.375.73-2.578.713-5.093 1.088-5.833 1.197 0 0-4.797.661-7.803.448a.4.4 0 0 0-.082-.005h-.068a.85.85 0 0 0-.839.729.82.82 0 0 0 .217.656q.123.133.29.202.167.07.348.063a56 56 0 0 0 4.046-.302 56.2 56.2 0 0 0 14.479-3.626l-.021.006c7.36-2.792 13.958-7.203 19.396-12.818 9.697-10.01 15.697-23.843 15.697-39.12s-6-29.102-15.697-39.113"/></g><mask id="g" width="2" height="2" x="221" y="120" maskUnits="userSpaceOnUse" style="mask-type:luminance"><path fill="#fff" d="M221.579 120h1.088v1.333h-1.088z"/></mask><g mask="url(#g)"><path fill="#FD9A1A" d="M222.625 120.75c-.052 0-.098-.005-.15-.005Z"/></g><path fill="#FD9A1A" d="M240.417 117.693c.016-.005.031-.016.052-.021ZM26.912 69.208c-5.479 7.073-9.885 7.442-5.953 15.765 6.417-2.5 8.088-12.792 5.953-15.765m1.348 11.604c-2.745 8.093-6.599 9.797-.453 16.088 5.01-4.26 3.306-14.074.453-16.088M18.255 59.806c5.489.194 9.969-6.806 9.344-9.661-6.25 3.443-9.588 2.323-9.344 9.661M18.172 72.927c6.656-1.558 9.75-11.433 8.068-14.651-6.38 6.177-10.755 5.917-8.068 14.65M30.208 40.385c-6.255 3.438-9.588 2.312-9.35 9.65 5.485.198 9.97-6.802 9.35-9.65M35.917 32.484c-6.161 1.85-8.89.224-10.068 6.735 4.798 1.218 10.079-4.1 10.068-6.735M14.683 54.979c3.177-7.375-.672-7.563-5.662-13.563-1.776 2.656-.005 11.573 5.662 13.563m18.957 71.057c3.281 2.052 14.021-.407 16.224-7.344-9.047-3.579-9.136 1.084-16.224 7.344M25.959 99.994c-6.318-6.822-8.323-2.838-17.022-.374 1.979 3.125 12.25 5.442 17.022.374M40.86 114.011c-8.355-5.402-9.375-.746-17.735 4.109 2.875 2.713 14.136 2.401 17.735-4.109m-8.776-5.683c-6.317-6.828-8.323-2.844-17.021-.38 1.978 3.131 12.25 5.443 17.02.38M16.42 84.418c-.97-9.255-4.958-7.266-13.401-10.5-.287 3.693 6.552 11.697 13.401 10.5M27.093 30.307c4.714-4.886 1.73-6.188-.426-12.422-2.198 1.574-3.465 9.15.426 12.422M21.568 37.87c4.917-5.094 1.803-6.449-.443-12.949-2.292 1.636-3.609 9.542.443 12.948"/><mask id="h" width="6" height="13" x="30" y="11" maskUnits="userSpaceOnUse" style="mask-type:luminance"><path fill="#fff" d="M30.667 11.245H36V24h-5.333z"/></mask><g mask="url(#h)"><path fill="#FD9A1A" d="M34.49 11.297c-2.49 1.052-5.391 8.166-2.312 12.213 5.672-3.735 3.04-5.656 2.312-12.213"/></g><path fill="#FD9A1A" d="M52.26 116.115c1.568-7.588-7.12-15.474-11.234-15.282 3.317 9.511.969 13.891 11.234 15.282m-9.437-91.287c-6.307 1.25-8.87-.63-10.672 5.74 4.661 1.672 10.426-3.115 10.672-5.74M18.14 45.678c2.797-6.5-.593-6.667-4.994-11.954-1.563 2.339-.006 10.203 4.994 11.954M20.287 92.245c-4.74-8.005-7.536-4.53-16.558-3.958 1.276 3.473 10.828 7.906 16.558 3.958M38.473 107.891c3.386-6.178-2.068-15.35-5.697-16.27.355 9.144-2.855 12.327 5.697 16.27M13.735 73.855c.557-8.73-3.459-7.51-10.77-11.839-.85 3.37 4.228 11.875 10.77 11.839M13.39 64.355c1.855-8.156-2.12-7.62-8.369-12.817-1.312 3.057 2.194 11.854 8.37 12.817"/><mask id="i" width="57" height="112" x="14" y="11" maskUnits="userSpaceOnUse" style="mask-type:luminance"><path fill="#fff" d="M14.667 11.245H70.36v111.421H14.667z"/></mask><g mask="url(#i)"><path fill="#FD9A1A" d="M31.547 27.421a56 56 0 0 1 5.812-5.203.87.87 0 0 0 .338-.62c.751-8.36 4.454-6.697 12.246-9.937.344 3.219-4.964 10.084-10.912 10.38a.9.9 0 0 0-.5.167 53.3 53.3 0 0 0-6.479 5.703c-9.578 9.88-15.494 23.54-15.494 38.625 0 4.11.483 22.713 15.245 38.016.197.202.412.396.62.588 4.697 4.338 11.104 9.625 19.052 12.53l.047.022a33 33 0 0 0 1.78.682c.069.022 1.126.386 2.376.73 2.584.713 5.093 1.088 5.838 1.197 0 0 4.792.661 7.798.448a1 1 0 0 1 .084-.005h.068c.42.01.791.306.838.729a.83.83 0 0 1-.855.921 56 56 0 0 1-4.046-.302 56 56 0 0 1-14.474-3.626l.017.006c-7.36-2.792-13.96-7.203-19.396-12.818-9.698-10.01-15.694-23.843-15.694-39.12s6-29.104 15.693-39.114z"/></g><mask id="j" width="3" height="2" x="68" y="120" maskUnits="userSpaceOnUse" style="mask-type:luminance"><path fill="#fff" d="M68 120h2.36v1.333H68z"/></mask><g mask="url(#j)"><path fill="#FD9A1A" d="m69.312 120.75.15-.005Z"/></g><path fill="#FD9A1A" d="M51.521 117.693c-.016-.005-.03-.016-.046-.021Z"/><path fill="#000" d="M114.028 77.953v-5.855l13.375-19.125h8.084v18.708h3.458v6.27h-3.458v5.5h-7.25v-5.5zm14.729-17.021-7.125 10.75h7.125zM146.625 83.787c-1.281 0-2.322-.364-3.125-1.104q-1.21-1.121-1.208-2.792 0-1.688 1.208-2.834c1.208-1.146 1.844-1.145 3.125-1.145q1.853.003 3.063 1.145a3.76 3.76 0 0 1 1.208 2.834 3.66 3.66 0 0 1-1.208 2.792c-.807.74-1.828 1.104-3.063 1.104m12.895-16.938q-3.98-2.1-3.979-6.645a7.6 7.6 0 0 1 1.188-4.145c.792-1.26 1.99-2.27 3.604-3.022 1.615-.75 3.584-1.125 5.918-1.125q3.517 0 5.917 1.125c2.4 1.126 2.781 1.76 3.563 3.022a7.6 7.6 0 0 1 1.188 4.145q-.003 2.295-1.083 4a7.4 7.4 0 0 1-2.896 2.645q2.288 1.107 3.521 3.042 1.227 1.92 1.23 4.5c0 2-.511 3.73-1.522 5.188-1.01 1.458-2.39 2.573-4.125 3.333-1.74.75-3.667 1.125-5.792 1.125q-3.17 0-5.771-1.125-2.608-1.143-4.125-3.333c-1.516-2.19-1.521-3.188-1.521-5.188q-.003-2.622 1.229-4.542 1.226-1.938 3.459-3zm10.375-5.54q0-1.727-1-2.668-.982-.955-2.646-.958-1.646 0-2.645.978c-.656.64-.979 1.536-.979 2.688q0 1.672 1 2.626 1.017.937 2.626.937 1.626.001 2.625-.959 1.019-.975 1.021-2.645zm-3.646 8.687q-1.982.001-3.208 1.084-1.232 1.063-1.229 2.979 0 1.774 1.208 2.917c1.208 1.143 1.88 1.145 3.229 1.145q2.038.002 3.208-1.145c1.171-1.147 1.167-1.735 1.167-2.916 0-1.25-.407-2.235-1.208-2.959q-1.212-1.103-3.167-1.105"/><path fill="#737373" d="m121.34 30.959-3.521-6.041h-2.312v6.04h-1.938V16.21h4.771q1.664.002 2.812.584 1.165.564 1.729 1.54c.386.64.584 1.375.584 2.209a4.3 4.3 0 0 1-.896 2.688q-.874 1.17-2.625 1.541l3.708 6.188zm-5.833-7.583h2.833q1.56.001 2.333-.77.79-.765.792-2.063-.002-1.311-.77-2.021-.777-.729-2.355-.73h-2.833zm10.224 1.75q0-1.79.708-3.126a5.2 5.2 0 0 1 1.978-2.082 5.4 5.4 0 0 1 2.812-.75c1.011 0 1.896.224 2.646.667q1.124.646 1.666 1.645v-2.125h1.959v11.604h-1.959v-2.167c-.374.683-.948 1.245-1.708 1.688q-1.125.67-2.625.667a5.33 5.33 0 0 1-2.792-.75 5.47 5.47 0 0 1-1.979-2.145q-.71-1.374-.708-3.125zm9.812.02q-.002-1.308-.542-2.291a3.73 3.73 0 0 0-1.416-1.5 3.86 3.86 0 0 0-1.978-.521 3.87 3.87 0 0 0-1.979.52 3.73 3.73 0 0 0-1.416 1.48q-.522.981-.521 2.291-.001 1.336.521 2.313.541.984 1.417 1.5a3.83 3.83 0 0 0 1.979.52c1.088 0 1.38-.171 1.979-.52a3.7 3.7 0 0 0 1.417-1.5q.541-.978.541-2.293zM143.101 20.937v6.855q-.002.835.355 1.188c.251.24.667.355 1.251.355h1.417v1.625h-1.729c-1.074 0-1.875-.24-2.416-.73q-.794-.748-.792-2.437V20.94h-1.522v-1.583h1.522V16.44h1.917v2.917h3.021v1.584zM149.452 17.48a1.3 1.3 0 0 1-1.214-.809 1.3 1.3 0 0 1-.098-.503 1.27 1.27 0 0 1 .806-1.219c.161-.064.333-.096.506-.093a1.23 1.23 0 0 1 .896.375 1.28 1.28 0 0 1 .375.937 1.31 1.31 0 0 1-.784 1.217c-.155.065-.32.097-.487.095m.937 1.875v11.604h-1.937V19.355zM159.325 19.147q2.103 0 3.418 1.292 1.312 1.273 1.312 3.688v6.833h-1.896v-6.562q0-1.725-.875-2.646-.875-.937-2.375-.937-1.525.003-2.416.959c-.89.956-.896 1.562-.896 2.77v6.418h-1.937V19.358h1.937v1.645a3.73 3.73 0 0 1 1.542-1.355 4.8 4.8 0 0 1 2.188-.5zm12.672.02q1.5 0 2.626.667 1.14.646 1.688 1.645v-2.125h1.958v11.854q0 1.58-.688 2.812a4.66 4.66 0 0 1-1.937 1.938q-1.25.706-2.937.708-2.276-.003-3.812-1.083-1.526-1.064-1.792-2.937h1.917q.31 1.06 1.292 1.708 1 .642 2.396.645 1.602 0 2.604-1c.667-.656 1-1.583 1-2.792V28.77q-.561 1.021-1.688 1.708-1.125.669-2.625.666a5.4 5.4 0 0 1-2.812-.749 5.47 5.47 0 0 1-1.979-2.145q-.71-1.375-.708-3.126 0-1.789.708-3.125a5.2 5.2 0 0 1 1.979-2.083 5.4 5.4 0 0 1 2.81-.749m4.312 5.979q-.001-1.311-.541-2.292a3.74 3.74 0 0 0-1.416-1.5 3.87 3.87 0 0 0-1.979-.522 3.86 3.86 0 0 0-1.978.522 3.73 3.73 0 0 0-1.416 1.478q-.523.981-.522 2.292-.002 1.337.522 2.312.54.984 1.417 1.5a3.83 3.83 0 0 0 1.979.522c1.086-.002 1.38-.172 1.978-.522a3.7 3.7 0 0 0 1.418-1.5q.54-.977.541-2.292z"/><mask id="k" width="26" height="24" x="75" y="94" maskUnits="userSpaceOnUse" style="mask-type:luminance"><path fill="#fff" d="M75.896 94.104h24.807v23.817H75.896z"/></mask><g fill="#FFC700" mask="url(#k)"><path d="m88.35 94.188 3.822 7.76 8.563 1.245-6.198 6.042 1.47 8.526-7.656-4.026-7.667 4.026 1.464-8.526-6.193-6.042 8.562-1.245z"/><path d="m88.287 94.115 3.833 7.754 8.563 1.246-6.198 6.046 1.464 8.527-7.661-4.027-7.656 4.027 1.459-8.527-6.194-6.046 8.557-1.246z"/><path d="m88.287 94.115 3.833 7.754 8.563 1.246-6.198 6.046 1.464 8.527-7.661-4.027-7.656 4.027 1.459-8.527-6.194-6.046 8.557-1.246z"/><path d="m88.287 94.115 3.833 7.754 8.563 1.246-6.198 6.046 1.464 8.527-7.661-4.027-7.656 4.027 1.459-8.527-6.194-6.046 8.557-1.246z"/></g><mask id="l" width="26" height="24" x="104" y="94" maskUnits="userSpaceOnUse" style="mask-type:luminance"><path fill="#fff" d="M104.719 94.104h24.806v23.817h-24.806z"/></mask><g fill="#FFC700" mask="url(#l)"><path d="m117.172 94.188 3.828 7.76 8.557 1.245-6.193 6.042 1.464 8.526-7.656-4.026-7.667 4.026 1.464-8.526-6.193-6.042 8.563-1.245z"/><path d="m117.109 94.115 3.834 7.754 8.562 1.246-6.197 6.046 1.464 8.527-7.661-4.027-7.656 4.027 1.464-8.527-6.198-6.046 8.563-1.246z"/><path d="m117.109 94.115 3.834 7.754 8.562 1.246-6.197 6.046 1.464 8.527-7.661-4.027-7.656 4.027 1.464-8.527-6.198-6.046 8.563-1.246z"/><path d="m117.109 94.115 3.834 7.754 8.562 1.246-6.197 6.046 1.464 8.527-7.661-4.027-7.656 4.027 1.464-8.527-6.198-6.046 8.563-1.246z"/></g><mask id="m" width="26" height="24" x="133" y="94" maskUnits="userSpaceOnUse" style="mask-type:luminance"><path fill="#fff" d="M133.541 94.104h24.812v23.817h-24.812z"/></mask><g fill="#FFC700" mask="url(#m)"><path d="m145.995 94.188 3.828 7.76 8.562 1.245-6.197 6.042 1.469 8.526-7.661-4.026-7.661 4.026 1.458-8.526-6.188-6.042 8.558-1.245z"/><path d="m145.937 94.115 3.828 7.754 8.563 1.246-6.197 6.046 1.464 8.527-7.656-4.027-7.662 4.027 1.464-8.527-6.197-6.046 8.563-1.246z"/><path d="m145.937 94.115 3.828 7.754 8.563 1.246-6.197 6.046 1.464 8.527-7.656-4.027-7.662 4.027 1.464-8.527-6.197-6.046 8.563-1.246z"/><path d="m145.937 94.115 3.828 7.754 8.563 1.246-6.197 6.046 1.464 8.527-7.656-4.027-7.662 4.027 1.464-8.527-6.197-6.046 8.563-1.246z"/></g><mask id="n" width="26" height="24" x="162" y="94" maskUnits="userSpaceOnUse" style="mask-type:luminance"><path fill="#fff" d="M162.364 94.104h24.812v23.817h-24.812z"/></mask><g fill="#FFC700" mask="url(#n)"><path d="m174.817 94.188 3.828 7.76 8.563 1.245-6.197 6.042 1.469 8.526-7.661-4.026-7.662 4.026 1.464-8.526-6.193-6.042 8.563-1.245z"/><path d="m174.76 94.115 3.833 7.754 8.563 1.246-6.197 6.046 1.464 8.527-7.662-4.027-7.661 4.027 1.464-8.527-6.197-6.046 8.562-1.246z"/><path d="m174.76 94.115 3.833 7.754 8.563 1.246-6.197 6.046 1.464 8.527-7.662-4.027-7.661 4.027 1.464-8.527-6.197-6.046 8.562-1.246z"/><path d="m174.76 94.115 3.833 7.754 8.563 1.246-6.197 6.046 1.464 8.527-7.662-4.027-7.661 4.027 1.464-8.527-6.197-6.046 8.562-1.246z"/></g><mask id="o" width="25" height="24" x="191" y="94" maskUnits="userSpaceOnUse" style="mask-type:luminance"><path fill="#fff" d="M191.193 94.104H216v23.817h-24.807z"/></mask><g fill="#FFC700" mask="url(#o)"><path d="m203.645 94.188 3.828 7.76 8.558 1.245-6.194 6.042 1.464 8.526-7.656-4.026-7.666 4.026 1.464-8.526-6.194-6.042 8.563-1.245z"/><path d="m203.584 94.115 3.833 7.754 8.563 1.246-6.197 6.046 1.464 8.527-7.662-4.027-7.656 4.027 1.464-8.527-6.197-6.046 8.563-1.246z"/><path d="m203.584 94.115 3.833 7.754 8.563 1.246-6.197 6.046 1.464 8.527-7.662-4.027-7.656 4.027 1.464-8.527-6.197-6.046 8.563-1.246z"/><path d="m203.584 94.115 3.833 7.754 8.563 1.246-6.197 6.046 1.464 8.527-7.662-4.027-7.656 4.027 1.464-8.527-6.197-6.046 8.563-1.246z"/></g><path fill="#737373" d="M430.884 16.21v1.562h-4.021V30.96h-1.916V17.772h-4.042V16.21zM435.189 21.251a3.6 3.6 0 0 1 1.438-1.541q.938-.564 2.312-.563v2h-.522q-3.232 0-3.229 3.5v6.312h-1.938V19.355h1.938zM451.439 19.355v11.604h-1.916v-1.708a3.9 3.9 0 0 1-1.542 1.375c-.977.498-1.374.5-2.166.5q-1.36 0-2.438-.563a4.1 4.1 0 0 1-1.708-1.667q-.625-1.124-.625-2.749v-6.792h1.917v6.541c0 1.14.282 2.022.855 2.646q.875.92 2.375.917 1.54 0 2.437-.959c.897-.96.896-1.562.896-2.77v-6.375zm7.358 11.792a6 6 0 0 1-2.396-.459 4.13 4.13 0 0 1-1.666-1.27 3.37 3.37 0 0 1-.667-1.875h1.979q.077.876.812 1.437.728.544 1.917.542 1.103.002 1.729-.479c.427-.333.646-.74.646-1.23a1.23 1.23 0 0 0-.688-1.145q-.672-.371-2.083-.729-1.294-.328-2.104-.688a3.8 3.8 0 0 1-1.396-1.041c-.385-.459-.583-1.052-.583-1.792a2.73 2.73 0 0 1 .522-1.626q.54-.75 1.5-1.188.977-.437 2.229-.437c1.292 0 2.323.328 3.104.979q1.187.981 1.271 2.666h-1.916a1.99 1.99 0 0 0-.73-1.459c-.448-.374-1.041-.562-1.792-.562-.697 0-1.249.156-1.666.459a1.37 1.37 0 0 0-.453.505 1.37 1.37 0 0 0-.151.661q0 .563.374.938c.269.262.588.467.938.604q.563.213 1.562.478 1.224.337 2.022.667c.797.33.978.557 1.354 1q.56.646.584 1.708a2.9 2.9 0 0 1-.541 1.708q-.524.75-1.5 1.188-.96.437-2.208.437zM468.096 20.937v6.855q-.003.835.355 1.188c.25.24.666.355 1.25.355h1.418v1.625h-1.73c-1.073 0-1.874-.24-2.416-.73q-.793-.748-.792-2.437V20.94h-1.521v-1.583h1.521V16.44h1.918v2.917h3.021v1.584zM484.029 24.71q-.003.584-.062 1.166h-9.271q.104 1.71 1.167 2.688 1.08.96 2.604.959 1.248 0 2.084-.583c.834-.583.942-.907 1.166-1.563h2.084a4.94 4.94 0 0 1-1.854 2.73c-1.394 1.04-2.094 1.041-3.479 1.041q-1.647.003-2.959-.73a5.33 5.33 0 0 1-2.041-2.103q-.732-1.373-.729-3.167 0-1.81.708-3.167a5.1 5.1 0 0 1 2.021-2.082q1.312-.729 3-.73 1.642.001 2.917.73a4.93 4.93 0 0 1 1.959 1.978q.688 1.254.688 2.834zm-1.978-.397q0-1.1-.5-1.896a3.2 3.2 0 0 0-1.312-1.208 4.14 4.14 0 0 0-1.855-.416 3.6 3.6 0 0 0-2.5.938q-1.026.94-1.167 2.584zM485.863 25.126q0-1.79.708-3.126a5.2 5.2 0 0 1 1.978-2.082 5.47 5.47 0 0 1 2.834-.75 5.27 5.27 0 0 1 2.521.626c.781.417 1.364.969 1.771 1.645v-6.145h1.958V30.96h-1.958v-2.188q-.562 1.045-1.688 1.708c-1.127.663-1.626.667-2.626.667a5.4 5.4 0 0 1-2.812-.75 5.46 5.46 0 0 1-1.978-2.145q-.71-1.376-.708-3.126m9.812.02q-.002-1.308-.542-2.291a3.73 3.73 0 0 0-1.416-1.5 3.87 3.87 0 0 0-1.978-.521 3.87 3.87 0 0 0-1.979.52 3.73 3.73 0 0 0-1.416 1.48q-.523.981-.521 2.291-.002 1.336.521 2.313.54.984 1.417 1.5a3.83 3.83 0 0 0 1.979.52c1.088 0 1.38-.171 1.979-.52a3.7 3.7 0 0 0 1.417-1.5q.541-.978.541-2.293zm12.793-3.625q.58-1.04 1.729-1.687 1.142-.666 2.604-.667 1.561 0 2.812.75a5.1 5.1 0 0 1 1.959 2.084q.727 1.337.729 3.126-.001 1.75-.729 3.125a5.3 5.3 0 0 1-1.979 2.146 5.33 5.33 0 0 1-2.792.75q-1.502.002-2.645-.645-1.124-.665-1.688-1.688v2.145h-1.937V15.293h1.937zm7.875 3.604q-.002-1.308-.542-2.291a3.56 3.56 0 0 0-1.437-1.48 3.87 3.87 0 0 0-1.959-.52 3.86 3.86 0 0 0-1.958.52 3.8 3.8 0 0 0-1.438 1.522q-.543.984-.541 2.27-.002 1.314.541 2.293c.544.979.839 1.156 1.438 1.5.593.348 1.27.528 1.958.521a3.8 3.8 0 0 0 1.959-.521 3.64 3.64 0 0 0 1.437-1.5q.54-.976.542-2.314m14.496-5.77-6.979 17.062h-2l2.292-5.582-4.688-11.479h2.145l3.646 9.396 3.584-9.396zM385.427 102.995q.56-.997 1.688-1.667c.76-.442 1.645-.666 2.645-.666q1.54 0 2.792.75a5.07 5.07 0 0 1 1.979 2.084q.728 1.337.729 3.126-.002 1.75-.729 3.125a5.3 5.3 0 0 1-1.979 2.145 5.33 5.33 0 0 1-2.792.751q-1.484.003-2.625-.667c-.75-.442-1.323-1-1.708-1.666v7.645h-1.938V100.85h1.938zm7.874 3.625q-.001-1.31-.541-2.292a3.56 3.56 0 0 0-1.437-1.478 3.87 3.87 0 0 0-1.959-.522 3.87 3.87 0 0 0-1.959.522 3.8 3.8 0 0 0-1.437 1.521q-.544.984-.541 2.271-.003 1.313.541 2.292c.544.978.839 1.156 1.437 1.5a3.8 3.8 0 0 0 1.959.521 3.8 3.8 0 0 0 1.959-.521 3.64 3.64 0 0 0 1.437-1.5q.541-.977.541-2.312zM408.381 106.204q-.003.585-.062 1.167h-9.271q.104 1.71 1.167 2.688 1.08.96 2.604.958 1.249 0 2.084-.582c.834-.583.942-.907 1.166-1.563h2.084a4.93 4.93 0 0 1-1.854 2.729c-1.394 1.04-2.094 1.042-3.479 1.042q-1.647.002-2.959-.73a5.33 5.33 0 0 1-2.041-2.104q-.732-1.373-.729-3.166 0-1.81.708-3.167a5.1 5.1 0 0 1 2.021-2.083q1.313-.727 3-.729 1.642.002 2.917.729a4.93 4.93 0 0 1 1.959 1.979q.688 1.254.688 2.833zm-1.978-.396q0-1.1-.5-1.896a3.2 3.2 0 0 0-1.312-1.208 4.14 4.14 0 0 0-1.855-.416 3.6 3.6 0 0 0-2.5.937q-1.026.94-1.167 2.584zM415.984 112.641c-1.083 0-2.073-.24-2.959-.729a5.34 5.34 0 0 1-2.062-2.104q-.75-1.373-.75-3.167c0-1.793.255-2.24.771-3.145a5.27 5.27 0 0 1 2.104-2.104c1.337-.732 1.88-.729 2.979-.729 1.098 0 2.088.245 2.978.729s1.588 1.183 2.104 2.084c.527.907.792 1.959.792 3.167q0 1.794-.812 3.166a5.6 5.6 0 0 1-2.145 2.104q-1.36.732-3 .73zm0-1.688a4 4 0 0 0 1.937-.478 3.83 3.83 0 0 0 1.479-1.459q.563-.976.563-2.375c0-1.398-.188-1.718-.563-2.374a3.6 3.6 0 0 0-1.437-1.459 3.96 3.96 0 0 0-1.916-.479 4 4 0 0 0-1.938.479 3.6 3.6 0 0 0-1.416 1.459q-.522.984-.521 2.374-.001 1.421.521 2.396.516.96 1.375 1.438a3.9 3.9 0 0 0 1.917.478zM426.405 102.995q.562-.997 1.688-1.667c.76-.442 1.646-.666 2.646-.666q1.54 0 2.792.75a5.06 5.06 0 0 1 1.978 2.084q.729 1.337.73 3.126-.001 1.75-.73 3.125a5.3 5.3 0 0 1-1.978 2.145 5.33 5.33 0 0 1-2.792.751q-1.485.003-2.626-.667c-.749-.442-1.322-1-1.708-1.666v7.645h-1.937V100.85h1.937zm7.875 3.625q-.001-1.31-.541-2.292a3.56 3.56 0 0 0-1.438-1.478 3.87 3.87 0 0 0-1.958-.522 3.87 3.87 0 0 0-1.959.522 3.8 3.8 0 0 0-1.437 1.521q-.544.984-.542 2.271-.002 1.313.542 2.292c.544.978.838 1.156 1.437 1.5a3.8 3.8 0 0 0 1.959.521 3.8 3.8 0 0 0 1.958-.521 3.65 3.65 0 0 0 1.438-1.5q.541-.977.541-2.312zM440.715 96.787v15.666h-1.938V96.787zM454.567 106.204q-.003.585-.063 1.167h-9.271q.104 1.71 1.167 2.688 1.08.96 2.604.958 1.249 0 2.084-.582c.835-.583.943-.907 1.167-1.563h2.084a4.94 4.94 0 0 1-1.855 2.729c-1.393 1.04-2.093 1.042-3.479 1.042q-1.647.002-2.958-.73a5.33 5.33 0 0 1-2.042-2.104q-.732-1.373-.729-3.166 0-1.81.708-3.167a5.12 5.12 0 0 1 2.021-2.083q1.312-.727 3-.729 1.641.002 2.918.729a4.93 4.93 0 0 1 1.958 1.979q.688 1.254.688 2.833zm-1.979-.396q0-1.1-.5-1.896a3.2 3.2 0 0 0-1.312-1.208 4.14 4.14 0 0 0-1.855-.416 3.6 3.6 0 0 0-2.5.937q-1.025.94-1.166 2.584zM478.217 100.85l-3.625 11.604h-1.979l-2.792-9.208-2.812 9.208h-1.978l-3.646-11.604h1.979l2.667 9.75 2.874-9.749h1.959l2.812 9.771 2.625-9.771zM485.177 112.641c-1.083 0-2.073-.24-2.958-.729a5.33 5.33 0 0 1-2.063-2.104q-.75-1.373-.75-3.167c0-1.793.255-2.24.771-3.145a5.3 5.3 0 0 1 2.104-2.104c1.338-.732 1.88-.729 2.979-.729 1.098 0 2.088.245 2.978.729s1.588 1.183 2.104 2.084c.527.907.792 1.959.792 3.167q0 1.794-.812 3.166a5.6 5.6 0 0 1-2.145 2.104q-1.36.732-3 .73zm0-1.688a4 4 0 0 0 1.938-.478 3.83 3.83 0 0 0 1.478-1.459q.563-.976.563-2.375c0-1.398-.188-1.718-.563-2.374a3.6 3.6 0 0 0-1.437-1.459 3.96 3.96 0 0 0-1.916-.479 4 4 0 0 0-1.938.479 3.6 3.6 0 0 0-1.416 1.459q-.522.984-.521 2.374-.001 1.421.521 2.396.517.96 1.375 1.438a3.9 3.9 0 0 0 1.918.478zM495.599 102.746a3.6 3.6 0 0 1 1.437-1.542q.938-.562 2.312-.562v2h-.521q-3.233 0-3.23 3.5v6.312h-1.937V100.85h1.937zM503.493 96.787v15.666h-1.937V96.787zM506.056 106.62q0-1.79.708-3.125a5.2 5.2 0 0 1 1.979-2.083 5.46 5.46 0 0 1 2.833-.749q1.35 0 2.521.625c1.171.625 1.364.969 1.771 1.645v-6.146h1.959v15.666h-1.959v-2.188q-.561 1.046-1.688 1.708c-1.127.663-1.625.667-2.625.667a5.4 5.4 0 0 1-2.812-.749 5.47 5.47 0 0 1-1.979-2.146q-.71-1.374-.708-3.125m9.812.021q-.001-1.31-.541-2.292-.526-.975-1.416-1.5c-.891-.524-1.26-.521-1.979-.521s-1.385.177-1.979.521c-.6.352-1.091.864-1.416 1.479q-.522.982-.521 2.292-.001 1.336.521 2.312.54.984 1.418 1.5a3.83 3.83 0 0 0 1.978.521c1.088-.001 1.38-.172 1.979-.521s1.068-.844 1.417-1.5q.542-.978.542-2.292zM536.53 100.85l-3.625 11.604h-1.979l-2.792-9.208-2.812 9.208h-1.978l-3.646-11.604h1.979l2.667 9.75 2.874-9.749h1.959l2.812 9.771 2.626-9.771zM539.428 98.975a1.307 1.307 0 0 1-1.312-1.312 1.27 1.27 0 0 1 .806-1.22c.161-.063.333-.095.506-.092a1.23 1.23 0 0 1 .896.374 1.28 1.28 0 0 1 .375.938 1.31 1.31 0 0 1-.784 1.217c-.154.064-.32.097-.487.095m.937 1.874v11.604h-1.937v-11.604zM542.928 106.62q0-1.79.708-3.125a5.2 5.2 0 0 1 1.979-2.083 5.46 5.46 0 0 1 2.833-.749q1.35 0 2.521.625c1.171.625 1.364.969 1.771 1.645v-6.146h1.959v15.666h-1.959v-2.188q-.561 1.046-1.688 1.708c-1.127.663-1.625.667-2.625.667a5.4 5.4 0 0 1-2.812-.749 5.47 5.47 0 0 1-1.979-2.146q-.71-1.374-.708-3.125m9.812.021q-.001-1.31-.541-2.292-.527-.975-1.416-1.5c-.891-.524-1.26-.521-1.979-.521s-1.385.177-1.979.521c-.6.352-1.091.864-1.416 1.479q-.522.982-.521 2.292-.001 1.336.521 2.312.54.984 1.418 1.5a3.83 3.83 0 0 0 1.978.521c1.088-.001 1.38-.172 1.979-.521s1.068-.844 1.417-1.5q.542-.978.542-2.292zM568.527 106.204q-.003.585-.063 1.167h-9.271q.104 1.71 1.167 2.688 1.08.96 2.604.958 1.249 0 2.084-.582c.835-.583.943-.907 1.167-1.563h2.084a4.94 4.94 0 0 1-1.855 2.729c-1.393 1.04-2.093 1.042-3.479 1.042q-1.647.002-2.958-.73a5.33 5.33 0 0 1-2.042-2.104q-.732-1.373-.729-3.166 0-1.81.708-3.167a5.12 5.12 0 0 1 2.021-2.083q1.312-.727 3-.729 1.641.002 2.918.729a4.93 4.93 0 0 1 1.958 1.979q.688 1.254.688 2.833zm-1.979-.396q0-1.1-.5-1.896a3.2 3.2 0 0 0-1.312-1.208 4.14 4.14 0 0 0-1.855-.416 3.6 3.6 0 0 0-2.5.937q-1.025.94-1.166 2.584z"/><path fill="#000" d="M375.035 77.953v-5.855l13.374-19.125h8.084v18.708h3.459v6.27h-3.459v5.5h-7.249v-5.5zm14.729-17.021-7.125 10.75h7.125zM403.505 67.579q0-7.29 2.812-11.479c1.886-2.792 4.918-4.188 9.084-4.188q6.268 0 9.084 4.188c2.816 4.188 2.812 6.62 2.812 11.479q0 7.375-2.812 11.562c-2.812 4.187-4.906 4.188-9.082 4.188q-6.254 0-9.083-4.188-2.812-4.186-2.812-11.562zm16.688 0q0-4.269-.937-6.583-.92-2.312-3.855-2.312c-1.948 0-3.229.77-3.854 2.312-.615 1.541-.916 3.74-.916 6.584q-.001 2.88.333 4.77.328 1.877 1.375 3.042c1.046 1.165 1.713 1.167 3.062 1.167 1.36 0 2.386-.386 3.084-1.167.699-.781 1.151-1.792 1.375-3.041.219-1.26.333-2.855.333-4.77zM431.107 67.579q0-7.29 2.812-11.479c1.885-2.792 4.917-4.188 9.084-4.188q6.267 0 9.084 4.188c2.816 4.188 2.812 6.62 2.812 11.479q0 7.375-2.812 11.562c-2.812 4.187-4.907 4.188-9.083 4.188q-6.253 0-9.083-4.188-2.812-4.186-2.812-11.562zm16.688 0q0-4.269-.938-6.583-.92-2.312-3.854-2.312c-1.948 0-3.23.77-3.855 2.312-.615 1.541-.916 3.74-.916 6.584q-.001 2.88.333 4.77.328 1.877 1.375 3.042c1.047 1.165 1.713 1.167 3.063 1.167 1.36 0 2.385-.386 3.084-1.167.698-.781 1.15-1.792 1.374-3.041.219-1.26.334-2.855.334-4.77zM467.229 76.765l-4.708 12.145h-4.604l2.459-12.145zM470.857 67.579q0-7.29 2.812-11.479c1.886-2.792 4.918-4.188 9.084-4.188q6.268 0 9.084 4.188c2.816 4.188 2.812 6.62 2.812 11.479q0 7.375-2.812 11.562c-2.812 4.187-4.906 4.188-9.082 4.188q-6.254 0-9.083-4.188-2.812-4.186-2.812-11.562zm16.688 0q0-4.269-.937-6.583-.92-2.312-3.855-2.312c-1.948 0-3.229.77-3.854 2.312-.615 1.541-.916 3.74-.916 6.584q-.001 2.88.333 4.77.328 1.877 1.375 3.042c1.046 1.165 1.713 1.167 3.062 1.167 1.36 0 2.386-.386 3.084-1.167.699-.781 1.151-1.792 1.375-3.041.219-1.26.333-2.855.333-4.77zM498.459 67.579q0-7.29 2.812-11.479c1.885-2.792 4.917-4.188 9.084-4.188q6.267 0 9.084 4.188c2.816 4.188 2.812 6.62 2.812 11.479q0 7.375-2.812 11.562c-2.812 4.187-4.907 4.188-9.083 4.188q-6.253 0-9.083-4.188-2.812-4.186-2.812-11.562zm16.688 0q0-4.269-.938-6.583-.92-2.312-3.854-2.312c-1.948 0-3.23.77-3.855 2.312-.615 1.541-.916 3.74-.916 6.584q-.002 2.88.333 4.77.328 1.877 1.375 3.042c1.047 1.165 1.713 1.167 3.063 1.167 1.36 0 2.385-.386 3.084-1.167.698-.781 1.15-1.792 1.374-3.041.219-1.26.334-2.855.334-4.77zM526.06 67.579q0-7.29 2.812-11.479c1.885-2.792 4.917-4.188 9.084-4.188q6.269 0 9.084 4.188c2.816 4.188 2.812 6.62 2.812 11.479q0 7.375-2.812 11.562c-2.812 4.187-4.907 4.188-9.083 4.188q-6.253 0-9.082-4.188-2.812-4.186-2.812-11.562zm16.688 0q0-4.269-.937-6.583-.921-2.312-3.855-2.312c-1.948 0-3.229.77-3.855 2.312-.614 1.541-.916 3.74-.916 6.584q-.001 2.88.334 4.77.328 1.877 1.374 3.042c1.047 1.165 1.714 1.167 3.063 1.167 1.36 0 2.385-.386 3.084-1.167s1.151-1.792 1.375-3.041c.218-1.26.333-2.855.333-4.77zM575.849 71.89h-7.354v7.542h-6.875V71.89h-7.355v-6.48h7.355V57.85h6.875v7.563h7.354z"/></svg>