<svg width="455" height="290" viewBox="0 0 455 290" fill="none" xmlns="http://www.w3.org/2000/svg">
<g id="Group 32">
<path id="Fill 4" opacity="0.4" fill-rule="evenodd" clip-rule="evenodd" d="M24.647 71.3588C33.0573 71.3588 40.5683 75.1216 45.5256 81.0201C48.0704 77.3673 52.3496 74.9677 57.2058 74.9677C58.2667 74.9677 59.2961 75.0919 60.2906 75.3084C60.4276 60.6566 71.9395 48.6803 86.6013 47.4227C86.2791 45.62 86.0782 43.7754 86.0782 41.8825C86.0782 24.2737 100.656 10 118.637 10C134.675 10 147.974 21.3651 150.668 36.3138C157.884 31.1396 166.753 28.0463 176.384 28.0463C200.472 28.0463 220 47.1688 220 70.7575C220 76.511 218.821 81.9896 216.714 87H0C4.22757 77.7861 13.6616 71.3588 24.647 71.3588Z" fill="#FFFFFE"/>
<g id="Group 2" opacity="0.2">
<path id="Fill 11" fill-rule="evenodd" clip-rule="evenodd" d="M429.205 49.1615C428.202 49.1615 427.212 49.2069 426.233 49.2827C426.387 48.3601 426.487 47.4182 426.487 46.4522C426.487 36.9738 418.778 29.2904 409.269 29.2904C409.022 29.2904 408.781 29.3172 408.537 29.3276C408.819 27.9543 408.967 26.5322 408.967 25.0755C408.967 13.4363 399.501 4 387.823 4C376.944 4 367.992 12.1933 366.818 22.7245C363.388 20.7808 359.43 19.6563 355.201 19.6563C343.759 19.6563 334.23 27.789 332.094 38.5696C330.334 37.6463 328.332 37.1185 326.204 37.1185C319.197 37.1185 313.517 42.7803 313.517 49.763C313.517 51.5021 313.87 53.1572 314.507 54.6655C306.994 55.072 300.21 57.0234 295 60H455C448.969 53.3997 439.66 49.1615 429.205 49.1615Z" fill="#FFFFFE"/>
</g>
<g id="Group 12">
<ellipse id="Oval" cx="232.374" cy="237.055" rx="138" ry="40.5" transform="rotate(-5 232.374 237.055)" fill="#000937" fill-opacity="0.05"/>
<g id="Group">
<g id="Group 33">
<path id="Clip 26" fill-rule="evenodd" clip-rule="evenodd" d="M277.313 26.9472C277.313 26.9472 319.997 60.079 335.04 111.734C335.04 111.734 277.31 193.153 230.149 202.487C230.149 202.487 184.722 118.002 183.315 73.1602C183.315 73.1602 237.89 24.3207 277.313 26.9472Z" fill="#FF3234"/>
<mask id="mask0_0_971" style="mask-type:luminance" maskUnits="userSpaceOnUse" x="183" y="26" width="153" height="177">
<path id="Clip 26_2" fill-rule="evenodd" clip-rule="evenodd" d="M277.313 26.9472C277.313 26.9472 319.997 60.079 335.04 111.734C335.04 111.734 277.31 193.153 230.149 202.487C230.149 202.487 184.722 118.002 183.315 73.1602C183.315 73.1602 237.89 24.3207 277.313 26.9472Z" fill="white"/>
</mask>
<g mask="url(#mask0_0_971)">
<path id="Fill 25" fill-rule="evenodd" clip-rule="evenodd" d="M293.2 82.1393L262.009 76.6437L268.584 44.3312C273.546 47.7063 275.096 51.1384 282.043 53.7456C289.95 55.2235 297.563 50.0107 299.043 42.0998C300.485 34.3745 295.537 26.9351 287.938 25.2154C287.762 25.1721 287.585 25.1311 287.397 25.1022C282.545 24.1954 278.635 25.1793 272.569 26.3705L277.328 -2.43604L355.555 12.1857L349.819 42.8709C355.74 41.6476 360.563 38.7825 365.332 39.6765C365.517 39.703 365.696 39.7432 365.875 39.7898C373.474 41.5095 378.42 48.9472 376.974 56.6709C375.495 64.5834 367.888 69.7939 359.979 68.3159C353.162 65.7609 351.535 62.4067 346.787 59.0926L340.932 90.4156L310.027 85.4212C311.109 91.8156 314.211 96.1056 313.272 101.142C313.239 101.327 313.202 101.511 313.151 101.681C311.437 109.286 303.997 114.232 296.268 112.787C288.357 111.308 282.533 103.51 284.013 95.6044C286.721 88.3859 289.699 87.5923 293.2 82.1393Z" fill="#F6BB05"/>
<path id="Fill 27" fill-rule="evenodd" clip-rule="evenodd" d="M268.688 172.606C271.246 165.787 275.451 163.914 278.766 159.165L247.82 154.439L253.628 123.379C247.236 124.463 242.133 127.716 237.097 126.774C236.912 126.744 236.732 126.707 236.554 126.654C228.952 124.939 224.01 117.502 225.454 109.773C226.932 101.864 234.541 96.6535 242.451 98.1314C249.674 100.84 251.063 104.439 256.512 107.938L262.443 76.2085L293.904 82.0888C290.529 87.0511 287.1 88.6013 284.497 95.5459C283.016 103.455 288.225 111.068 296.137 112.544C303.866 113.989 311.304 109.042 313.02 101.441C313.068 101.27 313.11 101.088 313.136 100.897C314.041 96.0535 311.062 91.1387 309.87 85.0736L340.676 90.8294L326.054 169.063L295.365 163.328C296.59 169.246 299.455 174.068 298.563 178.836C298.537 179.023 298.496 179.202 298.451 179.377C296.729 186.979 289.291 191.92 281.567 190.479C273.657 188.998 267.21 180.513 268.688 172.606Z" fill="#22B840"/>
<path id="Fill 28" fill-rule="evenodd" clip-rule="evenodd" d="M159.556 111.898C159.369 111.874 159.191 111.834 159.015 111.787C151.412 110.074 146.462 102.643 147.894 94.9176C149.366 87.0043 156.969 81.7834 164.877 83.2509C171.701 85.8019 173.326 89.1513 178.078 92.4598L183.896 61.1304L214.965 66.9023C213.871 60.5111 210.613 55.4115 211.551 50.3753C211.579 50.1906 211.617 50.0091 211.668 49.8323C213.374 42.2275 220.807 37.2773 228.538 38.7126C236.448 40.1833 241.668 47.7874 240.198 55.6958C237.499 62.9231 233.902 64.3175 230.405 69.7689L262.855 75.7979L256.683 108.518C251.719 105.152 249.342 101.205 242.394 98.61C234.483 97.1361 227.314 101.485 225.846 109.399C224.409 117.13 229.365 124.561 236.969 126.271C237.141 126.318 237.32 126.358 237.511 126.385C242.357 127.286 247.266 124.302 253.332 123.102L247.61 153.913L169.36 139.379L175.062 108.683C169.144 109.914 164.326 112.788 159.556 111.898Z" fill="#1396E5"/>
<path id="Fill 29" fill-rule="evenodd" clip-rule="evenodd" d="M227.19 174.821C234.388 177.582 235.754 181.193 241.181 184.736L247.345 153.052L278.766 159.165C275.355 164.103 271.911 165.626 269.251 172.554C267.715 180.45 272.87 188.1 280.769 189.639C288.484 191.14 295.96 186.249 297.737 178.663C297.781 178.487 297.824 178.31 297.855 178.122C298.798 173.276 295.85 168.344 294.704 162.27L325.467 168.259L310.259 246.375L279.618 240.409C280.796 246.339 283.625 251.183 282.696 255.945C282.667 256.13 282.627 256.308 282.578 256.488C280.802 264.073 273.327 268.964 265.614 267.46C257.713 265.921 252.56 258.275 254.097 250.378C256.704 243.58 260.07 241.978 263.419 237.255L232.141 231.165L238.178 200.155C231.776 201.189 226.651 204.402 221.622 203.426C221.437 203.391 221.254 203.353 221.084 203.301C213.493 201.53 208.601 194.052 210.106 186.334C211.643 178.435 219.295 173.283 227.19 174.821Z" fill="#FF3234"/>
<path id="Fill 30" fill-rule="evenodd" clip-rule="evenodd" d="M150.292 159.866C150.11 159.82 149.93 159.791 149.748 159.77C142.051 158.55 134.704 163.625 133.179 171.332C131.62 179.229 136.755 186.89 144.645 188.451C151.927 188.603 154.675 186.092 160.315 184.776L154.137 216.036L185.139 222.16C181.76 227.694 176.846 231.227 175.855 236.253C175.814 236.435 175.782 236.618 175.764 236.801C174.539 244.499 179.613 251.846 187.328 253.37C195.221 254.928 202.883 249.793 204.439 241.902C204.604 234.188 201.778 231.563 200.545 225.205L232.214 231.462L238.418 200.063C232.561 201.356 229.847 203.967 222.432 203.809C214.538 202.254 209.398 194.593 210.961 186.698C212.483 178.984 219.837 173.911 227.533 175.134C227.711 175.153 227.892 175.182 228.079 175.228C232.915 176.182 236.373 180.771 241.566 184.127L247.642 153.385L169.562 137.957L163.511 168.586C158.468 165.254 155.053 160.803 150.292 159.866Z" fill="#DD7C65"/>
<path id="Stroke 32" d="M335.04 111.734C335.09 112.231 335.09 112.231 335.089 112.231C335.088 112.232 335.087 112.232 335.086 112.232C335.083 112.232 335.079 112.232 335.074 112.233C335.063 112.234 335.048 112.235 335.027 112.237C334.987 112.241 334.926 112.247 334.846 112.254C334.686 112.268 334.448 112.289 334.136 112.313C333.511 112.363 332.586 112.429 331.386 112.496C328.986 112.631 325.483 112.77 321.064 112.791C312.227 112.833 299.724 112.4 285.057 110.502C255.726 106.705 217.712 97.0441 183.035 73.5743L183.596 72.7462C218.101 96.0998 255.949 105.726 285.185 109.51C299.801 111.402 312.258 111.833 321.06 111.791C325.46 111.77 328.946 111.631 331.33 111.498C332.523 111.431 333.439 111.365 334.057 111.317C334.366 111.292 334.6 111.272 334.757 111.258C334.835 111.251 334.894 111.246 334.933 111.242C334.953 111.24 334.967 111.239 334.977 111.238C334.982 111.237 334.985 111.237 334.987 111.237C334.989 111.237 334.989 111.236 334.99 111.236C334.99 111.236 334.991 111.236 335.04 111.734ZM277.313 26.9473C277.764 27.1631 277.764 27.1634 277.764 27.1642C277.763 27.1649 277.763 27.166 277.762 27.1676C277.761 27.1706 277.758 27.1752 277.756 27.1814C277.75 27.1938 277.741 27.2123 277.729 27.2371C277.705 27.2866 277.67 27.3607 277.624 27.459C277.531 27.6556 277.393 27.9488 277.213 28.3345C276.852 29.106 276.324 30.2475 275.652 31.7263C274.309 34.6841 272.391 38.9913 270.097 44.3867C265.508 55.1777 259.412 70.3197 253.385 87.7225C241.325 122.544 229.56 166.357 230.649 202.472L229.649 202.503C228.555 166.195 240.373 122.238 252.44 87.3952C258.477 69.9659 264.581 54.802 269.177 43.9953C271.475 38.5918 273.395 34.2771 274.742 31.3128C275.415 29.8306 275.945 28.6859 276.307 27.9115C276.487 27.5242 276.626 27.2296 276.72 27.0315C276.767 26.9325 276.802 26.8577 276.826 26.8075C276.838 26.7824 276.847 26.7635 276.853 26.7508C276.856 26.7444 276.858 26.7396 276.86 26.7364C276.861 26.7348 276.861 26.7335 276.862 26.7327C276.862 26.7319 276.862 26.7314 277.313 26.9473Z" fill="#44211D"/>
</g>
</g>
<path id="Fill 34" fill-rule="evenodd" clip-rule="evenodd" d="M154.79 241.618C154.79 241.618 154.739 241.633 154.643 241.663C153.062 242.146 139.291 246.459 141.585 248.977C144.019 251.647 162.891 253.427 164.493 251.321C166.095 249.214 167.46 242.508 167.46 242.508L154.79 241.618Z" fill="#0A0B09"/>
<path id="Fill 35" fill-rule="evenodd" clip-rule="evenodd" d="M188.103 175.848C188.103 175.848 160.257 190.771 154.347 241.639C154.347 241.639 156.317 243.434 160.624 243.948C165.238 244.5 167.23 243.491 167.23 243.491C167.23 243.491 173.168 211.637 210.885 207.201C246.798 202.976 231.696 167.394 231.696 167.394L188.103 175.848Z" fill="#1396E5"/>
<path id="Fill 36" fill-rule="evenodd" clip-rule="evenodd" d="M162.203 244.381L163.132 244.363C162.837 228.867 170.33 216.852 185.4 208.65C196.673 202.515 208.173 200.951 208.287 200.935L208.167 200.014C208.05 200.029 196.379 201.617 184.956 207.834C178.229 211.495 172.896 216.021 169.106 221.288C164.36 227.883 162.037 235.652 162.203 244.381Z" fill="black"/>
<path id="Fill 37" fill-rule="evenodd" clip-rule="evenodd" d="M290.347 222.289C290.347 222.289 290.379 222.331 290.441 222.411C291.448 223.722 300.31 235.111 301.865 232.079C303.514 228.865 298.572 210.564 296.037 209.802C293.503 209.039 286.743 210.11 286.743 210.11L290.347 222.289Z" fill="#302B35"/>
<path id="Fill 38" fill-rule="evenodd" clip-rule="evenodd" d="M238.492 164.551C238.492 164.551 245.328 199.503 256.59 206.631C267.851 213.757 288.243 209.901 288.243 209.901C288.243 209.901 291.75 211.88 292.305 215.067C293.08 219.511 290.771 222.683 290.771 222.683C290.771 222.683 261.87 236.167 241.413 227.667C232.372 223.909 217.428 213.184 209.655 201.76C199.842 187.335 198.221 172.127 198.221 172.127L238.492 164.551Z" fill="#1396E5"/>
<path id="Fill 39" fill-rule="evenodd" clip-rule="evenodd" d="M212.913 206.191L213.255 205.327C213.236 205.318 211.186 204.349 206.429 196.757L205.64 197.25C210.578 205.128 212.689 206.105 212.913 206.191Z" fill="black"/>
<path id="Fill 40" fill-rule="evenodd" clip-rule="evenodd" d="M265.264 216.821C272.84 217.726 281.696 217.046 291.783 214.776L291.579 213.87C271.59 218.368 256.546 216.564 246.867 208.508C235.149 198.755 235.622 182.988 235.628 182.83L234.7 182.793C234.692 182.955 234.196 199.163 246.265 209.215C251.249 213.367 257.602 215.905 265.264 216.821Z" fill="black"/>
<path id="Fill 41" fill-rule="evenodd" clip-rule="evenodd" d="M181.776 176.588C181.776 176.588 209.858 189.616 245.657 179.854L242.565 115.359C242.25 109.82 238.005 105.308 232.499 104.65L192.041 99.8156C189.373 99.4975 186.797 100.126 184.659 101.448C182.156 103 180.259 105.51 179.54 108.572L181.776 176.588Z" fill="#F6BB05"/>
<path id="Fill 44" fill-rule="evenodd" clip-rule="evenodd" d="M277.01 166.09C277.01 166.09 273.753 172.274 274.929 173.281C276.106 174.289 278.255 170.827 278.255 170.827C278.255 170.827 278.464 179.38 280.442 179.227C281.753 179.126 281.785 173.85 281.785 173.85C281.785 173.85 283.802 180.066 285.112 179.965C286.423 179.864 285.043 173.379 285.043 173.379C285.043 173.379 288.035 177.982 289.077 177.242C290.118 176.503 287.261 170.791 287.261 170.791C287.261 170.791 290.051 172.772 290.655 172.067C291.259 171.361 287.697 167.902 286.62 162.491C285.543 157.082 277.01 166.09 277.01 166.09Z" fill="#D8A7A8"/>
<path id="Fill 45" fill-rule="evenodd" clip-rule="evenodd" d="M228.546 133.517C228.546 133.517 269.419 133.123 275.317 167L287.755 163.352C287.755 163.352 291.687 113.758 230.811 104.182C173.263 95.1279 228.546 133.517 228.546 133.517Z" fill="#F6BB05"/>
<path id="Fill 47" fill-rule="evenodd" clip-rule="evenodd" d="M243.25 135.687L243.736 134.894L243.493 135.291L243.737 134.895C243.684 134.863 238.51 131.575 236.869 122.661L235.956 122.829C237.675 132.177 243.023 135.548 243.25 135.687Z" fill="black"/>
<path id="Fill 48" fill-rule="evenodd" clip-rule="evenodd" d="M144.044 65.92C144.044 65.92 147.447 59.8148 146.295 58.7803C145.143 57.7449 142.912 61.1546 142.912 61.1546C142.912 61.1546 142.906 52.5995 140.925 52.7047C139.612 52.7754 139.455 58.0485 139.455 58.0485C139.455 58.0485 137.585 51.7867 136.273 51.8565C134.959 51.9272 136.186 58.4421 136.186 58.4421C136.186 58.4421 133.304 53.7706 132.245 54.4855C131.186 55.1995 133.908 60.977 133.908 60.977C133.908 60.977 131.167 58.9296 130.545 59.6212C129.924 60.3128 133.404 63.8558 134.352 69.2895C135.3 74.7233 144.044 65.92 144.044 65.92Z" fill="#D8A7A8"/>
<path id="Fill 50" fill-rule="evenodd" clip-rule="evenodd" d="M133.238 68.4011C133.238 68.4011 128.133 117.889 188.764 128.905C234.06 137.131 210.675 114.292 198.871 104.351C198.477 104.017 198.094 103.7 197.731 103.397C195.195 101.304 193.424 99.9811 193.424 99.9811C193.424 99.9811 150.952 97.7145 145.76 65.0493L142.949 65.8019L142.047 66.0437L133.238 68.4011Z" fill="#F6BB05"/>
<path id="Fill 52" fill-rule="evenodd" clip-rule="evenodd" d="M179.648 126.957L180.573 126.875L179.89 119.171L178.964 119.253L179.648 126.957Z" fill="black"/>
<path id="Fill 53" fill-rule="evenodd" clip-rule="evenodd" d="M220.634 89.8492L218.507 103.627C217.881 107.684 214.081 110.467 210.025 109.841C205.968 109.214 203.185 105.415 203.811 101.358L205.939 87.5809C206.295 85.2661 207.682 83.3681 209.562 82.2781C210.98 81.4596 212.675 81.0974 214.421 81.3673C216.448 81.6797 218.157 82.7873 219.284 84.3215C220.407 85.858 220.948 87.8227 220.634 89.8492Z" fill="#D28C76"/>
<path id="Fill 54" fill-rule="evenodd" clip-rule="evenodd" d="M218.041 94.4646C218.041 94.4646 211.034 99.3827 204.252 98.5048L205.799 88.4839C211.01 89.3232 218.041 94.4646 218.041 94.4646Z" fill="#995D54"/>
<path id="Fill 55" fill-rule="evenodd" clip-rule="evenodd" d="M212.144 94.8084L205.571 93.7931C196.185 92.3441 188.761 86.6622 184.617 79.1714C180.401 71.5529 179.576 62.0629 183.53 53.2509L184.982 50.0155C186.046 47.6428 186.787 45.1368 187.184 42.5673C189.628 26.7335 204.445 15.8805 220.279 18.3247L223.779 18.8652C242.536 21.7608 255.394 39.3143 252.498 58.0709L251.249 66.1633C248.361 84.8718 230.853 97.6959 212.144 94.8084Z" fill="#D8A7A8"/>
<path id="Fill 59" fill-rule="evenodd" clip-rule="evenodd" d="M200.859 76.2968C202.337 76.8344 203.611 77.6709 205.185 77.9764C206.7 78.2703 208.298 78.2435 209.782 77.8161C211.29 77.3803 212.642 76.5856 213.826 75.5655C214.43 75.0446 214.961 74.4351 215.452 73.8074C215.961 73.1579 216.35 72.4283 216.861 71.7855C217.192 71.3681 217.764 71.7187 217.729 72.1812C217.599 73.956 216.298 75.684 215.061 76.8761C213.714 78.1768 212.046 79.1585 210.231 79.6494C208.48 80.1219 206.641 80.2053 204.858 79.8698C203.132 79.5442 201.065 78.8479 199.953 77.4037C199.47 76.7776 200.207 76.0597 200.859 76.2968Z" fill="#0A0B09"/>
<path id="Fill 56" fill-rule="evenodd" clip-rule="evenodd" d="M239.679 64.6564C239.679 64.6564 255.572 56.0547 262.038 64.6467C269.434 74.4733 257.86 89.201 245.061 81.1753C232.262 73.1496 239.679 64.6564 239.679 64.6564Z" fill="#D8A7A8"/>
<path id="Fill 60" fill-rule="evenodd" clip-rule="evenodd" d="M260.016 66.8673C258.632 66.0191 257.148 65.6969 255.55 66.0709C254.049 66.4215 252.661 67.268 251.671 68.4518C250.593 69.7407 249.967 71.382 249.833 73.0499C249.76 73.9598 249.823 74.8497 250.008 75.743C250.182 76.5778 250.394 77.5295 251.114 78.0621C251.636 78.4494 252.251 78.1155 252.284 77.4894C252.324 76.7748 251.982 76.132 251.84 75.4408C251.701 74.7613 251.658 74.05 251.701 73.3588C251.741 72.6659 251.893 71.9697 252.142 71.3135C252.349 71.2267 252.578 71.1866 252.828 71.1549C253.242 71.0998 253.74 71.053 254.109 71.0714C254.58 71.0964 255.193 71.2651 255.688 71.437C256.263 71.6374 256.802 71.8528 257.401 71.978C258.008 72.1049 258.512 71.2467 257.971 70.8443C257.682 70.6256 257.396 70.4036 257.066 70.2449C256.729 70.083 256.366 69.9628 256.014 69.8442C255.363 69.6289 254.663 69.522 253.977 69.5504C253.678 69.5621 253.353 69.6188 253.044 69.7173L253.059 69.6956C254.551 67.8808 257.498 66.859 259.776 67.5502C260.195 67.6771 260.343 67.0677 260.016 66.8673Z" fill="#0A0B09"/>
<path id="Fill 66" fill-rule="evenodd" clip-rule="evenodd" d="M254.27 60.7633C254.27 60.7633 249.218 71.7039 246.069 71.9512C242.92 72.1986 242.218 49.3391 244.391 38.9913C244.391 38.9913 241.687 43.348 239.226 43.054C236.764 42.76 242.004 38.0821 242.004 38.0821C242.004 38.0821 204.346 45.1263 210.109 30.8395C210.109 30.8395 178.678 38.0042 182.324 23.1511C185.97 8.29968 208.142 8.13984 208.142 8.13984C208.142 8.13984 201.076 1.99204 214.4 0.151872C227.724 -1.68749 267.73 13.388 255.892 34.1255C255.892 34.1255 275.716 40.5504 261.936 64.487C261.936 64.487 260.729 61.5352 254.27 60.7633Z" fill="#302B35"/>
<g id="Group 71">
<path id="Stroke 67" d="M254.957 104.361C255.084 104.845 255.084 104.845 255.084 104.845C255.084 104.845 255.084 104.845 255.083 104.845C255.083 104.845 255.082 104.845 255.08 104.846C255.076 104.847 255.071 104.848 255.063 104.851C255.047 104.855 255.023 104.862 254.99 104.871C254.925 104.89 254.826 104.919 254.698 104.959C254.442 105.041 254.066 105.167 253.595 105.348C252.652 105.708 251.331 106.283 249.827 107.137C246.817 108.844 243.085 111.66 240.177 116.097C234.383 124.934 231.743 140.39 245.077 166.774L244.185 167.225C230.757 140.655 233.28 124.792 239.34 115.548C242.358 110.945 246.226 108.03 249.334 106.267C250.888 105.385 252.256 104.789 253.237 104.414C253.728 104.226 254.123 104.093 254.397 104.006C254.533 103.963 254.64 103.931 254.714 103.91C254.75 103.899 254.779 103.891 254.798 103.886C254.808 103.883 254.816 103.881 254.821 103.88C254.824 103.879 254.826 103.879 254.828 103.878C254.829 103.878 254.829 103.878 254.83 103.878C254.831 103.877 254.831 103.877 254.957 104.361ZM204.634 96.0317C204.688 96.5288 204.688 96.5288 204.688 96.5287C204.688 96.5287 204.688 96.5287 204.688 96.5287C204.688 96.5288 204.687 96.5288 204.686 96.529C204.684 96.5292 204.68 96.5297 204.674 96.5304C204.663 96.5318 204.645 96.5341 204.621 96.5375C204.572 96.5443 204.498 96.5556 204.399 96.5727C204.202 96.6069 203.908 96.6646 203.534 96.7574C202.786 96.943 201.715 97.269 200.442 97.8283C197.897 98.9463 194.541 100.998 191.332 104.731C184.921 112.189 179.028 126.447 181.52 153.625L180.524 153.716C178.017 126.371 183.929 111.809 190.574 104.079C193.893 100.218 197.377 98.0827 200.04 96.9127C201.371 96.328 202.496 95.9846 203.293 95.7868C203.692 95.6879 204.009 95.6254 204.228 95.5874C204.338 95.5684 204.423 95.5555 204.482 95.5472C204.512 95.543 204.535 95.54 204.551 95.538C204.559 95.537 204.566 95.5362 204.57 95.5357C204.573 95.5354 204.575 95.5352 204.576 95.535C204.577 95.5349 204.578 95.5349 204.578 95.5348C204.579 95.5347 204.579 95.5347 204.634 96.0317Z" fill="#44211D"/>
</g>
</g>
</g>
</g>
</svg>
