<svg width="507" height="364" viewBox="0 0 507 364" fill="none" xmlns="http://www.w3.org/2000/svg">
<g id="Group">
<ellipse id="Oval" cx="234.928" cy="302.594" rx="149.891" ry="48.1723" transform="rotate(-5 234.928 302.594)" fill="#000937" fill-opacity="0.05"/>
<path id="Fill 36" fill-rule="evenodd" clip-rule="evenodd" d="M216.199 28.1275C215.699 29.9756 215.462 31.9427 215.928 33.8011C216.392 35.6581 217.649 37.3872 219.442 38.0586C221.365 38.7784 223.512 38.2055 225.444 37.5121C229.501 36.0577 233.438 34.0289 236.457 30.9526C239.56 27.7881 241.57 23.5704 242.068 19.1675C242.204 17.957 242.222 16.6818 241.709 15.577C241.128 14.3224 239.943 13.4556 238.733 12.7887C228.006 6.88879 218.875 18.2126 216.199 28.1275Z" fill="#0A0B09"/>
<path id="Fill 37" fill-rule="evenodd" clip-rule="evenodd" d="M210.034 260.297C208.474 242.852 206.917 225.408 205.356 207.962C204.535 198.769 203.77 189.334 203.77 180.023C203.768 164.108 206.006 148.573 213.954 135.166L212.69 134.417C204.548 148.16 202.301 163.979 202.301 180.023C202.301 189.415 203.071 198.891 203.893 208.093C205.453 225.539 207.011 242.983 208.571 260.428L210.034 260.297Z" fill="#0A0B09"/>
<path id="Fill 38" fill-rule="evenodd" clip-rule="evenodd" d="M151.125 143.375C147.966 149.924 145.222 156.932 145.378 164.201C145.535 171.472 149.197 179.067 155.842 182.015C163.8 185.545 173.011 181.607 180.354 176.934C201.011 163.782 217.457 144.123 226.752 121.466C228.026 118.361 229.181 115.148 229.411 111.798C229.883 104.98 226.381 98.3253 221.381 93.6668C216.626 89.2331 207.087 81.6364 200.381 83.4272C193.585 85.2415 185.612 96.6123 180.792 101.476C168.688 113.686 158.594 127.888 151.125 143.375Z" fill="#F6BB05"/>
<path id="Fill 39" fill-rule="evenodd" clip-rule="evenodd" d="M174.78 278.547C172.337 281.959 168.163 284.172 164.272 286.076C158.767 288.77 153.264 291.464 147.759 294.159C144.793 295.61 142.495 297.571 140.445 300.233C138.219 303.122 137.462 307.67 139.863 310.698C143.361 315.106 150.847 312.43 155.501 311.81C168.954 310.02 182.414 307.789 195.38 303.681C198.969 302.544 203.886 300.689 205.437 296.85C206.89 293.252 204.975 287.229 204.3 283.477C203.384 278.376 203.758 273.322 202.088 268.3C198.224 256.679 180.789 247.944 177.502 265.093C176.836 268.577 177.45 272.279 176.295 275.633C175.931 276.695 175.412 277.661 174.78 278.547Z" fill="#0A0B09"/>
<path id="Fill 40" fill-rule="evenodd" clip-rule="evenodd" d="M178.866 175.216C184.306 193.288 195.18 209.149 205.891 224.685C208.559 228.553 212.097 232.261 215.562 235.434C238.128 256.093 269.256 267.092 299.791 265.197C308.405 264.662 317.851 262.62 322.925 255.64C332.435 242.558 332.019 223.914 331.464 208.578C330.102 171.015 328.646 132.805 305.838 101.024C283.355 69.6941 248.109 73.12 213.823 78.538C200.691 80.6139 193.737 85.6617 187.1 97.0163C173.698 119.942 171.266 149.967 178.866 175.216Z" fill="#F6BB05"/>
<path id="Fill 41" fill-rule="evenodd" clip-rule="evenodd" d="M196.035 123.744C196.095 123.372 196.148 123 196.207 122.627C196.701 117.767 197.219 112.905 198.424 108.162C199.361 104.466 199.358 100.228 200.96 96.699C200.603 96.5168 200.085 96.6138 199.886 97.1059C198.158 101.349 197.053 105.784 196.242 110.287C195.449 114.694 194.961 119.151 195.192 123.63C195.217 124.084 195.954 124.246 196.035 123.744Z" fill="#0A0B09"/>
<path id="Fill 42" fill-rule="evenodd" clip-rule="evenodd" d="M220.34 288.67C217.898 292.084 213.726 294.295 209.833 296.201C204.33 298.895 198.825 301.589 193.322 304.282C190.354 305.735 188.056 307.696 186.004 310.36C184.063 312.879 183.372 317.802 185.021 320.626C187.511 324.886 194.554 322.779 198.421 322.28C212.758 320.429 227.126 318.183 240.942 313.806C244.528 312.669 249.449 310.814 251 306.973C252.453 303.377 250.537 297.354 249.861 293.6C248.945 288.501 249.319 283.447 247.649 278.425C243.784 266.804 226.348 258.069 223.064 275.218C222.397 278.701 223.011 282.404 221.857 285.757C221.492 286.82 220.974 287.786 220.34 288.67Z" fill="#302B35"/>
<path id="Fill 43" fill-rule="evenodd" clip-rule="evenodd" d="M319.767 272.356C309.914 284.671 292.762 291.871 277.774 286.963C268.895 284.057 261.654 277.354 256.387 269.636C251.12 261.919 247.611 253.166 244.144 244.491C233.979 219.063 223.733 193.348 219.713 166.259C218.599 158.759 217.976 151.058 219.523 143.638C221.071 136.215 225.032 129.034 231.437 124.979C240.396 119.31 252.572 120.873 261.533 126.538C270.492 132.204 276.733 141.287 281.716 150.644C293.778 173.299 299.797 198.61 305.251 223.689C306.107 227.628 329.031 223.83 331.528 227.726C332.523 229.279 332.464 231.261 332.319 233.099C331.279 246.331 328.245 261.759 319.767 272.356Z" fill="#1396E5"/>
<path id="Fill 44" fill-rule="evenodd" clip-rule="evenodd" d="M207.872 277.99C213.604 253.673 213.943 232.993 216.401 208.133C217.594 196.061 216.77 183.105 218.702 171.222C220.635 159.335 226.852 146.938 230.798 135.53C231.088 134.69 231.38 133.776 231.111 132.928C230.881 132.204 230.283 131.668 229.702 131.177C222.15 124.787 213.313 119.693 203.645 117.6C191.651 115.002 181.479 115.891 172.666 125.859C155.4 145.386 162.562 177.952 164.397 201.472C166.214 224.748 168.246 248.007 170.382 271.255C170.399 271.461 170.774 275.353 170.758 275.356L207.872 277.99Z" fill="#1396E5"/>
<path id="Fill 45" fill-rule="evenodd" clip-rule="evenodd" d="M251.301 291.577C257.033 267.262 263.878 243.788 266.331 218.926C267.62 205.87 268.453 192.77 268.826 179.657C269.145 168.453 271.511 157.286 271.504 146.149C271.497 136.437 265.293 127.234 256.706 122.696C248.12 118.157 237.549 118.057 228.46 121.475C208.083 129.142 211.531 144.769 209.736 164.486C206.115 204.281 209.41 245.458 217.462 284.651L251.301 291.577Z" fill="#1396E5"/>
<path id="Fill 46" fill-rule="evenodd" clip-rule="evenodd" d="M264.502 216.051C263.859 220.243 263.492 224.49 262.964 228.696C262.379 233.364 261.751 238.029 261.078 242.687C259.734 251.994 258.109 261.266 256.978 270.6C256.922 271.067 257.581 271.106 257.684 270.675C259.898 261.521 261.306 252.172 262.622 242.85C263.267 238.286 263.869 233.716 264.43 229.141C264.977 224.673 265.629 220.173 265.867 215.675C265.41 215.791 264.956 215.918 264.502 216.051Z" fill="#0A0B09"/>
<path id="Fill 47" fill-rule="evenodd" clip-rule="evenodd" d="M241.017 205.087C239.839 207.707 240.772 210.743 241.712 213.457C242.73 216.386 243.746 219.316 244.762 222.245C245.228 223.589 245.735 224.994 246.794 225.941C247.928 226.953 249.515 227.278 251.031 227.366C254.953 227.598 258.821 226.527 262.604 225.467C264.739 224.869 266.922 224.247 268.72 222.95C270.518 221.654 271.88 219.523 271.641 217.319C271.445 215.514 270.244 213.99 268.998 212.672C264.035 207.433 256.609 203.59 249.679 205.604C245.099 205.409 242.896 200.905 241.017 205.087Z" fill="#D8A7A8"/>
<path id="Fill 48" fill-rule="evenodd" clip-rule="evenodd" d="M228.818 78.206C228.828 78.8847 227.989 81.9933 226.951 84.7141C226.628 85.5662 230.845 88.9407 231.608 89.4975C233.737 91.0503 236.194 92.2388 238.668 93.1291C244.603 95.2637 251.508 95.4356 257.705 93.7123C260.712 92.8764 262.888 90.2732 263.364 87.1895C264.148 82.102 265.044 74.2468 265.233 69.9556C265.262 69.2915 265.291 68.6055 265.584 68.0105C265.845 67.4757 266.295 67.0629 266.724 66.6501C273.126 60.4902 275.754 52.9243 275.791 44.1597C275.804 40.7514 274.696 35.3525 273.395 32.2028C268.896 21.3285 261.303 12.8783 249.268 10.1076C247.618 9.72707 245.92 9.49496 244.219 9.42885C240.211 9.27606 236.186 10.0532 232.723 12.038C225.969 15.9105 222.417 23.5557 219.848 30.9041C217.666 37.1389 215.874 43.6118 215.836 50.2168C215.797 56.8233 217.666 63.6311 222.059 68.5629C224.756 71.5892 228.755 73.8208 228.818 78.206Z" fill="#D8A7A8"/>
<path id="Fill 49" fill-rule="evenodd" clip-rule="evenodd" d="M218.825 128.665C218.968 128.474 218.65 128.229 218.498 128.411C207.335 141.602 203.721 159.31 204.272 176.227C204.446 181.544 205.01 186.824 205.931 192.061C206.041 192.691 206.965 192.412 206.879 191.798C205.255 180.177 204.597 168.383 206.779 156.785C208.674 146.714 212.703 136.914 218.825 128.665Z" fill="#0A0B09"/>
<path id="Fill 50" fill-rule="evenodd" clip-rule="evenodd" d="M210.03 231.85C209.107 224.058 208.162 216.267 207.296 208.469C207.243 207.996 206.497 207.99 206.548 208.469C207.394 216.354 208.162 224.247 208.954 232.139C209.727 239.843 210.202 247.726 211.663 255.332C211.746 255.759 212.429 255.658 212.416 255.231C212.201 247.44 210.945 239.588 210.03 231.85Z" fill="#0A0B09"/>
<path id="Fill 51" fill-rule="evenodd" clip-rule="evenodd" d="M175.173 217.904C187.622 221.455 201.837 224.34 214.806 222.931C217.496 222.64 220.234 222.104 222.53 220.67C226.044 218.477 228.013 214.535 229.702 210.752C231.417 206.91 233.056 202.831 232.704 198.638C232.275 193.501 228.621 187.87 224.734 184.573C220.381 180.884 212.305 180.971 206.629 179.97C192.787 177.527 178.942 175.083 165.097 172.639C159.922 171.726 147.526 169.121 144.039 174.887C141.46 179.153 145.514 189.719 147.199 193.812C152.691 207.135 162.615 214.321 175.173 217.904Z" fill="#F6BB05"/>
<path id="Fill 52" fill-rule="evenodd" clip-rule="evenodd" d="M152.159 162.539C155.416 163.171 157.067 167.076 159.245 170.066C160.377 171.624 161.354 174.106 162.706 175.409C164.235 176.882 166.772 177.398 168.638 178.382C170.504 179.365 172.277 180.808 172.925 182.814C173.493 184.567 173.119 186.487 172.522 188.229C171.985 189.793 171.158 191.413 169.655 192.099C168.673 192.547 167.548 192.522 166.468 192.488C158.165 192.231 149.23 191.735 142.723 186.571C137.274 182.246 138.688 173.941 142.037 168.782C143.793 166.078 146.358 163.596 149.532 162.702C150.518 162.425 151.385 162.39 152.159 162.539Z" fill="#D8A7A8"/>
<path id="Fill 53" fill-rule="evenodd" clip-rule="evenodd" d="M286.216 43.9864C286.887 39.1442 286.592 34.1185 285.121 29.4438C284.436 27.2666 283.462 24.3343 281.676 22.7168C281.819 22.6757 281.962 22.6375 282.102 22.5861C282.24 22.5361 282.383 22.4759 282.524 22.4157C282.757 22.3569 282.981 22.2687 283.172 22.1204L283.255 22.0263L283.311 21.9926C283.809 21.6121 284.216 21.1023 284.304 20.4603C284.409 19.6919 284.141 18.9457 283.487 18.4976C282.665 17.9349 281.532 17.9922 280.579 18.0745C280.363 18.0936 280.147 18.1185 279.932 18.1509L279.92 18.1523L280.044 17.8277C280.587 16.9565 283.248 16.6142 282.553 14.913C282.378 13.748 281.081 13.1457 279.938 12.8621C278.415 12.486 276.725 12.3333 275.341 13.0722C276.423 11.9924 278.57 9.95038 278.341 8.30206C277.53 2.48297 270.642 8.96315 269.287 11.0184C259.991 6.22475 249.957 2.86053 239.648 1.08586C236.635 0.567269 233.544 0.183835 230.534 0.715648C223.964 1.87623 215.107 10.1693 224.765 14.7367C228.435 17.3017 232.965 18.6621 237.374 19.0632C237.934 19.1131 238.493 19.1396 239.053 19.1631C236.876 20.7321 234.401 22.3995 235.219 25.4479C235.718 27.3063 237.588 28.4287 239.373 29.1529C243.462 30.8101 247.946 31.3859 252.324 30.8629C248.51 31.7826 246.306 35.6904 247.689 39.5203C248.861 42.767 251.85 44.981 254.843 46.6998C257.418 48.1806 262.055 48.6787 263.49 51.6227C265.585 55.9242 262.061 60.831 261.69 65.1663C261.508 67.2994 261.992 69.6427 263.146 71.3938C263.912 72.5515 264.969 73.4505 266.324 73.859C270.624 75.1547 274.488 70.9722 276.862 67.1599C281.298 60.0362 285.062 52.2985 286.216 43.9864Z" fill="#302B35"/>
<path id="Fill 54" fill-rule="evenodd" clip-rule="evenodd" d="M308.224 231.581C308.327 231.806 308.444 232.007 308.578 232.172C309.727 233.589 314.55 234.624 316.307 235.268C317.848 235.834 331.525 240.479 332.292 238.639C333.321 236.166 333.836 233.481 333.8 230.804C344.859 223.519 336.601 214.425 333.162 205.806C330.241 198.481 331.167 189.227 330.754 181.458C330.521 177.067 330.252 172.537 328.299 168.595C330.181 172.394 320.05 180.114 318.163 182.538C314.709 186.975 311.656 191.962 309.411 197.12C305.268 206.645 302.639 217.229 306.003 227.066C306.499 228.516 307.598 230.224 308.224 231.581Z" fill="#F6BB05"/>
<path id="Fill 55" fill-rule="evenodd" clip-rule="evenodd" d="M307.688 113.726C307.344 112.709 306.964 111.685 306.546 110.651C303.602 103.36 299.398 96.0687 292.505 92.2858C280.078 85.4648 268.617 93.5419 261.107 103.216C253.086 113.549 254.089 128.345 250.894 140.8C247.387 154.477 241.226 168.767 225.21 168.995C211.527 169.19 197.83 168.388 184.281 166.474C174.323 165.068 161.52 157.406 153.59 167.105C149.734 171.821 148.887 178.497 150.257 184.432C155.989 209.249 181.913 212.708 203.37 215.894C217.152 217.942 231.257 218.85 245.134 217.249C256.826 215.898 273.678 212.628 282.295 203.984C291.751 194.498 297.141 181.736 301.255 168.989C307.465 149.742 314.291 133.294 307.688 113.726Z" fill="#F6BB05"/>
<path id="Fill 56" fill-rule="evenodd" clip-rule="evenodd" d="M201.043 305.944C200.792 305.172 200.5 303.48 200.503 301.885C200.5 300.799 200.641 299.743 200.942 299.057C201.09 298.713 201.27 298.47 201.455 298.323C201.641 298.18 201.832 298.103 202.142 298.099L202.276 298.105C202.595 298.131 202.928 298.268 203.275 298.512C203.619 298.754 203.964 299.096 204.283 299.471C204.932 300.229 205.552 301.196 206.491 301.939C207.106 302.416 207.863 302.753 208.684 302.757C209.169 302.759 209.677 302.626 210.121 302.325C210.686 301.94 211.043 301.375 211.258 300.781C211.474 300.185 211.559 299.546 211.559 298.923C211.559 298.682 211.546 298.444 211.522 298.21C211.364 296.818 210.945 295.606 210.921 294.467L210.92 294.364C210.919 293.838 211.038 293.27 211.243 292.851C211.452 292.424 211.713 292.186 211.969 292.112L212.197 292.078C212.476 292.071 212.858 292.266 213.265 292.707C213.666 293.138 214.049 293.758 214.35 294.353C214.7 295.037 215.125 295.794 215.674 296.424C215.95 296.737 216.262 297.023 216.627 297.239C216.992 297.457 217.424 297.602 217.889 297.601C218.025 297.601 218.163 297.589 218.299 297.564L218.042 296.118L217.889 296.132C217.725 296.13 217.565 296.086 217.375 295.974C216.798 295.657 216.134 294.646 215.659 293.687C215.318 293.017 214.888 292.3 214.342 291.708C213.799 291.126 213.099 290.617 212.197 290.609C211.984 290.609 211.765 290.64 211.55 290.705C210.764 290.943 210.24 291.552 209.921 292.211C209.599 292.876 209.452 293.631 209.451 294.364L209.454 294.507C209.499 295.949 209.943 297.198 210.061 298.368C210.08 298.548 210.09 298.735 210.09 298.923C210.091 299.408 210.019 299.892 209.877 300.28C209.736 300.671 209.535 300.949 209.295 301.109C209.11 301.232 208.918 301.287 208.684 301.288C208.296 301.293 207.8 301.1 207.396 300.781C206.714 300.255 206.122 299.38 205.402 298.52C205.032 298.087 204.612 297.658 204.12 297.31C203.629 296.965 203.053 296.696 202.398 296.64L202.142 296.63C201.534 296.625 200.97 296.828 200.541 297.173C199.893 297.695 199.542 298.45 199.326 299.261C199.111 300.079 199.035 300.983 199.034 301.885C199.038 303.659 199.33 305.4 199.645 306.393L201.043 305.944Z" fill="#F6BB05"/>
<path id="Fill 57" fill-rule="evenodd" clip-rule="evenodd" d="M154.116 294.257C154.095 292.676 154.072 291.094 154.05 289.515L154.048 289.319C154.047 288.754 154.091 288.176 154.228 287.733C154.367 287.28 154.56 287.004 154.859 286.838C155.034 286.743 155.196 286.706 155.381 286.704C155.707 286.701 156.13 286.848 156.569 287.125C157.009 287.396 157.452 287.78 157.836 288.162C158.836 289.152 159.835 290.145 160.836 291.137L160.837 291.138C161.012 291.31 161.218 291.513 161.484 291.695C161.747 291.874 162.089 292.039 162.5 292.064L162.606 292.067C163.007 292.07 163.387 291.923 163.667 291.704C164.091 291.373 164.329 290.934 164.498 290.496C164.664 290.054 164.754 289.597 164.796 289.181C164.937 287.809 165.08 286.437 165.221 285.065C165.303 284.229 165.407 283.474 165.726 282.929C165.977 282.473 166.5 282.136 166.857 282.153L167.013 282.169H167.015C167.288 282.218 167.632 282.491 167.992 282.883C169.086 284.054 169.998 285.395 170.686 286.844L172.013 286.214C171.26 284.629 170.263 283.162 169.064 281.88C168.66 281.457 168.14 280.918 167.32 280.733H167.322C167.166 280.7 167.01 280.684 166.857 280.684C165.785 280.703 164.934 281.377 164.454 282.196C163.935 283.107 163.85 284.078 163.759 284.914C163.618 286.286 163.476 287.658 163.335 289.031C163.295 289.447 163.174 289.932 163.008 290.235C162.926 290.387 162.838 290.489 162.775 290.537L162.606 290.598L162.584 290.596L162.311 290.48C162.183 290.395 162.032 290.254 161.868 290.092L161.87 290.094C160.871 289.102 159.87 288.11 158.87 287.119C158.437 286.688 157.924 286.237 157.345 285.877C156.766 285.52 156.113 285.238 155.381 285.235C154.973 285.234 154.544 285.334 154.151 285.551C153.421 285.951 153.019 286.638 152.82 287.308C152.618 287.985 152.581 288.688 152.579 289.319L152.581 289.534C152.603 291.116 152.626 292.697 152.647 294.276L154.116 294.257Z" fill="#F6BB05"/>
<path id="Fill 58" fill-rule="evenodd" clip-rule="evenodd" d="M269.605 52.87C268.722 57.195 264.577 60.0024 260.348 59.1386C256.12 58.2748 253.406 54.0688 254.289 49.7438C255.172 45.4187 259.316 42.6113 263.546 43.4751C267.775 44.3375 270.487 48.545 269.605 52.87Z" fill="#D8A7A8"/>
<path id="Fill 59" fill-rule="evenodd" clip-rule="evenodd" d="M234.054 55.6921C232.754 56.1652 231.633 56.9012 230.247 57.17C228.915 57.4286 227.509 57.4051 226.203 57.029C224.876 56.6456 223.686 55.9463 222.645 55.0487C222.113 54.5903 221.646 54.0541 221.214 53.5017C220.766 52.9302 220.424 52.2882 219.974 51.7226C219.683 51.3554 219.179 51.6639 219.21 52.0708C219.325 53.6325 220.469 55.153 221.558 56.2019C222.743 57.3463 224.211 58.2102 225.808 58.6421C227.349 59.0578 228.966 59.1313 230.535 58.836C232.054 58.5495 233.873 57.9369 234.852 56.6661C235.276 56.1152 234.628 55.4835 234.054 55.6921Z" fill="#0A0B09"/>
<path id="Fill 60" fill-rule="evenodd" clip-rule="evenodd" d="M265.725 46.4324C264.507 45.6861 263.201 45.4026 261.795 45.7317C260.474 46.0402 259.253 46.785 258.382 47.8266C257.433 48.9607 256.882 50.4049 256.765 51.8725C256.7 52.6731 256.756 53.4562 256.919 54.2421C257.072 54.9767 257.258 55.8141 257.891 56.2827C258.351 56.6235 258.892 56.3297 258.921 55.7788C258.956 55.15 258.655 54.5844 258.53 53.9762C258.408 53.3783 258.37 52.7525 258.408 52.1443C258.444 51.5346 258.577 50.922 258.796 50.3446C258.978 50.2682 259.18 50.233 259.4 50.2051C259.764 50.1566 260.202 50.1154 260.527 50.1316C260.941 50.1536 261.48 50.302 261.917 50.4533C262.422 50.6296 262.897 50.8191 263.424 50.9293C263.957 51.041 264.401 50.2859 263.925 49.9318C263.671 49.7393 263.42 49.544 263.129 49.4044C262.832 49.2619 262.513 49.1561 262.203 49.0518C261.63 48.8623 261.015 48.7683 260.411 48.7933C260.148 48.8035 259.861 48.8535 259.59 48.9402L259.603 48.9211C260.916 47.3242 263.509 46.4251 265.513 47.0333C265.882 47.1449 266.013 46.6087 265.725 46.4324Z" fill="#0A0B09"/>
<path id="Fill 64" fill-rule="evenodd" clip-rule="evenodd" d="M279.65 198.788C279.117 199.797 278.219 200.781 277.288 201.376C276.287 202.017 275.155 202.43 273.912 202.422C273.314 202.419 273.144 203.392 273.768 203.498C275.269 203.753 276.766 203.514 278.093 202.753C278.729 202.389 279.321 201.924 279.803 201.372C280.323 200.777 280.665 200.067 280.899 199.315C281.127 198.582 280.014 198.099 279.65 198.788Z" fill="#0A0B09"/>
<path id="Fill 65" fill-rule="evenodd" clip-rule="evenodd" d="M330.634 203.2C328.883 203.723 327.133 204.246 325.382 204.767C324.787 204.945 325.045 205.888 325.639 205.698C327.383 205.148 329.123 204.595 330.866 204.043C331.401 203.874 331.177 203.036 330.634 203.2Z" fill="#0A0B09"/>
<path id="Fill 66" fill-rule="evenodd" clip-rule="evenodd" d="M330.419 210.35C330.341 210.068 330.078 209.968 329.814 210.006C328.113 210.259 326.414 210.53 324.706 210.745C324.383 210.786 324.121 211.006 324.17 211.365C324.215 211.709 324.528 211.879 324.853 211.819C326.588 211.5 328.333 211.237 330.077 210.955C330.338 210.914 330.485 210.586 330.419 210.35Z" fill="#0A0B09"/>
<path id="Fill 67" fill-rule="evenodd" clip-rule="evenodd" d="M334.14 231.218C332.756 230.805 331.209 230.873 329.776 230.755C328.305 230.635 326.845 230.466 325.39 230.203C322.483 229.679 319.621 228.863 316.784 228.045C316.025 227.826 315.505 228.976 316.236 229.345C319.016 230.75 321.959 231.609 325.025 232.135C326.491 232.388 327.97 232.574 329.454 232.684C330.954 232.797 332.702 232.931 334.14 232.433C334.718 232.232 334.757 231.403 334.14 231.218Z" fill="#0A0B09"/>
<path id="Fill 68" fill-rule="evenodd" clip-rule="evenodd" d="M308.048 127.253C307.967 126.388 306.693 126.381 306.699 127.253C306.765 138.984 305.333 147.208 303.372 157.099C301.437 166.853 298.768 176.393 295.396 185.748C295.215 186.249 296.038 186.602 296.263 186.114C300.485 176.985 303.648 167.302 305.587 157.43C307.512 147.628 308.973 137.25 308.048 127.253Z" fill="#0A0B09"/>
<path id="Fill 69" fill-rule="evenodd" clip-rule="evenodd" d="M224.663 217.94C215.617 217.398 206.727 215.857 197.748 214.613C189.122 213.419 180.486 211.698 172.409 208.358C168.51 206.744 164.602 204.729 161.353 202.007C157.889 199.105 155.59 195.083 152.669 191.68C152.024 190.93 153.583 194.87 154.189 195.676C160.247 203.717 168.588 208.444 177.964 211.593C189.088 215.325 200.967 216.582 212.589 217.735C216.641 218.137 222.432 219.608 226.306 218.027C225.758 218.002 225.21 217.973 224.663 217.94Z" fill="#0A0B09"/>
<path id="Fill 70" fill-rule="evenodd" clip-rule="evenodd" d="M255.263 108.156C255.247 107.766 254.614 107.632 254.542 108.06C254.169 110.31 254.083 112.606 253.913 114.881C253.741 117.186 253.406 119.567 253.681 121.872C253.724 122.242 254.273 122.388 254.379 121.967C254.93 119.759 254.908 117.412 255.022 115.149C255.14 112.825 255.354 110.484 255.263 108.156Z" fill="#0A0B09"/>
<path id="Fill 93" fill-rule="evenodd" clip-rule="evenodd" d="M59.0699 71.0677L50.9561 66.6178L42.6924 70.7797L44.4157 61.689L37.9061 55.1148L47.0836 53.9454L51.3248 45.7214L55.2723 54.0908L64.4042 55.5805L57.6655 61.9226L59.0699 71.0677Z" fill="#22B840"/>
<path id="Fill 94" fill-rule="evenodd" clip-rule="evenodd" d="M355.848 13.5364L359.672 21.2874L368.225 22.5288L362.036 28.5623L363.497 37.0802L355.848 33.0578L348.198 37.0802L349.658 28.5623L343.469 22.5288L352.022 21.2874L355.848 13.5364Z" fill="#F6BB05"/>
<path id="Fill 95" fill-rule="evenodd" clip-rule="evenodd" d="M494.623 177.417L498.447 185.166L507 186.409L500.812 192.441L502.272 200.961L494.623 196.938L486.973 200.961L488.434 192.441L482.246 186.409L490.797 185.166L494.623 177.417Z" fill="#F6BB05"/>
<path id="Fill 96" fill-rule="evenodd" clip-rule="evenodd" d="M379.818 89.5533L385.791 101.656L399.145 103.596L389.481 113.016L391.763 126.319L379.818 120.038L367.871 126.319L370.154 113.016L360.489 103.596L373.846 101.656L379.818 89.5533Z" fill="#FF3234"/>
<path id="Fill 97" d="M416.013 57.9516L419.104 64.2188L426.021 65.2236L421.017 70.1025L422.198 76.9896L416.013 73.737L409.827 76.9896L411.009 70.1025L406.003 65.2236L412.919 64.2188L416.013 57.9516" stroke="#302B35"/>
<path id="Fill 98" d="M386.666 181.168L389.531 186.975L395.942 187.906L391.304 192.427L392.399 198.81L386.666 195.797L380.934 198.81L382.028 192.427L377.391 187.906L383.8 186.975L386.666 181.168" stroke="#0A0B09"/>
<path id="Fill 100" fill-rule="evenodd" clip-rule="evenodd" d="M84.3031 186.331L88.468 194.77L97.7791 196.123L91.0418 202.691L92.6314 211.966L84.3031 207.586L75.9733 211.966L77.5644 202.691L70.8271 196.123L80.1382 194.77L84.3031 186.331Z" fill="#22B840"/>
<path id="Fill 101" d="M90.2691 116.57L95.0892 126.338L105.869 127.904L98.0686 135.508L99.9093 146.243L90.2691 141.174L80.6275 146.243L82.4682 135.508L74.6688 127.904L85.449 126.338L90.2691 116.57" stroke="#302B35"/>
<path id="Fill 103" d="M10.2857 162.395L12.8463 167.584L18.5714 168.416L14.4285 172.454L15.407 178.156L10.2857 175.465L5.16443 178.156L6.14285 172.454L2 168.416L7.72506 167.584L10.2857 162.395" stroke="#0A0B09"/>
<path id="Fill 104" fill-rule="evenodd" clip-rule="evenodd" d="M128.698 8.01852L135.15 21.0935L149.579 23.1899L139.139 33.3678L141.604 47.7384L128.698 40.9527L115.792 47.7384L118.257 33.3678L107.816 23.1899L122.245 21.0935L128.698 8.01852Z" fill="#F6BB05"/>
</g>
</svg>
