<svg width="238" height="141" viewBox="0 0 238 141" fill="none" xmlns="http://www.w3.org/2000/svg">
<g id="Group">
<path id="Fill 10" fill-rule="evenodd" clip-rule="evenodd" d="M237.586 133.848C237.586 136.727 207.603 139.06 170.617 139.06C133.632 139.06 103.648 136.727 103.648 133.848C103.648 130.971 133.632 128.637 170.617 128.637C207.603 128.637 237.586 130.971 237.586 133.848Z" fill="#000937" fill-opacity="0.05"/>
<path id="Fill 13" fill-rule="evenodd" clip-rule="evenodd" d="M116.962 133.699C116.962 136.659 91.0024 139.06 58.9798 139.06C26.9573 139.06 0.998047 136.659 0.998047 133.699C0.998047 130.738 26.9573 128.339 58.9798 128.339C91.0024 128.339 116.962 130.738 116.962 133.699Z" fill="#000937" fill-opacity="0.05"/>
<path id="Fill 14" fill-rule="evenodd" clip-rule="evenodd" d="M13.0261 133.02C12.9076 133.02 12.7865 132.992 12.6738 132.935C12.288 132.74 12.133 132.27 12.3277 131.884L34.8126 87.3509C34.9457 87.0868 35.2161 86.9208 35.5116 86.9208C35.8075 86.9208 36.0779 87.0873 36.211 87.3514L58.6479 131.884C58.8426 132.27 58.687 132.741 58.3008 132.936C57.9155 133.129 57.4442 132.975 57.2495 132.588L35.511 89.4425L13.7256 132.589C13.5878 132.863 13.3122 133.02 13.0261 133.02Z" fill="#B75542"/>
<path id="Fill 15" fill-rule="evenodd" clip-rule="evenodd" d="M176.897 131.803C176.778 131.803 176.658 131.776 176.545 131.718C176.158 131.524 176.004 131.053 176.199 130.667L198.684 86.1346C198.817 85.8705 199.087 85.7045 199.383 85.7045C199.679 85.7045 199.949 85.871 200.082 86.1351L222.519 130.667C222.713 131.053 222.558 131.524 222.172 131.719C221.786 131.912 221.315 131.758 221.12 131.372L199.382 88.2262L177.596 131.372C177.459 131.646 177.183 131.803 176.897 131.803Z" fill="#B75542"/>
<path id="Fill 16" fill-rule="evenodd" clip-rule="evenodd" d="M163.364 106.379C163.364 106.379 156.399 108.728 146.755 102.038C137.113 95.3491 147.735 86.1362 151.077 84.3275C154.419 82.5193 157.267 82.3445 157.267 82.3445C157.267 82.3445 153.702 84.0482 156.34 85.9347C158.978 87.8211 162.657 85.8752 161.805 84.4705C160.954 83.0653 160.954 83.0653 160.954 83.0653C160.954 83.0653 165.754 84.0957 169.778 85.7097C173.801 87.3231 173.801 87.3231 173.801 87.3231C173.801 87.3231 168.187 86.9567 169.135 88.1557C170.083 89.3542 176.791 88.9956 176.791 88.9956C176.791 88.9956 181.048 91.1853 182.353 92.6954C183.658 94.205 183.658 94.205 183.658 94.205C183.658 94.205 181.197 96.782 179.115 97.4632C177.032 98.1444 177.032 98.1444 177.032 98.1444C177.032 98.1444 175.343 95.844 172.631 97.34C169.917 98.8355 173.74 100.878 173.74 100.878L169.398 103.165C169.398 103.165 165.966 99.7515 163.678 101.95C161.39 104.149 163.364 106.379 163.364 106.379Z" fill="#719968"/>
<path id="Fill 17" fill-rule="evenodd" clip-rule="evenodd" d="M135.969 109.404C135.96 109.404 135.95 109.404 135.941 109.403C135.8 109.387 135.699 109.262 135.713 109.121C135.724 109.019 136.909 98.9149 147.553 94.3261C158.418 89.6434 174.718 93.0655 174.881 93.0995C175.02 93.1297 175.108 93.2654 175.078 93.4043C175.048 93.5421 174.914 93.6287 174.773 93.6011C174.611 93.5661 158.47 90.1779 147.755 94.7969C137.395 99.263 136.234 109.076 136.223 109.175C136.209 109.306 136.097 109.404 135.969 109.404Z" fill="#507849"/>
<path id="Fill 18" fill-rule="evenodd" clip-rule="evenodd" d="M103.8 88.5848C103.8 88.5848 109.111 93.6668 120.682 91.7C132.252 89.7337 126.541 76.8846 124.283 73.8289C122.023 70.7737 119.518 69.4061 119.518 69.4061C119.518 69.4061 122.023 72.4623 118.834 73.0511C115.646 73.6404 113.14 70.318 114.507 69.4061C115.873 68.4953 115.873 68.4953 115.873 68.4953C115.873 68.4953 111.09 67.3923 106.761 67.1465C102.434 66.9011 102.434 66.9011 102.434 66.9011C102.434 66.9011 107.673 68.9509 106.306 69.6342C104.939 70.318 99.0163 67.1465 99.0163 67.1465C99.0163 67.1465 94.2329 67.3239 92.4106 68.1377C90.5884 68.9509 90.5884 68.9509 90.5884 68.9509C90.5884 68.9509 91.7232 72.3287 93.3199 73.8289C94.9161 75.329 94.9161 75.329 94.9161 75.329C94.9161 75.329 97.4222 73.9625 99.2444 76.4685C101.067 78.974 96.7389 79.2016 96.7389 79.2016L99.7001 83.1149C99.7001 83.1149 104.256 81.4796 105.395 84.4408C106.534 87.4025 103.8 88.5848 103.8 88.5848Z" fill="#719968"/>
<path id="Fill 19" fill-rule="evenodd" clip-rule="evenodd" d="M153.782 82.5533C153.782 82.5533 153.285 91.9552 143.418 91.6107C133.101 91.2511 132.438 79.8562 133.343 76.7906C134.249 73.7255 135.835 71.9236 135.835 71.9236C135.835 71.9236 134.059 76.0024 136.749 75.5498C139.439 75.0968 141.139 70.8061 139.796 70.4798C138.453 70.1531 138.453 70.1531 138.453 70.1531C138.453 70.1531 141.917 67.9038 145.266 66.4627C148.616 65.022 148.616 65.022 148.616 65.022C148.616 65.022 145.066 68.1513 146.342 68.2974C147.62 68.4441 151.387 64.2317 151.387 64.2317C151.387 64.2317 155.219 62.9941 156.894 63.1121C158.568 63.23 158.568 63.23 158.568 63.23C158.568 63.23 158.644 66.2267 157.815 67.872C156.985 69.5178 156.985 69.5178 156.985 69.5178C156.985 69.5178 154.611 69.1592 153.892 71.6647C153.174 74.1697 156.66 73.1028 156.66 73.1028L155.447 77.049C155.447 77.049 151.375 77.0688 151.328 79.7372C151.28 82.4061 153.782 82.5533 153.782 82.5533Z" fill="#719968"/>
<path id="Fill 20" fill-rule="evenodd" clip-rule="evenodd" d="M135.969 114.217C135.957 114.217 135.946 114.216 135.934 114.214C135.794 114.195 135.696 114.067 135.714 113.926C135.727 113.825 137.003 103.693 131.598 94.6137C124.198 82.1791 105.498 75.4711 105.31 75.4048C105.176 75.3578 105.106 75.2117 105.153 75.078C105.2 74.9444 105.347 74.8724 105.48 74.9215C105.67 74.9883 124.542 81.7563 132.039 94.3517C137.537 103.588 136.236 113.892 136.222 113.994C136.205 114.123 136.095 114.217 135.969 114.217Z" fill="#507849"/>
<path id="Fill 21" fill-rule="evenodd" clip-rule="evenodd" d="M135.012 102.493C134.877 102.493 134.764 102.388 134.756 102.252C133.682 84.6767 147.476 72.9707 147.615 72.8543C147.723 72.7635 147.885 72.7781 147.976 72.8867C148.066 72.9952 148.052 73.1571 147.943 73.2479C147.805 73.3627 134.21 84.91 135.268 102.221C135.276 102.362 135.169 102.484 135.028 102.492C135.022 102.492 135.017 102.493 135.012 102.493Z" fill="#507849"/>
<path id="Fill 22" fill-rule="evenodd" clip-rule="evenodd" d="M147.083 133.803H131.675C130.839 133.803 130.14 133.207 130.058 132.427L127.701 109.981C127.607 109.084 128.357 108.306 129.317 108.306H149.44C150.4 108.306 151.15 109.084 151.057 109.981L148.699 132.427C148.618 133.207 147.918 133.803 147.083 133.803Z" fill="#FF9E3E"/>
<path id="Fill 23" fill-rule="evenodd" clip-rule="evenodd" d="M143.672 133.803H128.264C127.429 133.803 126.729 133.207 126.648 132.427L124.29 109.981C124.197 109.084 124.947 108.306 125.907 108.306H146.03C146.99 108.306 147.74 109.084 147.646 109.981L145.289 132.427C145.207 133.207 144.508 133.803 143.672 133.803Z" fill="#000937"/>
<path id="Fill 24" fill-rule="evenodd" clip-rule="evenodd" d="M80.8078 42.5303L81.3924 41.2426C81.3924 41.2426 87.64 38.7334 91.1759 38.3111C92.663 38.1336 94.4117 39.105 92.3436 40.4397C91.2276 41.1601 90.489 42.1785 90.489 42.1785C90.489 42.1785 93.2633 42.0751 95.3345 41.3971C96.6603 40.9628 99.122 38.4265 99.905 39.3389C101.151 40.7905 98.5901 43.2219 98.5901 43.2219C98.5901 43.2219 100.402 39.7471 101.514 41.6048C102.622 43.4552 96.5168 49.5786 94.0838 50.7719C91.6504 51.9651 80.7754 51.1399 80.7754 51.1399L80.8078 42.5303Z" fill="#D8A7A8"/>
<path id="Fill 25" fill-rule="evenodd" clip-rule="evenodd" d="M93.0036 44.3781C92.6831 44.3781 92.3616 44.3541 92.0437 44.2993C91.92 44.2779 91.8364 44.1599 91.8578 44.0357C91.8792 43.912 91.9962 43.8279 92.1214 43.8499C94.4328 44.2507 97.1252 42.8414 97.1523 42.8273C97.2635 42.7683 97.4013 42.8111 97.4598 42.9223C97.5187 43.0335 97.4765 43.1713 97.3653 43.2297C97.2645 43.2835 95.1714 44.3781 93.0036 44.3781Z" fill="black"/>
<path id="Fill 26" fill-rule="evenodd" clip-rule="evenodd" d="M94.2959 46.7156C94.2343 46.7156 94.1738 46.6905 94.1299 46.644L90.3617 42.6519C90.2751 42.5606 90.2792 42.416 90.3706 42.3299C90.4625 42.2432 90.606 42.2474 90.6932 42.3387L94.3559 46.2197L96.8155 45.253C96.9319 45.207 97.0655 45.2644 97.1109 45.3819C97.1574 45.4988 97.0995 45.6314 96.9825 45.6768L94.3794 46.6999C94.3523 46.7103 94.3241 46.7156 94.2959 46.7156Z" fill="black"/>
<g id="Fill 27">
<path fill-rule="evenodd" clip-rule="evenodd" d="M32.6641 29.1744C32.6641 29.1744 -2.02001 23.2191 5.44538 63.371C10.0237 87.995 31.5111 95.9573 49.9459 90.1022C68.3813 84.2471 65.3089 67.36 65.3089 67.36L32.6641 29.1744Z" fill="#F6BB05"/>
<path fill-rule="evenodd" clip-rule="evenodd" d="M32.6641 29.1744C32.6641 29.1744 -2.02001 23.2191 5.44538 63.371C10.0237 87.995 31.5111 95.9573 49.9459 90.1022C68.3813 84.2471 65.3089 67.36 65.3089 67.36L32.6641 29.1744Z" fill="black" fill-opacity="0.2"/>
</g>
<path id="Fill 28" fill-rule="evenodd" clip-rule="evenodd" d="M96.0686 122.876C96.0686 122.876 108.489 128.825 112.161 132.294C115.833 135.762 116.02 138.123 115.597 139.284C115.174 140.445 89.4827 139.292 89.4827 139.292C89.4827 139.292 89.204 132.236 86.4672 132.691C83.73 133.147 85.2249 139.468 85.2249 139.468L77.4578 139.395C77.4578 139.395 77.0997 132.379 77.6635 129.626C78.2716 126.654 79.9962 122.641 79.9962 122.641L96.0686 122.876Z" fill="#F6BB05"/>
<path id="Fill 29" fill-rule="evenodd" clip-rule="evenodd" d="M93.4166 120.825C93.4166 120.825 104.105 126.854 102.155 127.48C100.204 128.107 89.189 128.213 85.9601 127.038C82.7311 125.863 80.0293 122.515 80.0293 122.515V119.045L92.1549 116.473L93.4166 120.825Z" fill="#D8A7A8"/>
<g id="Fill 30">
<path fill-rule="evenodd" clip-rule="evenodd" d="M61.3549 115.557C61.3549 115.557 69.1387 127.271 70.546 132.233C71.9538 137.196 70.8822 139.365 69.9045 140.162C68.9263 140.959 46.9926 126.512 46.9926 126.512C46.9926 126.512 50.4387 120.176 47.7996 119.145C45.161 118.112 43.166 124.44 43.166 124.44L36.3906 120.313C36.3906 120.313 39.7459 113.971 41.6809 111.851C43.7683 109.563 47.3799 106.944 47.3799 106.944L61.3549 115.557Z" fill="#F6BB05"/>
<path fill-rule="evenodd" clip-rule="evenodd" d="M61.3549 115.557C61.3549 115.557 69.1387 127.271 70.546 132.233C71.9538 137.196 70.8822 139.365 69.9045 140.162C68.9263 140.959 46.9926 126.512 46.9926 126.512C46.9926 126.512 50.4387 120.176 47.7996 119.145C45.161 118.112 43.166 124.44 43.166 124.44L36.3906 120.313C36.3906 120.313 39.7459 113.971 41.6809 111.851C43.7683 109.563 47.3799 106.944 47.3799 106.944L61.3549 115.557Z" fill="black" fill-opacity="0.1"/>
</g>
<path id="Fill 31" fill-rule="evenodd" clip-rule="evenodd" d="M60.1019 112.369C60.1019 112.369 66.3239 123.249 64.285 122.778C62.2467 122.307 52.5295 116.639 50.3116 113.92C48.0937 111.201 47.4746 106.851 47.4746 106.851L55.7193 107.64L60.1019 112.369Z" fill="#D8A7A8"/>
<path id="Fill 32" fill-rule="evenodd" clip-rule="evenodd" d="M56.1205 73.2067L42.4258 105.625L65.5997 113.826L73.8606 94.2149L67.0132 73.2067H56.1205Z" fill="#FF3234"/>
<path id="Fill 33" fill-rule="evenodd" clip-rule="evenodd" d="M26.1722 59.5971C26.1722 59.5971 23.1562 75.7487 28.8745 78.8655C33.7686 81.5339 63.7351 84.3896 65.2911 85.7567C66.8477 87.1227 77.2905 120.253 77.2905 120.253L102.84 117.698C102.84 117.698 93.6061 72.051 86.884 67.4049C81.8333 63.9144 53.3372 56.8535 53.3372 56.8535L26.1722 59.5971Z" fill="#FF3234"/>
<path id="Fill 34" fill-rule="evenodd" clip-rule="evenodd" d="M43.9279 1.35429C43.9279 1.35429 38.5807 -1.03221 33.815 1.98746C29.0493 5.00712 30.8178 12.0147 30.8178 12.0147C30.8178 12.0147 24.4074 18.2477 23.7074 24.5971C23.0074 30.9465 26.2865 32.6111 26.2865 32.6111L37.0242 27.7718L41.2507 7.87228L43.9279 1.35429Z" fill="black"/>
<path id="Fill 35" fill-rule="evenodd" clip-rule="evenodd" d="M55.8947 26.1015C55.8947 26.1015 57.4554 20.8425 55.2328 17.9147C52.8917 14.8309 49.0818 14.6382 49.1016 12.0905C49.147 6.17222 44.8574 3.4386 44.8574 3.4386L44.6768 26.7435L55.8947 26.1015Z" fill="black"/>
<path id="Fill 36" fill-rule="evenodd" clip-rule="evenodd" d="M47.5986 21.8807C47.5986 21.8807 54.1365 22.291 56.9557 25.6698C58.9267 28.0328 67.9173 36.3877 69.2651 38.0559C70.4865 39.5681 78.9583 40.9289 81.5431 40.196C83.1106 39.7513 83.7934 52.959 83.7934 52.959C83.6723 54.0333 73.3809 60.5544 63.7963 57.4319C54.2121 54.3099 51.0359 46.6916 51.0359 46.6916L47.5986 21.8807Z" fill="#F6BB05"/>
<path id="Fill 37" fill-rule="evenodd" clip-rule="evenodd" d="M58.5988 61.9705C58.5988 61.9705 31.8315 66.1913 31.4865 63.5573C30.6973 57.5415 35.9197 25.1854 35.9197 25.1854L38.6016 20.9469L47.1747 21.9548C47.1747 21.9548 51.2837 22.3944 55.304 33.4097C59.3238 44.4251 58.5988 61.9705 58.5988 61.9705Z" fill="#F6BB05"/>
<path id="Fill 38" fill-rule="evenodd" clip-rule="evenodd" d="M37.7603 17.0326L37.9148 23.1951C37.9148 23.1951 39.0704 24.9385 42.6825 25.1411C45.3739 25.2919 46.1892 23.8914 46.1892 23.8914L45.4036 18.5155L38.8585 17.2471L37.7603 17.0326Z" fill="#D8A7A8"/>
<path id="Fill 39" fill-rule="evenodd" clip-rule="evenodd" d="M38.8584 17.2471C38.8777 17.4146 38.9471 17.6119 39.0521 17.8369C40.5084 20.8806 44.2943 21.4495 45.8488 21.5498L45.4035 18.5155L38.8584 17.2471Z" fill="black"/>
<path id="Fill 40" fill-rule="evenodd" clip-rule="evenodd" d="M46.4249 4.43507C46.4249 4.43507 49.8527 12.08 48.6856 16.4046C47.5184 20.7293 43.5827 20.0883 41.2233 19.2771C38.8645 18.466 37.7589 17.0342 37.7589 17.0342C37.7589 17.0342 35.5697 17.7999 34.0816 15.7715C32.5929 13.7436 33.475 11.3894 34.7236 10.8403C35.9727 10.2907 37.4724 11.1817 37.4724 11.1817L36.2823 8.96223C36.2823 8.96223 41.0913 -2.42325 46.4249 4.43507Z" fill="#D8A7A8"/>
<path id="Fill 60" fill-rule="evenodd" clip-rule="evenodd" d="M35.0481 12.6346C35.3435 12.3799 35.6603 12.2831 36.0014 12.3954C36.3218 12.5007 36.6179 12.7549 36.8293 13.1103C37.0595 13.4974 37.1931 13.9902 37.2217 14.4911C37.2373 14.7643 37.2238 15.0315 37.1842 15.2997C37.1472 15.5504 37.1019 15.8362 36.9483 15.9961C36.8368 16.1124 36.7056 16.0122 36.6985 15.8241C36.6899 15.6096 36.763 15.4165 36.7933 15.209C36.8229 15.0049 36.8321 14.7914 36.8229 14.5838C36.8143 14.3757 36.7819 14.1667 36.7288 13.9696C36.6846 13.9436 36.6358 13.9315 36.5823 13.922C36.4939 13.9055 36.3877 13.8914 36.309 13.897C36.2085 13.9045 36.0777 13.9551 35.9718 14.0067C35.8492 14.0669 35.7341 14.1316 35.6062 14.1692C35.4768 14.2073 35.3692 13.9496 35.4846 13.8288C35.5463 13.7631 35.6072 13.6964 35.6778 13.6488C35.7498 13.6002 35.8271 13.5641 35.9023 13.5285C36.0413 13.4638 36.1906 13.4317 36.3371 13.4402C36.4009 13.4437 36.4704 13.4608 36.5363 13.4904L36.5331 13.4838C36.2145 12.9389 35.5855 12.632 35.0994 12.8396C35.0099 12.8777 34.9782 12.6947 35.0481 12.6346Z" fill="#0A0B09"/>
<path id="Fill 59" fill-rule="evenodd" clip-rule="evenodd" d="M46.6255 16.4065C46.2703 16.613 45.9709 16.921 45.5875 17.0479C45.2188 17.1699 44.8236 17.1813 44.4492 17.0515C44.0688 16.9192 43.7202 16.6597 43.4092 16.3195C43.2503 16.1458 43.1081 15.9403 42.9753 15.7279C42.8377 15.5081 42.7283 15.2589 42.5903 15.0415C42.501 14.9003 42.366 15.0299 42.3831 15.1906C42.4477 15.8075 42.8005 16.3929 43.1279 16.7923C43.4845 17.2281 43.9144 17.5487 44.3717 17.6963C44.813 17.8383 45.2686 17.8436 45.703 17.7035C46.1235 17.5677 46.6213 17.2983 46.8696 16.7806C46.9774 16.5561 46.7824 16.3155 46.6255 16.4065Z" fill="#0A0B09"/>
<path id="Fill 41" fill-rule="evenodd" clip-rule="evenodd" d="M37.4724 11.1816C37.4724 11.1816 40.774 11.8482 43.0676 8.17397C45.3606 4.50026 45.1503 2.99173 45.1503 2.99173L47.4355 6.78445C47.4355 6.78445 47.946 4.15471 46.8942 2.4781C45.8424 0.801494 44.7504 1.14913 44.7504 1.14913L37.4714 2.96772L35.5547 8.80244L37.4724 11.1816Z" fill="black"/>
<path id="Fill 47" fill-rule="evenodd" clip-rule="evenodd" d="M46.317 62.1871C46.317 62.1871 37.9319 21.615 37.9183 21.2554C37.9042 20.8962 37.9042 20.8962 37.9042 20.8962C37.9042 20.8962 29.9837 23.2159 27.2495 26.553C25.2618 28.9791 28.5472 62.6506 29.5014 63.2791C30.4566 63.9076 46.317 62.1871 46.317 62.1871Z" fill="#F6BB05"/>
<path id="Fill 48" fill-rule="evenodd" clip-rule="evenodd" d="M58.5986 61.9705C58.5986 61.9705 56.8651 52.6594 52.7712 39.8333C48.6418 26.8944 45.8486 21.5498 45.8486 21.5498C45.8486 21.5498 51.0126 22.29 52.8087 23.4206C54.0772 24.2192 58.905 36.9655 59.6535 46.1587C60.402 55.3518 60.8253 61.292 60.8253 61.292C60.4182 61.7033 58.5986 61.9705 58.5986 61.9705Z" fill="#F6BB05"/>
<path id="Fill 49" fill-rule="evenodd" clip-rule="evenodd" d="M70.1333 39.0644C69.069 40.0102 67.3485 41.7578 67.4597 42.6953C67.4842 42.901 67.6027 43.0482 67.8324 43.1593C68.0762 43.2768 68.2886 43.2778 68.5005 43.1609C69.3775 42.6791 69.9151 40.409 70.1333 39.0644ZM68.1811 43.7022C68.001 43.7022 67.8173 43.6578 67.6341 43.5696C67.17 43.3457 67.0374 42.9996 67.0077 42.7491C66.8255 41.2165 69.9433 38.6139 70.2993 38.3221C70.3713 38.2637 70.4715 38.2538 70.553 38.2987C70.6344 38.343 70.6809 38.4323 70.6704 38.5247C70.6501 38.6974 70.1615 42.7684 68.7203 43.5602C68.5486 43.6547 68.3669 43.7022 68.1811 43.7022Z" fill="black"/>
<path id="Fill 50" fill-rule="evenodd" clip-rule="evenodd" d="M42.5327 25.3081C42.2164 25.3081 41.8818 25.2877 41.5284 25.2423C38.4221 24.8419 37.7112 22.7394 37.6824 22.6501C37.6438 22.5306 37.7096 22.4027 37.8291 22.3641C37.9466 22.3254 38.0765 22.3902 38.1157 22.5097C38.1418 22.588 38.7797 24.4285 41.5864 24.7902C44.4479 25.1588 46.0195 23.739 46.0347 23.7244C46.1271 23.6388 46.2711 23.644 46.3567 23.7369C46.4424 23.8293 46.4361 23.9733 46.3442 24.0584C46.2821 24.1158 44.9615 25.3081 42.5327 25.3081Z" fill="black"/>
<path id="Fill 53" fill-rule="evenodd" clip-rule="evenodd" d="M71.5539 101.64C71.4626 101.64 71.3764 101.585 71.3415 101.495C69.3334 96.3414 65.3173 86.3335 64.4873 85.3433C63.7456 84.458 57.0621 83.7058 52.7506 83.4156C52.6248 83.4072 52.5298 83.2986 52.5381 83.1728C52.5465 83.0476 52.6556 82.95 52.7808 82.9609C53.8984 83.0361 63.7325 83.7329 64.8365 85.0504C65.9212 86.3449 71.5278 100.719 71.7658 101.33C71.8118 101.447 71.7538 101.579 71.6364 101.624C71.6092 101.635 71.5811 101.64 71.5539 101.64Z" fill="#F7C537"/>
<path id="Fill 54" fill-rule="evenodd" clip-rule="evenodd" d="M68.4504 79.3687C68.4223 79.3687 68.3967 79.3718 68.3737 79.3755C67.3021 79.5519 65.8317 82.795 65.116 84.6318C66.2774 83.8546 68.821 82.0005 69.0893 80.5149C69.1509 80.1741 69.0831 79.8849 68.8816 79.6297C68.7125 79.4151 68.5632 79.3687 68.4504 79.3687ZM64.6614 85.4247C64.6102 85.4247 64.5591 85.4075 64.5178 85.373C64.4427 85.3125 64.4145 85.2112 64.4468 85.1204C64.6629 84.5154 66.6052 79.2042 68.2996 78.926C68.5449 78.8869 68.9067 78.9266 69.2397 79.3473C69.5226 79.7059 69.6228 80.1261 69.5383 80.5958C69.1541 82.7198 64.9579 85.2832 64.7793 85.3913C64.7433 85.4137 64.7026 85.4247 64.6614 85.4247Z" fill="#F7C537"/>
<path id="Fill 55" fill-rule="evenodd" clip-rule="evenodd" d="M18.2395 77.3309C18.1951 77.3309 18.1502 77.3184 18.111 77.2913C12.8255 73.6859 10.6895 65.4391 10.6686 65.3567C10.6378 65.234 10.7114 65.1103 10.8336 65.0795C10.9526 65.0466 11.0794 65.1223 11.1107 65.2444C11.1311 65.3259 13.2263 73.4072 18.3679 76.9149C18.4723 76.9859 18.4989 77.1273 18.4279 77.2317C18.3835 77.2965 18.3125 77.3309 18.2395 77.3309Z" fill="#C0660C"/>
<path id="Fill 56" fill-rule="evenodd" clip-rule="evenodd" d="M60.4338 56.2694C60.3148 56.2694 60.2146 56.1776 60.2068 56.0565C60.2 55.9474 59.4938 45.0954 59.38 41.8606C59.144 35.1573 54.241 30.1735 54.1915 30.1244C54.1022 30.0351 54.1022 29.8911 54.1915 29.8018C54.2807 29.7125 54.4248 29.7125 54.5135 29.8018C54.5642 29.853 59.5924 34.9579 59.8351 41.845C59.9494 45.0724 60.6546 55.9181 60.6614 56.0272C60.6698 56.1525 60.5748 56.2611 60.449 56.2689C60.4438 56.2694 60.4391 56.2694 60.4338 56.2694Z" fill="black"/>
<path id="Fill 58" fill-rule="evenodd" clip-rule="evenodd" d="M32.1096 5.16167C32.1096 5.16167 25.7816 -2.51878 23.6091 4.57026C21.8438 10.3298 31.4049 13.4372 31.4049 13.4372L32.1096 5.16167Z" fill="black"/>
<path id="Fill 59_2" fill-rule="evenodd" clip-rule="evenodd" d="M146.214 118.051L145.439 125.237L155.849 128.705L158.664 124.626L158.949 118.927L146.214 118.051Z" fill="#D8A7A8"/>
<path id="Fill 60_2" fill-rule="evenodd" clip-rule="evenodd" d="M177.523 116.54L179.043 124.652L189.905 126.203L192.194 123.599L191.207 116.027L177.523 116.54Z" fill="#D8A7A8"/>
<g id="Fill 61">
<path fill-rule="evenodd" clip-rule="evenodd" d="M191.134 33.2589C191.854 32.252 210.591 23.9071 217.59 51.449C224.59 78.9914 202.772 101.946 168.875 97.9064C133.708 93.716 164.209 55.5841 164.209 55.5841L191.134 33.2589Z" fill="#F6BB05"/>
<path fill-rule="evenodd" clip-rule="evenodd" d="M191.134 33.2589C191.854 32.252 210.591 23.9071 217.59 51.449C224.59 78.9914 202.772 101.946 168.875 97.9064C133.708 93.716 164.209 55.5841 164.209 55.5841L191.134 33.2589Z" fill="black" fill-opacity="0.2"/>
</g>
<path id="Fill 62" fill-rule="evenodd" clip-rule="evenodd" d="M205.334 83.7528C205.278 83.7528 205.222 83.7324 205.178 83.6907C205.086 83.6045 205.082 83.4599 205.168 83.3686C212.498 75.5837 213.766 66.6443 213.779 66.5555C213.796 66.4297 213.913 66.3394 214.035 66.3598C214.159 66.3765 214.247 66.4903 214.23 66.6156C214.218 66.7064 212.935 75.7852 205.499 83.6807C205.454 83.7288 205.394 83.7528 205.334 83.7528Z" fill="#C0660C"/>
<path id="Fill 63" fill-rule="evenodd" clip-rule="evenodd" d="M166.275 62.2874C166.275 62.2874 150.106 66.6276 146.558 71.7754C143.488 76.2311 139.566 119.412 140.301 120.223C141.036 121.034 162.862 121.324 163.811 120.619C164.759 119.914 169.362 88.1349 170.698 88.0529C172.034 87.9704 177.793 63.3559 177.793 63.3559L166.275 62.2874Z" fill="#F6BB05"/>
<path id="Fill 64" fill-rule="evenodd" clip-rule="evenodd" d="M196.173 58.8809C196.173 58.8809 198.689 71.6501 197.92 75.7508C197.151 79.851 190.633 85.6674 190.633 85.6674C190.633 85.6674 195.397 119.429 194.873 119.686C194.349 119.942 172.737 120.796 172.31 120.539C171.884 120.284 163.11 77.9139 164.977 71.6783C166.843 65.4427 172.994 64.5245 172.994 64.5245L196.173 58.8809Z" fill="#F6BB05"/>
<path id="Fill 65" fill-rule="evenodd" clip-rule="evenodd" d="M158.662 35.5973C158.662 35.5973 155.262 33.7182 156.936 27.5677C158.611 21.4171 163.408 21.7643 163.408 21.7643C163.408 21.7643 161.706 17.9402 163.408 13.9554C165.11 9.97059 166.503 9.71534 166.503 9.71534C166.503 9.71534 166.327 6.55631 168.581 4.07794C170.836 1.59904 173.908 4.19591 173.908 4.19591C173.908 4.19591 179.737 2.79491 183.333 6.2118C186.929 9.6287 185.536 15.5099 185.536 15.5099C185.536 15.5099 191.262 17.792 192.654 24.4739C194.047 31.1552 190.438 34.7428 190.438 34.7428L158.662 35.5973Z" fill="black"/>
<path id="Fill 66" fill-rule="evenodd" clip-rule="evenodd" d="M155.938 62.7028C153.083 62.0932 151.155 62.6887 150.117 59.7484C149.143 56.9892 149.193 51.6514 151.182 46.488C155.484 35.316 161.458 24.4875 171.26 23.5521C181.06 22.6167 184.252 24.4055 190.73 28.1643C197.208 31.9226 202.724 46.3069 197.12 56.0418C191.387 65.9986 170.459 63.6194 170.459 63.6194C170.459 63.6194 164.028 64.4306 155.938 62.7028Z" fill="#1396E5"/>
<path id="Fill 67" fill-rule="evenodd" clip-rule="evenodd" d="M178.614 19.6972L178.918 24.4499C178.918 24.4499 177.351 26.0686 175.233 26.2215C172.373 26.4282 171.216 24.7871 171.216 24.7871L170.936 18.5291L178.614 19.6972Z" fill="#D8A7A8"/>
<path id="Fill 68" fill-rule="evenodd" clip-rule="evenodd" d="M178.648 20.1655C178.648 20.1655 177.174 23.8403 173.897 23.5344C171.256 23.287 171.016 19.6023 171.016 19.6023L178.648 20.1655Z" fill="#B28283"/>
<path id="Fill 69" fill-rule="evenodd" clip-rule="evenodd" d="M168.896 8.70067C168.896 8.70067 167.686 16.5586 170.422 20.0929C173.158 23.6273 176.468 22.3087 177.926 21.0763C179.891 19.4144 180.219 17.2732 180.219 17.2732C180.219 17.2732 183.031 17.6245 183.868 15.3403C184.748 12.9413 182.934 11.178 181.534 11.1623C180.134 11.1467 179.982 11.4061 179.982 11.4061L180.288 8.88702C180.288 8.88702 171.424 0.26544 168.896 8.70067Z" fill="#D8A7A8"/>
<path id="Fill 59_3" fill-rule="evenodd" clip-rule="evenodd" d="M175.191 18.6156C174.816 18.6576 174.484 18.7583 174.091 18.7569C173.713 18.7555 173.322 18.6959 172.969 18.5709C172.61 18.4437 172.298 18.2598 172.033 18.0428C171.898 17.932 171.782 17.8084 171.677 17.683C171.568 17.5533 171.491 17.4138 171.381 17.2852C171.311 17.2017 171.162 17.2425 171.159 17.3236C171.148 17.6348 171.425 17.9782 171.699 18.2268C171.997 18.4979 172.382 18.7249 172.814 18.8722C173.232 19.0142 173.68 19.0919 174.125 19.0953C174.556 19.0985 175.079 19.0493 175.387 18.838C175.52 18.7465 175.357 18.5971 175.191 18.6156Z" fill="#0A0B09"/>
<path id="Fill 60_3" fill-rule="evenodd" clip-rule="evenodd" d="M182.312 12.6346C182.016 12.3799 181.7 12.2831 181.358 12.3954C181.038 12.5007 180.742 12.7549 180.531 13.1103C180.3 13.4974 180.167 13.9902 180.138 14.4911C180.123 14.7643 180.136 15.0315 180.176 15.2997C180.213 15.5504 180.258 15.8362 180.412 15.9961C180.523 16.1124 180.654 16.0122 180.661 15.8241C180.67 15.6096 180.597 15.4165 180.567 15.209C180.537 15.0049 180.528 14.7914 180.537 14.5838C180.546 14.3757 180.578 14.1667 180.631 13.9696C180.675 13.9436 180.724 13.9315 180.778 13.922C180.866 13.9055 180.972 13.8914 181.051 13.897C181.151 13.9045 181.282 13.9551 181.388 14.0067C181.511 14.0669 181.626 14.1316 181.754 14.1692C181.883 14.2073 181.991 13.9496 181.875 13.8288C181.814 13.7631 181.753 13.6964 181.682 13.6488C181.61 13.6002 181.533 13.5641 181.458 13.5285C181.319 13.4638 181.169 13.4317 181.023 13.4402C180.959 13.4437 180.889 13.4608 180.824 13.4904L180.827 13.4838C181.145 12.9389 181.774 12.632 182.26 12.8396C182.35 12.8777 182.382 12.6947 182.312 12.6346Z" fill="#0A0B09"/>
<path id="Fill 70" fill-rule="evenodd" clip-rule="evenodd" d="M170.617 12.2622C170.617 12.2622 166.335 10.7067 166.187 13.9654C166.017 17.7398 170.505 17.5269 170.505 17.5269L170.617 12.2622Z" fill="#D8A7A8"/>
<path id="Fill 71" fill-rule="evenodd" clip-rule="evenodd" d="M180.797 11.7689C180.797 11.7689 179.372 12.4574 176.167 10.3762C172.963 8.29457 173.71 5.58444 173.71 5.58444C173.71 5.58444 169.643 8.4543 168.881 11.8033C168.118 15.1524 167.095 4.12706 171.888 4.07852C176.68 4.02998 184.006 6.7495 180.797 11.7689Z" fill="black"/>
<path id="Fill 79" fill-rule="evenodd" clip-rule="evenodd" d="M174.869 26.4633C174.856 26.4633 174.844 26.4633 174.83 26.4633C171.365 26.4471 170.656 24.4437 170.627 24.3581C170.588 24.2391 170.652 24.1096 170.771 24.07C170.89 24.0298 171.019 24.094 171.059 24.213C171.086 24.2892 171.717 25.993 174.833 26.0076C174.845 26.0076 174.857 26.0076 174.869 26.0076C177.642 26.0076 178.693 24.5016 178.737 24.4374C178.807 24.3325 178.948 24.3059 179.053 24.3753C179.157 24.4453 179.185 24.5862 179.115 24.6906C179.067 24.7632 177.899 26.4633 174.869 26.4633Z" fill="white"/>
<path id="Fill 80" fill-rule="evenodd" clip-rule="evenodd" d="M168.881 11.8034C168.881 11.8034 165.11 7.02254 167.941 4.07803C170.773 1.13353 178.926 -0.33689 182.778 5.22483C185.509 9.1684 180.796 11.7689 180.796 11.7689L175.559 6.39563L173.709 5.58447L170.617 6.39563L168.881 11.8034Z" fill="black"/>
<path id="Fill 83" fill-rule="evenodd" clip-rule="evenodd" d="M166.758 94.4331C166.651 94.4331 166.555 94.3563 166.535 94.2467C166.508 94.1042 163.883 79.9147 163.984 73.9808C164.089 67.9242 168.738 65.8498 168.784 65.83C168.901 65.7799 169.034 65.8331 169.084 65.9485C169.134 66.0639 169.081 66.198 168.965 66.2481C168.921 66.2674 164.539 68.2348 164.44 73.9891C164.339 79.8766 166.956 94.0212 166.982 94.1632C167.006 94.2869 166.924 94.4059 166.8 94.4289C166.786 94.432 166.772 94.4331 166.758 94.4331Z" fill="#B48C0F"/>
<path id="Fill 84" fill-rule="evenodd" clip-rule="evenodd" d="M189.801 77.3847C189.784 77.3847 189.767 77.3868 189.749 77.3899C189.689 77.4019 189.601 77.4338 189.519 77.5736C188.957 78.5231 189.753 82.0089 190.358 84.172C190.573 81.5162 190.62 78.0591 189.957 77.4525C189.907 77.4066 189.858 77.3847 189.801 77.3847ZM190.472 85.5949C190.374 85.5949 190.286 85.5313 190.255 85.4352C190.045 84.7676 188.225 78.8666 189.127 77.3419C189.256 77.1221 189.436 76.988 189.659 76.9436C189.883 76.8987 190.092 76.9582 190.265 77.1164C191.452 78.2037 190.779 84.6596 190.699 85.3919C190.687 85.4989 190.602 85.5835 190.495 85.5939C190.488 85.5944 190.48 85.5949 190.472 85.5949Z" fill="#B48C0F"/>
<path id="Fill 85" fill-rule="evenodd" clip-rule="evenodd" d="M164.713 116.535C164.709 116.535 140.295 116.223 140.295 116.223C140.169 116.221 140.069 116.118 140.071 115.992C140.072 115.867 140.174 115.767 140.298 115.767C140.302 115.767 164.716 116.08 164.716 116.08C164.841 116.081 164.942 116.185 164.94 116.311C164.939 116.436 164.837 116.535 164.713 116.535Z" fill="#B48C0F"/>
<path id="Fill 86" fill-rule="evenodd" clip-rule="evenodd" d="M171.418 117.17C171.299 117.17 171.199 117.078 171.191 116.957C171.183 116.831 171.278 116.723 171.403 116.714L194.56 115.189C194.693 115.171 194.793 115.276 194.802 115.402C194.81 115.527 194.715 115.636 194.589 115.644L171.433 117.169C171.428 117.17 171.423 117.17 171.418 117.17Z" fill="#B48C0F"/>
<g id="Fill 87">
<path fill-rule="evenodd" clip-rule="evenodd" d="M125.536 128.844C128.823 126.805 135.439 126.366 137.929 125.029C140.418 123.691 143.342 120.242 144.715 121.032C146.088 121.821 148.544 125.176 152.447 124.999C156.351 124.822 158.202 124.044 159.18 125.022C159.863 125.706 160.165 131.745 160.115 135.578L161.545 135.939L161.276 139.736L152.968 139.15C152.484 139.238 151.358 136.129 150.432 136.517C149.507 136.906 146.883 138.065 145.521 138.621C145.521 138.621 125.511 137.794 121.643 137.012C121.321 136.947 121.124 136.622 121.204 136.299C121.587 134.767 122.861 130.502 125.536 128.844Z" fill="#FF3234"/>
<path fill-rule="evenodd" clip-rule="evenodd" d="M125.536 128.844C128.823 126.805 135.439 126.366 137.929 125.029C140.418 123.691 143.342 120.242 144.715 121.032C146.088 121.821 148.544 125.176 152.447 124.999C156.351 124.822 158.202 124.044 159.18 125.022C159.863 125.706 160.165 131.745 160.115 135.578L161.545 135.939L161.276 139.736L152.968 139.15C152.484 139.238 151.358 136.129 150.432 136.517C149.507 136.906 146.883 138.065 145.521 138.621C145.521 138.621 125.511 137.794 121.643 137.012C121.321 136.947 121.124 136.622 121.204 136.299C121.587 134.767 122.861 130.502 125.536 128.844Z" fill="black" fill-opacity="0.1"/>
</g>
<path id="Fill 88" fill-rule="evenodd" clip-rule="evenodd" d="M162.098 43.4658C161.991 43.4658 161.895 43.389 161.875 43.2794C160.186 34.2095 165.607 29.5325 165.661 29.4866C165.757 29.4062 165.9 29.4177 165.982 29.5142C166.063 29.6103 166.05 29.7543 165.955 29.8352C165.901 29.8796 160.684 34.3979 162.323 43.1959C162.346 43.3196 162.264 43.4386 162.141 43.4616C162.126 43.4642 162.112 43.4658 162.098 43.4658Z" fill="white"/>
<path id="Fill 89" fill-rule="evenodd" clip-rule="evenodd" d="M68.6475 72.2056L52.9541 70.1813C52.0777 70.0686 51.5562 69.2788 51.7896 68.4181L58.7846 42.5946C59.0174 41.7338 59.9173 41.1278 60.7937 41.2405L76.4871 43.2643C77.3636 43.3775 77.885 44.1668 77.6517 45.0281L70.6566 70.851C70.4233 71.7118 69.5239 72.3183 68.6475 72.2056Z" fill="white"/>
<path id="Fill 90" fill-rule="evenodd" clip-rule="evenodd" d="M70.6675 72.4659L54.9741 70.4417C54.0977 70.329 53.5763 69.5392 53.8096 68.6784L60.8047 42.8555C61.038 41.9942 61.9374 41.3882 62.8138 41.5009L78.5072 43.5246C79.3836 43.6379 79.9056 44.4272 79.6722 45.2884L72.6766 71.1114C72.4438 71.9722 71.5439 72.5787 70.6675 72.4659Z" fill="#000937"/>
<path id="Fill 91" fill-rule="evenodd" clip-rule="evenodd" d="M48.4645 55.8043C48.4645 55.8043 51.125 54.3448 52.4253 53.9894C52.4378 53.9857 52.4498 53.9831 52.4623 53.9794C53.8628 53.6005 54.7945 53.0832 55.9471 53.0707L55.2481 55.6493C55.2481 55.6493 59.3175 56.5074 62.3539 57.9841C65.3908 59.4608 64.8568 60.8388 64.8568 60.8388C64.8568 60.8388 66.7923 62.0535 65.9775 62.886C65.1632 63.7186 61.9968 62.9299 61.9968 62.9299C61.9968 62.9299 65.9947 64.3961 64.3572 65.3065C62.7198 66.2168 59.0884 65.983 59.0884 65.983C59.0884 65.983 51.2017 67.4429 48.5631 64.7265C45.9245 62.0101 48.4645 55.8043 48.4645 55.8043Z" fill="#D8A7A8"/>
<path id="Fill 92" fill-rule="evenodd" clip-rule="evenodd" d="M55.0373 55.702C55.0164 55.701 53.441 55.5585 53.441 55.5585C53.3158 55.5475 53.2234 55.4368 53.2349 55.311C53.2458 55.1858 53.3591 55.096 53.4817 55.1049L55.0571 55.2468C55.1829 55.2583 55.2753 55.369 55.2638 55.4943C55.2528 55.6127 55.1537 55.702 55.0373 55.702Z" fill="black"/>
<path id="Fill 93" fill-rule="evenodd" clip-rule="evenodd" d="M64.672 60.8508C64.6517 60.8508 64.6313 60.8482 64.6109 60.8425L58.4599 59.1387C58.3388 59.1048 58.2673 58.9795 58.3007 58.8579C58.3346 58.7368 58.4604 58.6653 58.5815 58.6992L64.7331 60.403C64.8542 60.4369 64.9252 60.5622 64.8918 60.6833C64.8636 60.7846 64.7717 60.8508 64.672 60.8508Z" fill="black"/>
<path id="Fill 94" fill-rule="evenodd" clip-rule="evenodd" d="M62.4098 63.2493C62.3894 63.2493 62.3691 63.2467 62.3482 63.2405L58.4923 62.1579C58.3712 62.1239 58.3008 61.9981 58.3347 61.877C58.3686 61.7559 58.4944 61.6829 58.6155 61.7194L62.4719 62.802C62.593 62.8359 62.6635 62.9617 62.6296 63.0828C62.6014 63.1836 62.5095 63.2493 62.4098 63.2493Z" fill="black"/>
<path id="Fill 95" fill-rule="evenodd" clip-rule="evenodd" d="M161.525 131.765C164.32 129.223 170.537 127.721 172.687 125.999C174.836 124.278 177.055 120.403 178.489 120.96C179.922 121.518 182.801 124.43 186.483 123.626C190.165 122.821 191.799 121.755 192.888 122.561C193.647 123.125 194.915 129.035 195.49 132.824L196.908 132.95L197.269 136.739L189.275 137.501C188.831 137.667 187.255 134.782 186.439 135.315C185.622 135.848 183.316 137.415 182.111 138.183C182.111 138.183 162.955 140.599 159.151 140.453C158.834 140.44 158.594 140.151 158.618 139.819C158.733 138.247 159.252 133.833 161.525 131.765Z" fill="#FF3234"/>
<path id="Fill 97" fill-rule="evenodd" clip-rule="evenodd" d="M73.071 46.511C73.0032 46.511 72.9348 46.5063 72.8659 46.4974L67.5239 45.8084C67.0844 45.7521 66.6867 45.5114 66.4319 45.1486C66.1772 44.7859 66.0864 44.3297 66.1824 43.8975L66.5912 42.0554C66.6183 41.9332 66.7368 41.8555 66.8631 41.8826C66.9858 41.9097 67.063 42.0319 67.0359 42.1546L66.6277 43.9961C66.5577 44.3088 66.6209 44.6251 66.8046 44.8871C66.9889 45.1486 67.265 45.3157 67.5824 45.3564L72.9238 46.0454C73.4985 46.1185 74.031 45.7505 74.1635 45.1873L74.6777 43.0075C74.7069 42.8848 74.8296 42.8107 74.9517 42.8378C75.0744 42.8671 75.1501 42.9897 75.1209 43.1119L74.6072 45.2922C74.4365 46.0157 73.7961 46.511 73.071 46.511Z" fill="#FCB465"/>
<path id="Fill 122" fill-rule="evenodd" clip-rule="evenodd" d="M179.349 60.0052C179.349 60.0052 166.683 64.0156 165.565 67.1481C164.447 70.2799 165.163 71.6533 165.163 71.6533C165.163 71.6533 164.399 73.5935 165.967 73.7261C167.535 73.8587 169.015 72.9932 169.015 72.9932C169.015 72.9932 167.514 74.175 169.091 74.59C170.669 75.0044 181.983 71.8208 182.636 68.1675C183.289 64.5147 179.349 60.0052 179.349 60.0052Z" fill="#D8A7A8"/>
<path id="Fill 123" fill-rule="evenodd" clip-rule="evenodd" d="M165.123 68.9133C165.079 68.9133 165.035 68.9008 164.996 68.8747C164.891 68.8042 164.864 68.6628 164.934 68.5584C166.382 66.4052 170.732 65.0773 170.916 65.022C171.038 64.9854 171.164 65.0548 171.2 65.1744C171.236 65.295 171.168 65.4223 171.047 65.4583C171.004 65.4714 166.67 66.7946 165.312 68.8126C165.268 68.8784 165.196 68.9133 165.123 68.9133Z" fill="black"/>
<path id="Fill 124" fill-rule="evenodd" clip-rule="evenodd" d="M165.163 71.8813C165.094 71.8813 165.026 71.85 164.981 71.7916C164.906 71.6908 164.925 71.5483 165.025 71.4716C165.151 71.3766 168.139 69.1216 171.406 68.3214C171.525 68.2896 171.651 68.3663 171.681 68.489C171.711 68.6106 171.636 68.7338 171.514 68.7641C168.342 69.5413 165.331 71.8119 165.301 71.8349C165.26 71.8657 165.211 71.8813 165.163 71.8813Z" fill="black"/>
<path id="Fill 125" fill-rule="evenodd" clip-rule="evenodd" d="M169.015 73.2213C168.93 73.2213 168.848 73.1727 168.809 73.0898C168.756 72.976 168.805 72.8408 168.919 72.787L171.812 71.4335C171.924 71.3797 172.062 71.4283 172.115 71.5436C172.168 71.6574 172.119 71.7931 172.005 71.8464L169.112 73.1999C169.081 73.2145 169.048 73.2213 169.015 73.2213Z" fill="black"/>
<path id="Fill 126" fill-rule="evenodd" clip-rule="evenodd" d="M154.498 58.3939C154.498 58.3939 164.19 63.536 164.536 66.8438C164.882 70.1516 163.862 71.3166 163.862 71.3166C163.862 71.3166 164.145 73.3826 162.59 73.1404C161.035 72.8982 159.802 71.7076 159.802 71.7076C159.802 71.7076 160.98 73.2109 159.35 73.2407C157.719 73.2704 149.144 69.2517 149.375 65.5477C149.604 61.8432 154.498 58.3939 154.498 58.3939Z" fill="#D8A7A8"/>
<path id="Fill 127" fill-rule="evenodd" clip-rule="evenodd" d="M164.602 68.6702C164.509 68.6702 164.422 68.6133 164.389 68.5214C163.546 66.2378 159.648 63.9285 159.608 63.905C159.5 63.8414 159.464 63.7025 159.528 63.5939C159.591 63.4848 159.731 63.4483 159.839 63.5125C160.005 63.6101 163.917 65.9288 164.816 68.3633C164.86 68.4818 164.799 68.6128 164.681 68.6561C164.655 68.6655 164.628 68.6702 164.602 68.6702Z" fill="black"/>
<path id="Fill 128" fill-rule="evenodd" clip-rule="evenodd" d="M163.862 71.5441C163.796 71.5441 163.73 71.5154 163.685 71.4601C163.661 71.4303 161.273 68.513 158.374 67.0076C158.262 66.9491 158.219 66.8118 158.277 66.7001C158.335 66.5884 158.473 66.5462 158.584 66.6025C161.568 68.1528 163.939 71.0503 164.039 71.1725C164.118 71.2706 164.103 71.4136 164.005 71.493C163.963 71.5274 163.913 71.5441 163.862 71.5441Z" fill="black"/>
<path id="Fill 129" fill-rule="evenodd" clip-rule="evenodd" d="M159.802 71.9352C159.752 71.9352 159.702 71.919 159.659 71.8851L157.168 69.8859C157.07 69.8071 157.054 69.664 157.132 69.5654C157.212 69.4678 157.354 69.4516 157.453 69.5304L159.945 71.5296C160.042 71.6084 160.059 71.752 159.98 71.8501C159.934 71.9059 159.869 71.9352 159.802 71.9352Z" fill="black"/>
<path id="Fill 130" fill-rule="evenodd" clip-rule="evenodd" d="M172.767 59.7521L183.312 68.6858C183.312 68.6858 200.472 63.5432 201.351 49.7394C202.231 35.9361 191.791 27.2363 184.93 25.0721C178.864 23.159 172.767 59.7521 172.767 59.7521Z" fill="#1396E5"/>
<path id="Fill 131" fill-rule="evenodd" clip-rule="evenodd" d="M149.409 66.0978C149.409 66.0978 143.938 54.7489 153.56 40.0755C159.37 31.2169 159.724 58.3939 159.724 58.3939L149.409 66.0978Z" fill="#1396E5"/>
<path id="Fill 132" fill-rule="evenodd" clip-rule="evenodd" d="M177.408 57.0811C177.359 57.0811 177.31 57.0654 177.268 57.0331C177.169 56.9563 177.15 56.8128 177.228 56.7136C177.54 56.3112 184.929 46.8194 189.801 43.9527C189.911 43.8896 190.05 43.925 190.113 44.0341C190.177 44.1422 190.141 44.2821 190.033 44.3458C185.235 47.1681 177.663 56.8953 177.588 56.9929C177.543 57.0508 177.476 57.0811 177.408 57.0811Z" fill="white"/>
<path id="Fill 133" fill-rule="evenodd" clip-rule="evenodd" d="M184.716 44.7039C184.676 44.7039 184.626 44.7159 184.564 44.7582C183.878 45.2248 183.353 47.7736 183.087 49.5139C184.08 47.7502 185.154 45.4801 184.894 44.8255C184.868 44.7613 184.832 44.7279 184.771 44.7117C184.756 44.7075 184.737 44.7039 184.716 44.7039ZM182.709 50.8366C182.684 50.8366 182.66 50.8325 182.635 50.8241C182.534 50.7897 182.47 50.6894 182.483 50.583C182.545 50.0333 183.121 45.1888 184.308 44.3818C184.492 44.2565 184.693 44.2184 184.891 44.2717C185.091 44.326 185.238 44.4591 185.317 44.6569C185.815 45.9102 183.203 50.2384 182.903 50.7275C182.861 50.797 182.787 50.8366 182.709 50.8366Z" fill="white"/>
<path id="Fill 134" fill-rule="evenodd" clip-rule="evenodd" d="M31.7368 23.5531C31.7368 23.5531 11.701 33.4692 12.4626 52.0069C13.1198 68.0088 46.8873 66.8917 47.8384 66.9032C49.6663 66.9256 51.9302 53.7017 51.3654 53.1787C50.8006 52.6562 33.987 43.0418 33.987 43.0418L31.7368 23.5531Z" fill="#F6BB05"/>
<path id="Fill 135" fill-rule="evenodd" clip-rule="evenodd" d="M24.0984 43.3519C23.6803 43.3519 23.3238 43.438 23.0665 43.6421C22.9167 43.7612 22.8394 43.8702 22.8608 43.9344C23.0404 44.4784 26.0125 44.9231 28.9649 45.0765C27.6176 44.3301 25.5083 43.3519 24.0984 43.3519ZM41.2664 49.3124C41.2429 49.3124 41.2189 49.3088 41.1949 49.3009L29.8298 45.5683C28.1469 45.515 22.8164 45.2519 22.4281 44.0775C22.367 43.8927 22.379 43.6051 22.7836 43.2846C24.5818 41.8617 29.5307 44.8641 29.9671 45.134L41.3374 48.8682C41.4569 48.9074 41.5217 49.0363 41.4825 49.1558C41.4512 49.2519 41.3619 49.3124 41.2664 49.3124Z" fill="black"/>
</g>
</svg>
