<svg width="14" height="14" viewBox="0 0 14 14" fill="none" xmlns="http://www.w3.org/2000/svg">
<g id="arrow-right">
<path id="Path" d="M7.18435 0.109851L7.80307 0.72857C7.94951 0.875007 7.94951 1.11244 7.80307 1.25891L2.95526 6.10669H13.625C13.8321 6.10669 14 6.27459 14 6.48169V7.35669C14 7.56378 13.8321 7.73169 13.625 7.73169H2.95526L7.80307 12.5795C7.94951 12.7259 7.94951 12.9634 7.80307 13.1098L7.18435 13.7286C7.03791 13.875 6.80048 13.875 6.65401 13.7286L0.109828 7.18437C-0.0366096 7.03794 -0.0366096 6.8005 0.109828 6.65403L6.65404 0.109851C6.80048 -0.0366171 7.03791 -0.0366171 7.18435 0.109851Z" fill="#000937"/>
</g>
</svg>
