<?xml version="1.0" encoding="utf-8"?>
<!-- Generator: Adobe Illustrator 23.0.2, SVG Export Plug-In . SVG Version: 6.00 Build 0)  -->
<svg version="1.1" id="Layer_1" xmlns="http://www.w3.org/2000/svg" xmlns:xlink="http://www.w3.org/1999/xlink" x="0px" y="0px"
	 viewBox="0 0 126.0953 251.3997" enable-background="new 0 0 126.0953 251.3997" xml:space="preserve">
<g>
	<path d="M34.7358,75.0416c0.5399,1.5591,2.2573,2.3931,3.8165,1.8532l14.6139-5.0606c0.3007-0.1041,0.5645-0.2628,0.8066-0.4449
		c-2.1679-0.4316-4.2345-1.1518-6.1635-2.1122l-10.0147,3.4679c-0.5197,0.18-1.0922-0.098-1.2722-0.6177l-8.7198-25.1809
		c-0.1799-0.5197,0.098-1.0922,0.6177-1.2722l5.8477-2.025c0.2302-1.6603,0.6248-3.2726,1.1708-4.8176l-8.9892,3.1129
		c-1.5592,0.5399-2.3931,2.2574-1.8532,3.8165L34.7358,75.0416z"/>
	<path d="M99.0155,5.3583c-3.4845-6.953-16.3478,0.5663-17.4396,9.4717C92.8858,9.5146,102.2947,11.9018,99.0155,5.3583z"/>
	<path d="M75.335,0.1871c-5.8962-1.7892-8.5897,9.7041-4.067,15.188C74.381,5.9764,80.8838,1.8709,75.335,0.1871z"/>
	<path d="M84.1326,27.655c8.3821-2.1676,14.4816,0.665,13.0886-4.2108C95.7411,18.2634,86.0186,21.732,84.1326,27.655z"/>
	<path d="M114.9029,53.0549c-1.793-4.1617-5.9117-7.9015-17.7614-12.0782c-5.5958-1.9724-12.9083-4.0417-22.5276-6.2997
		c-4.2998-1.0117-8.6074,1.6582-9.6162,5.96c-1.0098,4.3013,1.6582,8.6069,5.96,9.6162c8.3002,1.9486,14.3189,3.6577,18.6775,5.0888
		c1.7434,0.5724,3.2216,1.1003,4.4719,1.5811c-4.3097,1.2786-9.6147,2.4761-13.367,3.2906
		c-0.0148-0.6124,0.0375-1.2279,0.1528-1.8455c0.1849-0.9911,0.5114-1.9866,0.8986-2.9796c-0.7134-0.199-1.4563-0.402-2.2277-0.6089
		c-1.4233,3.7406-2.1765,7.9734,1.7145,11.9421c1.9697,2.0093,1.4063,5.4292,0.5879,7.9443
		c-1.7041,5.2295-5.4814,9.9087-7.1055,10.9897c0.0107-0.1514,0.0332-0.3413,0.0742-0.5762
		c1.5313-8.7539-3.9434-18.9556-8.7734-27.9565c-2.6973-5.0273-5.2461-9.7754-5.8965-13.2061
		c-0.3203-1.6895-0.0088-3.0522,0.9512-4.1665c0.6147-0.7136,1.4436-1.2813,2.3844-1.7333
		c1.6779-3.5295,5.2317-5.8546,9.2765-5.8546c0.792,0,1.5869,0.0928,2.3633,0.2754c0.3384,0.0794,0.6526,0.157,0.9855,0.236
		c-4.4153-5.2974-11.1976-8.5052-18.6096-8.0711C45.1098,25.3296,35.643,35.9722,36.3696,48.3784
		c0.7245,12.4063,11.3691,21.8731,23.7754,21.1485c3.0625-0.1794,5.9448-0.9654,8.5402-2.2311
		c0.3248,0.6978,0.6375,1.3958,0.9373,2.0939c-2.8438,1.3795-5.9962,2.2373-9.3426,2.4332c-0.4922,0.0288-0.9795,0.043-1.4658,0.043
		c-0.001,0-0.001,0-0.002,0c-0.7119-0.0001-1.4156-0.0359-2.113-0.0953c-0.6186,1.0098-1.576,1.8201-2.7795,2.2371l-14.6143,5.0605
		c-0.5586,0.1934-1.1396,0.291-1.7275,0.291c-2.2617,0-4.2764-1.4326-5.0146-3.5645l-1.4305-4.1305
		c-0.0671,0.0422-0.1318,0.0799-0.1992,0.1226c0.0511-0.0767,0.1078-0.1608,0.1592-0.2379l-5.9988-17.3217
		c-1.4141,0.5761-2.6797,1.5608-3.5999,2.9205C13.3319,69.2078,7.7713,77.9006,4.4959,83.7224
		c-3.1162,5.5376-7.3848,13.1221-1.7295,18.478c1.8545,1.7563,3.8838,2.3774,5.8398,2.3774c3.7217,0,7.1787-2.25,8.6563-3.2119
		c2.5996-1.6924,5.8018-4.123,9.1914-6.6963c2.4754-1.8788,5.903-4.4788,9.2806-6.8395
		c3.3696,17.5226,14.3708,91.075-26.2035,141.5275c-4.3262,5.3794-3.4717,13.248,1.9072,17.5742
		c2.3096,1.8574,5.0771,2.7598,7.8262,2.7598c3.6553,0,7.2793-1.5962,9.749-4.667c23.49-29.2091,32.405-64.0043,34.9166-94.2612
		c3.7672,0.5389,7.5855,0.9905,11.1323,1.3218c2.8578,28.6925,3.0603,60.3099-5.1475,82.4692
		c-2.3975,6.4736,0.9063,13.6655,7.3799,16.0635c1.4316,0.5303,2.8984,0.7817,4.3398,0.7817c5.0801,0,9.8564-3.1196,11.7236-8.1616
		c21.5-58.043-4.9121-162.7783-6.0469-167.2085c-0.0724-0.2828-0.1666-0.5537-0.257-0.8268
		c13.986-3.132,23.4674-6.0909,27.165-12.2674c0.0265-0.0437,0.0591-0.0812,0.0849-0.1256
		c0.0104-0.0179,0.0175-0.0369,0.0278-0.0548c0.1363-0.2385,0.2592-0.4808,0.3684-0.7266
		C116.0661,59.1915,116.1589,55.9708,114.9029,53.0549z M60.1559,50.6781c0.9794,2.1007,2.188,4.377,3.4861,6.7986
		c-0.288,0.0403-0.5755,0.0775-0.866,0.1321c-6.8763,1.2916-11.7009,6.3199-12.45,2.34
		C49.6256,56.2167,53.9482,52.2271,60.1559,50.6781z"/>
	<path d="M16.6913,40.9582c-1.3848,2.6035-0.4824,5.4189-0.4424,5.5371c0.1387,0.4209,0.5293,0.6875,0.9492,0.6875
		c0.1035,0,0.209-0.0166,0.3135-0.0508c0.5244-0.1729,0.8096-0.7383,0.6357-1.2627c-0.0068-0.021-0.6621-2.1436,0.3096-3.9722
		c0.6299-1.1851,1.8311-2.0342,3.5684-2.5244c0.5313-0.1499,0.8408-0.7021,0.6914-1.2339
		c-0.1504-0.5317-0.6992-0.8398-1.2344-0.6909C19.1991,38.092,17.5877,39.2732,16.6913,40.9582z"/>
	<path d="M12.41,46.8894c0.0869,0,0.1758-0.0117,0.2627-0.0356c0.5332-0.1445,0.8477-0.6938,0.7031-1.2271
		c-0.0088-0.0337-0.9043-3.4395,0.8516-6.4053c1.1484-1.9385,3.1963-3.2744,6.0869-3.9712
		c0.5371-0.1294,0.8672-0.6694,0.7383-1.2065c-0.1309-0.5376-0.6719-0.8647-1.207-0.7378
		c-3.4365,0.8281-5.9053,2.4751-7.3389,4.8965c-2.1816,3.6851-1.1074,7.7764-1.0605,7.9487
		C11.5672,46.5964,11.9706,46.8894,12.41,46.8894z"/>
	<path d="M116.6688,43.9123c-0.5176-0.189-1.0938,0.0752-1.2842,0.5933s0.0752,1.0928,0.5928,1.2837
		c0.0205,0.0078,2.0908,0.814,2.918,2.7114c0.5361,1.231,0.4541,2.6997-0.2432,4.3652c-0.2129,0.5098,0.0273,1.0957,0.5371,1.3086
		c0.126,0.0527,0.2568,0.0781,0.3857,0.0781c0.3906,0,0.7617-0.231,0.9229-0.6143c0.915-2.189,0.9932-4.186,0.2305-5.9365
		C119.5506,44.9993,116.786,43.9553,116.6688,43.9123z"/>
	<path d="M125.4901,46.1404c-1.5283-4.0005-5.4004-5.7041-5.5654-5.7744c-0.5029-0.2192-1.0918,0.0151-1.3105,0.5215
		c-0.2197,0.5059,0.0137,1.0942,0.5186,1.3145c0.0322,0.0142,3.2803,1.4634,4.4961,4.6704
		c0.7959,2.1006,0.5654,4.5288-0.6836,7.2178c-0.2324,0.501-0.0146,1.0957,0.4863,1.3281c0.1357,0.0635,0.2793,0.0933,0.4199,0.0933
		c0.3779,0,0.7383-0.2144,0.9082-0.5786C126.2479,51.7268,126.494,48.7688,125.4901,46.1404z"/>
</g>
</svg>
