<svg width="32" height="32" viewBox="0 0 32 32" fill="none" xmlns="http://www.w3.org/2000/svg">
<path d="M29.5408 7.46138C29.496 7.40653 29.4394 7.36241 29.3752 7.33226C29.3111 7.30211 29.241 7.28669 29.1701 7.28712H11.0886C10.9794 7.28694 10.8736 7.32433 10.7888 7.39298C10.704 7.46164 10.6454 7.55739 10.6228 7.66415L7.10599 24.4562C7.09117 24.5263 7.09238 24.5988 7.10953 24.6684C7.12668 24.7379 7.15933 24.8027 7.20503 24.8578C7.25073 24.913 7.30831 24.9571 7.37345 24.9868C7.4386 25.0166 7.50963 25.0312 7.58123 25.0297H25.6628C25.7719 25.0299 25.8778 24.9925 25.9626 24.9238C26.0474 24.8552 26.106 24.7594 26.1286 24.6527L29.6454 7.86058C29.6591 7.79046 29.6568 7.71816 29.6387 7.64904C29.6206 7.57992 29.5872 7.51578 29.5408 7.46138ZM16.3606 8.23761H23.8474L23.3088 11.4059H15.822L16.3606 8.23761ZM25.2668 24.0792H8.15787L11.4846 8.23761H15.3943L14.7892 11.802C14.7776 11.8701 14.7811 11.94 14.7994 12.0067C14.8176 12.0734 14.8502 12.1353 14.8949 12.1881C14.9395 12.2409 14.9952 12.2833 15.0579 12.3124C15.1206 12.3414 15.1889 12.3565 15.2581 12.3564H23.7111C23.8235 12.3565 23.9323 12.3168 24.0181 12.2443C24.1039 12.1718 24.1613 12.0712 24.18 11.9604L24.8137 8.23761H28.584L25.2668 24.0792Z" fill="black"/>
<path d="M3.32681 8.87139H8.07929C8.20533 8.87139 8.32621 8.82132 8.41534 8.7322C8.50446 8.64307 8.55453 8.52219 8.55453 8.39615C8.55453 8.2701 8.50446 8.14922 8.41534 8.0601C8.32621 7.97097 8.20533 7.9209 8.07929 7.9209H3.32681C3.20077 7.9209 3.07989 7.97097 2.99076 8.0601C2.90163 8.14922 2.85156 8.2701 2.85156 8.39615C2.85156 8.52219 2.90163 8.64307 2.99076 8.7322C3.07989 8.82132 3.20077 8.87139 3.32681 8.87139Z" fill="black"/>
<path d="M3.0104 13.9407H7.12922C7.25526 13.9407 7.37614 13.8907 7.46527 13.8015C7.55439 13.7124 7.60446 13.5915 7.60446 13.4655C7.60446 13.3394 7.55439 13.2186 7.46527 13.1294C7.37614 13.0403 7.25526 12.9902 7.12922 12.9902H3.0104C2.88436 12.9902 2.76348 13.0403 2.67435 13.1294C2.58523 13.2186 2.53516 13.3394 2.53516 13.4655C2.53516 13.5915 2.58523 13.7124 2.67435 13.8015C2.76348 13.8907 2.88436 13.9407 3.0104 13.9407Z" fill="black"/>
<path d="M6.49555 17.7427H3.0104C2.88436 17.7427 2.76348 17.7927 2.67435 17.8819C2.58523 17.971 2.53516 18.0919 2.53516 18.2179C2.53516 18.344 2.58523 18.4648 2.67435 18.554C2.76348 18.6431 2.88436 18.6932 3.0104 18.6932H6.49555C6.6216 18.6932 6.74248 18.6431 6.8316 18.554C6.92073 18.4648 6.9708 18.344 6.9708 18.2179C6.9708 18.0919 6.92073 17.971 6.8316 17.8819C6.74248 17.7927 6.6216 17.7427 6.49555 17.7427Z" fill="black"/>
<path d="M5.54506 23.1289H3.0104C2.88436 23.1289 2.76348 23.179 2.67435 23.2681C2.58523 23.3572 2.53516 23.4781 2.53516 23.6042C2.53516 23.7302 2.58523 23.8511 2.67435 23.9402C2.76348 24.0293 2.88436 24.0794 3.0104 24.0794H5.54506C5.6711 24.0794 5.79198 24.0293 5.88111 23.9402C5.97023 23.8511 6.02031 23.7302 6.02031 23.6042C6.02031 23.4781 5.97023 23.3572 5.88111 23.2681C5.79198 23.179 5.6711 23.1289 5.54506 23.1289Z" fill="black"/>
<path d="M22.442 16.3039C22.321 16.2719 22.1922 16.2888 22.0837 16.3511C21.9751 16.4134 21.8955 16.516 21.8622 16.6366L20.6899 20.9455C20.6697 21.0068 20.6622 21.0715 20.6678 21.1357C20.6734 21.1999 20.6921 21.2623 20.7226 21.3191C20.7531 21.3759 20.7948 21.4259 20.8452 21.4661C20.8957 21.5062 20.9538 21.5357 21.0159 21.5527C21.0781 21.5697 21.1431 21.5739 21.207 21.5649C21.2708 21.556 21.3322 21.5342 21.3873 21.5008C21.4425 21.4674 21.4903 21.4232 21.5278 21.3708C21.5653 21.3183 21.5918 21.2588 21.6055 21.1958L22.7746 16.8869C22.8077 16.7655 22.7912 16.6359 22.7288 16.5267C22.6665 16.4174 22.5633 16.3373 22.442 16.3039Z" fill="black"/>
<path d="M18.3228 16.3039C18.2018 16.2719 18.0731 16.2888 17.9645 16.3511C17.856 16.4134 17.7764 16.516 17.743 16.6366L16.5707 20.9455C16.5506 21.0068 16.5431 21.0715 16.5487 21.1357C16.5543 21.1999 16.5729 21.2623 16.6034 21.3191C16.6339 21.3759 16.6757 21.4259 16.7261 21.4661C16.7765 21.5062 16.8346 21.5357 16.8968 21.5527C16.959 21.5697 17.024 21.5739 17.0878 21.5649C17.1517 21.556 17.2131 21.5342 17.2682 21.5008C17.3234 21.4674 17.3711 21.4232 17.4087 21.3708C17.4462 21.3183 17.4726 21.2588 17.4864 21.1958L18.6555 16.8869C18.6885 16.7655 18.672 16.6359 18.6097 16.5267C18.5473 16.4174 18.4442 16.3373 18.3228 16.3039Z" fill="black"/>
<path d="M14.2037 16.3039C14.0827 16.2719 13.954 16.2888 13.8454 16.3511C13.7369 16.4134 13.6573 16.516 13.6239 16.6366L12.4516 20.9455C12.4314 21.0068 12.4239 21.0715 12.4295 21.1357C12.4352 21.1999 12.4538 21.2623 12.4843 21.3191C12.5148 21.3759 12.5565 21.4259 12.607 21.4661C12.6574 21.5062 12.7155 21.5357 12.7777 21.5527C12.8399 21.5697 12.9048 21.5739 12.9687 21.5649C13.0325 21.556 13.0939 21.5342 13.1491 21.5008C13.2042 21.4674 13.252 21.4232 13.2895 21.3708C13.327 21.3183 13.3535 21.2588 13.3672 21.1958L14.5364 16.8869C14.5694 16.7655 14.5529 16.6359 14.4905 16.5267C14.4282 16.4174 14.325 16.3373 14.2037 16.3039Z" fill="black"/>
</svg>
