<svg width="32" height="32" viewBox="0 0 32 32" fill="none" xmlns="http://www.w3.org/2000/svg">
<g id="Group 9">
<path id="Path" d="M12.5912 22.9994C12.2468 22.9932 11.9081 22.9067 11.6004 22.7463C11.2927 22.5859 11.0238 22.3559 10.8137 22.0731L8.29087 19.1161C8.18986 18.9988 8.11233 18.8619 8.0628 18.7134C8.01326 18.5648 7.9927 18.4075 8.0023 18.2507C8.0119 18.0938 8.05147 17.9405 8.11872 17.7996C8.18598 17.6587 8.27957 17.533 8.39408 17.4298C8.62377 17.2237 8.92309 17.1204 9.22627 17.1427C9.52947 17.1649 9.81172 17.3109 10.011 17.5486L12.3733 20.3156C12.3964 20.3499 12.4273 20.3776 12.4634 20.3963C12.4994 20.4149 12.5395 20.424 12.5798 20.4224C12.6188 20.4235 12.6576 20.4154 12.6933 20.399C12.729 20.3826 12.7607 20.3581 12.7862 20.3274L22.0864 10.3046C22.3016 10.1041 22.582 9.9954 22.8714 10.0001C23.1608 10.0049 23.4377 10.1228 23.6467 10.3302C23.8557 10.5375 23.9811 10.819 23.9981 11.1183C24.0149 11.4175 23.9219 11.7122 23.7378 11.9434L14.3343 22.1919C14.1199 22.4521 13.8522 22.6595 13.5507 22.7992C13.2492 22.9388 12.9214 23.0073 12.5912 22.9994Z" fill="#22B840"/>
</g>
</svg>
