<?xml version="1.0" encoding="utf-8"?>
<!-- Generator: Adobe Illustrator 23.0.2, SVG Export Plug-In . SVG Version: 6.00 Build 0)  -->
<svg version="1.1" id="Layer_1" xmlns="http://www.w3.org/2000/svg" xmlns:xlink="http://www.w3.org/1999/xlink" x="0px" y="0px"
	 viewBox="0 0 277.263 329.1758" enable-background="new 0 0 277.263 329.1758" xml:space="preserve">
<g>
	<path d="M277.263,51.4658c0-20.2578-16.4238-36.6796-36.6797-36.6796c-20.2578,0-36.6797,16.4218-36.6797,36.6796
		c0,20.2569,16.4219,36.6797,36.6797,36.6797C260.8392,88.1455,277.263,71.7227,277.263,51.4658z M211.1917,52.876
		c0-16.8828,13.6865-30.5664,30.5674-30.5664c16.8808,0,30.5683,13.6836,30.5683,30.5664c0,16.8809-13.6875,30.5664-30.5683,30.5664
		C224.8782,83.4424,211.1917,69.7569,211.1917,52.876z"/>
	<path d="M246.7776,70.459c0-3.9209,2.4473-8.1299,4.543-11.0205c3.3477-2.8799,5.4756-7.1367,5.4756-11.8984
		c0-8.6719-7.0303-15.7002-15.7012-15.7002c-8.6709,0-15.7002,7.0283-15.7002,15.7002c0,4.7617,2.1279,9.0185,5.4737,11.8984
		c2.0976,2.8906,4.5419,7.0996,4.5419,11.0205C235.4104,77.3174,246.7776,77.3174,246.7776,70.459z M233.4993,57.5283
		l-0.2226-0.3066l-0.2872-0.2461c-2.7626-2.375-4.3466-5.8144-4.3466-9.4355c0-6.8672,5.5859-12.4532,12.4521-12.4532
		c6.8652,0,12.4522,5.586,12.4522,12.4532c0,3.6211-1.586,7.0605-4.3477,9.4355l-0.2881,0.2461l-0.2236,0.3106
		c-1.1719,1.6191-2.1318,3.1904-2.9063,4.7158h-9.3711C235.6351,60.7202,234.6741,59.148,233.4993,57.5283z"/>
	<path d="M241.3265,40.1934c0.5527,0,1.0009-0.4483,1.0009-1.001c0-0.5503-0.4482-0.9985-1.0009-0.9985
		c-5.0752,0-9.1875,4.1142-9.1905,9.1894c0,0.5528,0.4483,1.001,1.003,1.001c0.5527,0,1.0009-0.4482,1.0009-1.001h-0.0019
		C234.1448,43.4116,237.3567,40.1997,241.3265,40.1934z"/>
	<path d="M230.2669,97.3037c0-5.1826-4.2012-9.3847-9.3828-9.3847c-5.1836,0-9.3858,4.2021-9.3858,9.3847
		c0,5.1827,4.2022,9.3848,9.3858,9.3848C226.0657,106.6885,230.2669,102.4864,230.2669,97.3037z M213.9349,98.5664
		c0-3.3877,2.747-6.1357,6.1367-6.1357c3.3877,0,6.1347,2.748,6.1347,6.1357c0,3.3897-2.747,6.1358-6.1347,6.1358
		C216.6819,104.7022,213.9349,101.9561,213.9349,98.5664z"/>
	<path d="M212.5306,106.8194c-2.9678-2.6621-7.5313-2.4161-10.1934,0.5507c-2.6631,2.9668-2.418,7.5313,0.5498,10.1934
		c2.9668,2.6631,7.5303,2.417,10.1953-0.5498C215.7444,114.0469,215.4974,109.4834,212.5306,106.8194z M210.1067,115.6504
		c-1.7402,1.9404-4.7246,2.1006-6.664,0.3604c-1.9414-1.7422-2.1016-4.7256-0.3594-6.666c1.7402-1.9395,4.7246-2.0997,6.6641-0.3594
		C211.6868,110.7256,211.8489,113.711,210.1067,115.6504z"/>
	<path d="M185.427,109.583c-1.7978,2.6875-1.0771,6.3223,1.6114,8.1192c2.6855,1.7969,6.3213,1.0752,8.1181-1.6114
		c1.7959-2.6865,1.0752-6.3212-1.6132-8.1181C190.8577,106.1758,187.2239,106.8975,185.427,109.583z M192.6126,115.3369
		c-1.1758,1.7579-3.5508,2.2286-5.3086,1.0547c-1.7568-1.1758-2.2285-3.5517-1.0527-5.3086
		c1.1738-1.7558,3.5507-2.2285,5.3086-1.0527C193.3147,111.2041,193.7864,113.5811,192.6126,115.3369z"/>
	<path d="M26.9534,111.044c-2.8164,12.0996,4.709,24.1933,16.8086,27.0097c12.0996,2.8184,24.1914-4.707,27.0107-16.8066
		c2.8174-12.1006-4.707-24.1914-16.8076-27.0078C41.8655,91.4209,29.7727,98.9463,26.9534,111.044z"/>
	<path d="M20.4944,152.689c1.6719-2.0855,4.0528-3.3955,6.708-3.6865c0.3721-0.042,0.7452-0.0625,1.1104-0.0625
		c5.0742,0,9.3398,3.8076,9.9219,8.8545l0.0039,0.0244l0.0117,0.0791c0.0195,0.1377,0.0566,0.3769,0.1191,0.7158
		c0.1817,1.0205,0.4395,2.2002,0.7481,3.4141c0.4433,1.7451,1.1386,4.1494,2.1719,7.0673c0.3359-1.6523,0.6611-3.2558,0.9589-4.7763
		c2.8692-9.9532-0.8847-21.8648-9.4199-23.9917c-8.5371-2.1289-20.9121,2.5078-25.9473,17.1499
		c-6.8046,20.1738-8.2675,33.3047-5.6816,55.5195c2.1123,10.8711,7.8301,15.1514,14.1416,16.752
		c2.5459,8.3877,5.7236,22.1933,5.7002,38.7578c-0.0019,13.2177-1.9766,28.1699-7.7637,43.7988
		c-2.3965,6.4736,0.9082,13.665,7.3809,16.0625c1.4316,0.5293,2.8984,0.7813,4.3408,0.7813c5.0801,0,9.8565-3.1182,11.7236-8.1622
		c6.9571-18.7832,9.3223-36.7753,9.3204-52.4804c-0.0313-25.0508-5.9141-44.3184-9.0918-52.9414
		c-0.4952-3.7032-0.6436-7.542-0.5674-11.4219c-16.2031-25.7578-18.0069-43.9053-18.0283-44.1524
		C18.0667,157.3843,18.8265,154.773,20.4944,152.689z"/>
	<path d="M42.0198,176.4116c-2.5722-5.9511-4.0312-10.707-4.8398-13.8916c-0.4043-1.5918-0.6455-2.7919-0.7813-3.5507
		c-0.0683-0.3799-0.1093-0.6485-0.1308-0.8018c-0.0118-0.0771-0.0176-0.125-0.0196-0.1435h-0.0009
		c-0.5049-4.3721-4.4463-7.5196-8.8252-7.0347c-4.3926,0.4839-7.5586,4.438-7.0723,8.8296v-0.002
		c0.1133,1.3233,4.29,34.9199,42.6836,74.834c1.5703,1.6338,3.668,2.4561,5.7685,2.457c1.9932,0,3.9903-0.7412,5.542-2.2304
		c3.1856-3.0625,3.2871-8.128,0.2266-11.3135C56.7444,205.0122,47.1663,188.3159,42.0198,176.4116z"/>
	<path d="M188.3558,185.2095c0.1337-0.082,0.2666-0.167,0.3974-0.2588c0.1104-0.0762,0.2178-0.1572,0.3252-0.2392
		c0.0586-0.0459,0.1211-0.085,0.1787-0.1329c0.0274-0.0214,0.0498-0.0468,0.0772-0.0693c0.0381-0.0312,0.0781-0.0586,0.1152-0.0908
		c0.0459-0.0391,0.0801-0.085,0.125-0.125c0.2129-0.1934,0.4131-0.3936,0.6016-0.6035c0.0664-0.0752,0.1367-0.1455,0.2002-0.2217
		c0.1826-0.2197,0.3525-0.4473,0.5088-0.6826c0.4726-0.6944,0.8242-1.4043,1.0361-2.0401c0.3984-1.1806,0.4726-2.1396,0.4775-2.9121
		c-0.0195-1.4922-0.2734-2.3916-0.5058-3.2178c-0.918-2.8759-2.252-5.1279-4.0069-8.0166
		c-2.6201-4.1962-6.1103-9.0019-9.7011-13.2431c-1.7998-2.1187-3.6123-4.0894-5.4424-5.8023
		c-1.3662-1.2407-2.6348-2.3584-4.2295-3.3466c-1.3399-1.1167-3.0635-1.7901-4.9444-1.7901h-1.8183
		c9.6142,10.9556,15.7783,17.4673,19.6055,21.2749l-0.1602,2.6455c-5.7324-5.5674-15.4082-16.0063-30.0156-33.063
		c-2.877-3.3525-7.9268-3.7431-11.2793-0.8662c-3.3555,2.876-3.7432,7.9268-0.8672,11.2793
		c13.0967,15.2818,22.2959,25.3775,28.6816,31.815c3.2041,3.2304,5.6826,5.5312,7.7784,7.2246
		c1.0634,0.8515,2.0156,1.5508,3.121,2.1972c0.4278,0.2452,0.878,0.4844,1.4161,0.7139c0.1699,0.0733,0.3476,0.1445,0.538,0.2158
		c0.794,0.2832,1.7784,0.6016,3.3125,0.6172c0.0411,0,0.0831,0,0.126,0c1.1338,0.002,2.7061-0.3154,4.1612-1.1513
		C188.2308,185.2847,188.2933,185.2466,188.3558,185.2095z"/>
	<path d="M137.514,144.9873c-0.6719-0.7822-1.2061-1.6494-1.6016-2.5703h-10.9785c-0.124,0-0.2451,0.0127-0.3672,0.0186
		c-1.8047,0.0244-4.8018,0.4145-8.2139,2.1347c-5.3789,2.6661-11.1767,8.5005-15.2343,18.8394
		c-4.1075,10.3799-6.8653,25.3857-6.8799,48.0439c0.0029,5.8555,0.1894,12.2217,0.5966,19.1592
		c0.25,4.251,3.7735,7.5322,7.9776,7.5322c0.1582,0,0.3174-0.0048,0.4775-0.0146c4.4112-0.2598,7.7764-4.0449,7.5196-8.4541
		c-0.3936-6.6514-0.5694-12.708-0.5694-18.2227c-0.0342-24.2148,3.4971-37.8183,6.9649-44.9179v44.4599l-16.541,103.8701
		c-1.0743,6.7461,3.5234,13.0801,10.2646,14.1543c6.7432,1.0743,13.0811-3.5195,14.1553-10.2656l14.7285-92.4883h6.7558v90.2715
		c0,6.8301,5.5381,12.3633,12.3633,12.3633c6.8282,0,12.3653-5.5332,12.3653-12.3633V181.7407
		c-1.4766-1.3457-3.1153-2.9277-5.003-4.83C159.3606,169.9204,149.677,159.1782,137.514,144.9873z"/>
	<path d="M138.5989,130.8907c1.8096-1.5538,4.1172-2.4102,6.503-2.4102c2.9248,0,5.6933,1.2734,7.5966,3.4893
		c0.6534,0.7631,1.2793,1.4907,1.9092,2.2226c7.2139-3.7475,12.1445-11.2822,12.1445-19.9736c0-12.4268-10.0722-22.5-22.5-22.5
		c-12.4257,0-22.5,10.0732-22.5,22.5c0,9.4062,5.7745,17.4599,13.9698,20.8213
		C136.302,133.4497,137.2767,132.0235,138.5989,130.8907z"/>
	<path d="M82.0628,68.752c2.9521,2.3222,2.1465,12.6865-12.8193,23.6074c2.7167,1.3145,28.2929-15.0303,31.3144-14.0947
		c1.377,0.4258,2.7822,0.8105,4.2129,1.1513c5.1484,1.2256,10.6289,1.8877,16.3144,1.8877c29.8243,0,54.001-18.2011,54.001-40.6523
		S150.9095,0,121.0852,0c-29.8232,0-54,18.2002-54,40.6514C67.0852,51.5528,72.7845,61.4522,82.0628,68.752z M119.8733,6.0674
		c26.3975,0,47.7979,15.6943,47.7979,35.0557c0,19.3613-21.4004,35.0566-47.7979,35.0566
		c-26.3984,0-47.7988-15.6953-47.7988-35.0566C72.0745,21.7617,93.4749,6.0674,119.8733,6.0674z"/>
</g>
</svg>
