<?xml version="1.0" encoding="UTF-8" standalone="no"?> <svg xmlns="http://www.w3.org/2000/svg" viewBox="0 0 512 512"><title>Speaking02</title><g id="Speaking_02" data-name="Speaking 02"><g id="Speaking_02-2" data-name="Speaking 02"><path d="M256,443.37C152.6862,443.37,68.63,359.3138,68.63,256S152.6862,68.63,256,68.63,443.37,152.6862,443.37,256,359.3137,443.37,256,443.37Zm0-356.2583C162.8784,87.1113,87.1112,162.8784,87.1112,256c0,93.126,75.7672,168.8887,168.8888,168.8887S424.8886,349.1216,424.8886,256C424.8886,162.874,349.1216,87.1113,256,87.1113Z"/><path d="M242.7568,337.3613H151.1392V283.0785a73.6494,73.6494,0,1,1,121.0254-73.45l.2667.9838.55,12.078,22.2279,31.17-19.5378,14.1883v10.8583a23.7419,23.7419,0,0,1-23.7151,23.7107h-9.1951v34.7442ZM169.6244,318.88H224.28v-34.74H251.952a5.2441,5.2441,0,0,0,5.2386-5.2342V258.6382l12.3358-8.9636L254.7626,228.977l-.7-15.4476a55.17,55.17,0,1,0-87.8407,58.18l3.3941,2.7755V318.88Z"/><path d="M315.7906,287.1221l-13.0662-13.0663a21.4128,21.4128,0,0,0,0-30.242l13.0706-13.0663A39.9135,39.9135,0,0,1,315.7906,287.1221Z"/><path d="M340.7342,306.8015l-13.0627-13.0662a49.28,49.28,0,0,0,0-69.5966l13.0627-13.0671A67.7709,67.7709,0,0,1,340.7342,306.8015Z"/><path d="M369.3941,325.2481l-13.0707-13.0619a75.4,75.4,0,0,0,.0044-106.494l13.0663-13.0672A93.8887,93.8887,0,0,1,369.3941,325.2481Z"/></g></g></svg>