<svg width="187" height="160" viewBox="0 0 187 160" fill="none" xmlns="http://www.w3.org/2000/svg">
<g id="Group">
<path id="Fill 390" fill-rule="evenodd" clip-rule="evenodd" d="M90.6318 91.2894C90.6318 91.2894 94.8696 96.2834 97.5212 95.9663C100.173 95.6493 102.537 92.9686 102.854 92.0752C103.171 91.1813 96.9578 88.3348 96.9578 88.3348L90.6318 91.2894Z" fill="#D8A7A8"/>
<path id="Fill 391" fill-rule="evenodd" clip-rule="evenodd" d="M106.597 91.2894C106.597 91.2894 102.359 96.2834 99.7073 95.9663C97.0552 95.6493 94.6916 92.9686 94.3745 92.0752C94.0575 91.1813 100.271 88.3348 100.271 88.3348L106.597 91.2894Z" fill="#D8A7A8"/>
<path id="Fill 392" fill-rule="evenodd" clip-rule="evenodd" d="M98.7779 95.904L98.4484 95.5023C99.9238 94.2918 101.164 92.9551 101.103 92.6417C100.726 92.2717 98.2275 91.0717 96.6424 90.3591L96.1616 90.1435L98.4744 88.8977L98.7212 89.3556L97.3336 90.1024C98.4453 90.6122 101.004 91.8138 101.481 92.2935C101.551 92.3632 101.632 92.4863 101.622 92.6802C101.578 93.5648 99.2451 95.521 98.7779 95.904Z" fill="black"/>
<path id="Fill 393" fill-rule="evenodd" clip-rule="evenodd" d="M52.4909 143.497L52.2856 147.965H58.0628L58.3965 143.497H52.4909Z" fill="#FFFFFE"/>
<path id="Fill 394" fill-rule="evenodd" clip-rule="evenodd" d="M75.6394 143.497L75.8447 147.965H70.0675L69.7339 143.497H75.6394Z" fill="#FFFFFE"/>
<path id="Fill 395" fill-rule="evenodd" clip-rule="evenodd" d="M51.2622 147.49H59.1312L58.7425 153.86C58.7617 155.558 60.4196 156.498 60.456 159.099C60.4627 159.592 60.0683 160 59.5751 160H52.4181C51.7694 160 51.2503 159.463 51.2788 158.814C51.3313 157.607 51.5127 155.648 52.1052 153.745L51.2622 147.49Z" fill="#F6BB05"/>
<path id="Fill 396" fill-rule="evenodd" clip-rule="evenodd" d="M50.873 114.6V145.962H59.3475L61.6535 114.6H50.873Z" fill="#22B840"/>
<g id="Fill 397">
<path fill-rule="evenodd" clip-rule="evenodd" d="M59.7944 145.962H50.3829L50.1235 143.685H60.126L59.7944 145.962Z" fill="#22B840"/>
<path fill-rule="evenodd" clip-rule="evenodd" d="M59.7944 145.962H50.3829L50.1235 143.685H60.126L59.7944 145.962Z" fill="black" fill-opacity="0.1"/>
</g>
<path id="Fill 399" fill-rule="evenodd" clip-rule="evenodd" d="M58.4951 156.757H59.0148V154.071H58.4951V156.757Z" fill="#CB8B31"/>
<path id="Fill 400" fill-rule="evenodd" clip-rule="evenodd" d="M58.9502 150.57C58.602 150.557 58.2678 150.37 57.8453 150.133C57.233 149.791 56.4711 149.365 55.321 149.276C53.4739 149.139 51.8249 150.495 51.8082 150.509L51.4751 150.11C51.5484 150.049 53.2988 148.601 55.3605 148.758C56.6255 148.855 57.4773 149.332 58.0989 149.68C58.4601 149.883 58.7459 150.042 58.9684 150.05L58.9502 150.57Z" fill="#CB8B31"/>
<path id="Fill 401" fill-rule="evenodd" clip-rule="evenodd" d="M76.8682 147.49H68.9986L69.3879 153.86C69.3682 155.558 67.7103 156.498 67.6744 159.099C67.6676 159.592 68.0616 160 68.5548 160H75.7118C76.3609 160 76.8801 159.463 76.8515 158.814C76.799 157.607 76.6177 155.648 76.0252 153.745L76.8682 147.49Z" fill="#F6BB05"/>
<path id="Fill 402" fill-rule="evenodd" clip-rule="evenodd" d="M77.2571 114.6V145.962H68.7821L66.4761 114.6H77.2571Z" fill="#22B840"/>
<g id="Fill 403">
<path fill-rule="evenodd" clip-rule="evenodd" d="M68.336 145.962H77.7475L78.0068 143.685H68.0044L68.336 145.962Z" fill="#22B840"/>
<path fill-rule="evenodd" clip-rule="evenodd" d="M68.336 145.962H77.7475L78.0068 143.685H68.0044L68.336 145.962Z" fill="black" fill-opacity="0.1"/>
</g>
<path id="Fill 405" fill-rule="evenodd" clip-rule="evenodd" d="M69.1152 156.757H69.6349V154.071H69.1152V156.757Z" fill="#CB8B31"/>
<path id="Fill 406" fill-rule="evenodd" clip-rule="evenodd" d="M69.1798 150.57L69.1616 150.05C69.3841 150.042 69.6699 149.883 70.0311 149.68C70.6527 149.332 71.5045 148.855 72.769 148.759C74.8291 148.596 76.5806 150.048 76.6549 150.11L76.3212 150.509C76.3046 150.495 74.6483 149.131 72.809 149.277C71.6589 149.365 70.897 149.791 70.2847 150.133C69.8622 150.37 69.528 150.557 69.1798 150.57Z" fill="#CB8B31"/>
<path id="Fill 407" fill-rule="evenodd" clip-rule="evenodd" d="M77.9071 41.5277L64.6227 36.7952V35.907L63.4471 36.3508L62.2715 35.907V36.7952L49.0915 41.5277C46.7689 69.0851 45.2711 94.8058 45.4249 116.849H81.4687C81.5955 93.084 80.2801 67.8466 77.9071 41.5277Z" fill="#F6BB05"/>
<path id="Fill 408" fill-rule="evenodd" clip-rule="evenodd" d="M45.5137 115.565H62.8316V115.045H45.5137V115.565Z" fill="#CB8B31"/>
<path id="Fill 409" fill-rule="evenodd" clip-rule="evenodd" d="M62.1528 115.565H81.3802V115.045H62.1528V115.565Z" fill="#CB8B31"/>
<path id="Fill 410" fill-rule="evenodd" clip-rule="evenodd" d="M78.0564 46.3896L97.3909 88.102L89.1378 92.5352L65.7974 54.2982L78.0564 46.3896Z" fill="#F7C129"/>
<path id="Fill 411" fill-rule="evenodd" clip-rule="evenodd" d="M97.3686 86.9477L88.0475 91.9256L86.3662 88.7771L95.6873 83.7998L97.3686 86.9477Z" fill="#F7C129"/>
<path id="Fill 412" fill-rule="evenodd" clip-rule="evenodd" d="M87.0754 88.6935L86.8306 88.2351L95.3321 83.6943L95.5769 84.1532L87.0754 88.6935Z" fill="#CB8B31"/>
<path id="Fill 413" fill-rule="evenodd" clip-rule="evenodd" d="M88.7629 91.8383L88.5181 91.3794L96.8356 86.9379L97.0804 87.3968L88.7629 91.8383Z" fill="#CB8B31"/>
<path id="Fill 414" fill-rule="evenodd" clip-rule="evenodd" d="M89.0108 89.0427C88.8201 89.0427 88.6652 89.1975 88.6652 89.3878C88.6652 89.579 88.8201 89.7334 89.0108 89.7334C89.2016 89.7334 89.3559 89.579 89.3559 89.3878C89.3559 89.1975 89.2016 89.0427 89.0108 89.0427ZM89.0108 90.2531C88.5337 90.2531 88.1455 89.8649 88.1455 89.3878C88.1455 88.9107 88.5337 88.5229 89.0108 88.5229C89.4879 88.5229 89.8756 88.9107 89.8756 89.3878C89.8756 89.8649 89.4879 90.2531 89.0108 90.2531Z" fill="#CB8B31"/>
<path id="Fill 415" fill-rule="evenodd" clip-rule="evenodd" d="M80.2814 78.4654L79.7212 67.3274L80.2399 67.3009L80.8001 78.4389L80.2814 78.4654Z" fill="#CB8B31"/>
<path id="Fill 416" fill-rule="evenodd" clip-rule="evenodd" d="M48.3075 44.3981C48.3075 44.3981 31.5976 72.8832 39.6397 77.4515C48.6334 81.948 59.2797 60.0774 59.2797 60.0774L48.3075 44.3981Z" fill="#F7C129"/>
<path id="Fill 417" fill-rule="evenodd" clip-rule="evenodd" d="M46.84 76.6033L46.3213 76.5648L47.0338 66.8628L47.5525 66.9013L46.84 76.6033Z" fill="#CB8B31"/>
<path id="Fill 418" fill-rule="evenodd" clip-rule="evenodd" d="M102.007 28.8503C89.3495 23.1813 78.2551 12.182 78.2551 12.182C73.3183 11.4139 68.3821 11.0298 63.4458 11.0298C58.509 11.0298 53.5728 11.4139 48.636 12.182C48.5518 11.9861 37.3966 22.8445 24.884 28.8503C27.6951 36.407 27.2159 45.4615 24.0254 55.7508C35.7497 58.5625 43.1629 64.9622 47.9209 73.5713C53.0957 71.493 58.2705 70.4541 63.4458 70.4541C68.6206 70.4541 73.7954 71.493 78.9702 73.5713C83.7282 64.9622 91.1415 58.5625 102.866 55.7508C99.6752 45.4615 99.196 36.407 102.007 28.8503Z" fill="#000937"/>
<path id="Fill 419" fill-rule="evenodd" clip-rule="evenodd" d="M63.2127 29.3934C58.0566 18.8265 54.8364 12.8295 48.6206 12.4413L48.6528 11.9226C55.4736 12.3483 58.9157 19.4024 63.6794 29.1647L63.2127 29.3934Z" fill="#3D4673"/>
<path id="Fill 420" fill-rule="evenodd" clip-rule="evenodd" d="M63.3741 29.529C60.9398 28.8294 58.6774 28.0613 56.4894 27.3197C46.3586 23.8807 38.356 21.1673 25.0165 29.0737L24.752 28.6267C38.2973 20.5977 46.3986 23.347 56.6563 26.827C58.8385 27.5676 61.0946 28.3331 63.5175 29.0295L63.3741 29.529Z" fill="#3D4673"/>
<path id="Fill 421" fill-rule="evenodd" clip-rule="evenodd" d="M24.2459 55.8879L23.8052 55.613C31.9418 42.603 45.257 33.6581 63.3815 29.0275L63.5104 29.5306C45.5194 34.1274 32.3093 42.9953 24.2459 55.8879Z" fill="#3D4673"/>
<path id="Fill 422" fill-rule="evenodd" clip-rule="evenodd" d="M48.1742 73.6289L47.668 73.5131C54.0329 45.6714 58.939 32.1161 63.5754 29.5602L63.8259 30.0149C59.3917 32.4597 54.4186 46.3184 48.1742 73.6289Z" fill="#3D4673"/>
<path id="Fill 423" fill-rule="evenodd" clip-rule="evenodd" d="M63.6791 29.3934L63.2124 29.1647C67.9761 19.4024 71.4182 12.3483 78.2389 11.9226L78.2712 12.4413C72.0548 12.8295 68.8352 18.8265 63.6791 29.3934Z" fill="#3D4673"/>
<path id="Fill 424" fill-rule="evenodd" clip-rule="evenodd" d="M63.5175 29.529L63.374 29.0296C65.7964 28.3332 68.0525 27.5676 70.2343 26.827C80.4919 23.3465 88.5943 20.5977 102.14 28.6268L101.875 29.0738C88.5345 21.1673 80.533 23.8813 70.4016 27.3197C68.2141 28.0614 65.9518 28.8295 63.5175 29.529Z" fill="#3D4673"/>
<path id="Fill 425" fill-rule="evenodd" clip-rule="evenodd" d="M102.645 55.8879C94.5825 42.9959 81.3723 34.1274 63.3813 29.5306L63.5102 29.0275C81.6348 33.6581 94.9499 42.603 103.086 55.613L102.645 55.8879Z" fill="#3D4673"/>
<path id="Fill 426" fill-rule="evenodd" clip-rule="evenodd" d="M78.7172 73.6289C72.4733 46.3184 67.4996 32.4597 63.0654 30.0149L63.3165 29.5602C67.9523 32.1161 72.8584 45.6719 79.2234 73.5131L78.7172 73.6289Z" fill="#3D4673"/>
<path id="Fill 427" fill-rule="evenodd" clip-rule="evenodd" d="M65.3017 29.4095C65.3017 29.8586 64.4707 30.2224 63.4458 30.2224C62.4204 30.2224 61.5894 29.8586 61.5894 29.4095C61.5894 28.9605 62.4204 28.5962 63.4458 28.5962C64.4707 28.5962 65.3017 28.9605 65.3017 29.4095Z" fill="#3D4673"/>
<path id="Fill 429" fill-rule="evenodd" clip-rule="evenodd" d="M143.2 116.126L141.292 147.91H134.519L132.782 116.126H143.2Z" fill="#1396E5"/>
<path id="Fill 430" fill-rule="evenodd" clip-rule="evenodd" d="M119.582 116.126L121.58 147.91H128.244L130 116.126H119.582Z" fill="#1396E5"/>
<path id="Fill 431" fill-rule="evenodd" clip-rule="evenodd" d="M117.811 45.5097L129.913 40.9367V40.0776L131.049 40.5069L132.186 40.0776V40.9367L144.287 45.5097C146.681 75.0477 148.426 102.472 148.465 124.333L131.982 126.757L131.148 121.028L130.494 126.757L113.633 124.333C113.571 103.955 115.436 75.7681 117.811 45.5097Z" fill="#F6BB05"/>
<path id="Fill 432" fill-rule="evenodd" clip-rule="evenodd" d="M141.689 146.024H134.084L134.461 154.066C134.441 155.707 132.84 156.616 132.805 159.129C132.798 159.606 133.179 160 133.656 160H140.572C141.199 160 141.701 159.481 141.673 158.854C141.622 157.688 141.447 155.794 140.874 153.955L141.689 146.024Z" fill="#F6BB05"/>
<path id="Fill 433" fill-rule="evenodd" clip-rule="evenodd" d="M134.189 156.866H134.709V154.27H134.189V156.866Z" fill="#CB8B31"/>
<path id="Fill 434" fill-rule="evenodd" clip-rule="evenodd" d="M121.092 146.024H128.697L128.321 154.066C128.34 155.707 129.942 156.616 129.977 159.129C129.984 159.606 129.603 160 129.126 160H122.21C121.582 160 121.081 159.481 121.108 158.854C121.159 157.688 121.334 155.794 121.907 153.955L121.092 146.024Z" fill="#F6BB05"/>
<path id="Fill 435" fill-rule="evenodd" clip-rule="evenodd" d="M128.073 156.866H128.593V154.27H128.073V156.866Z" fill="#CB8B31"/>
<path id="Fill 436" fill-rule="evenodd" clip-rule="evenodd" d="M117.948 46.2909L98.5977 88.0396L106.857 92.477L129.468 56.2762L117.948 46.2909Z" fill="#F7C129"/>
<path id="Fill 437" fill-rule="evenodd" clip-rule="evenodd" d="M106.379 88.9809C106.188 88.9809 106.033 89.1363 106.033 89.327C106.033 89.5178 106.188 89.6726 106.379 89.6726C106.57 89.6726 106.725 89.5178 106.725 89.327C106.725 89.1363 106.57 88.9809 106.379 88.9809ZM106.379 90.1924C105.902 90.1924 105.514 89.8041 105.514 89.327C105.514 88.8494 105.902 88.4612 106.379 88.4612C106.857 88.4612 107.245 88.8494 107.245 89.327C107.245 89.8041 106.857 90.1924 106.379 90.1924Z" fill="#CB8B31"/>
<path id="Fill 438" fill-rule="evenodd" clip-rule="evenodd" d="M115.66 78.8235L115.144 78.7721L116 70.2716L116.516 70.3236L115.66 78.8235Z" fill="#CB8B31"/>
<path id="Fill 439" fill-rule="evenodd" clip-rule="evenodd" d="M144.79 44.3981C144.79 44.3981 161.5 72.8832 153.457 77.4515C144.464 81.948 133.817 60.0774 133.817 60.0774L144.79 44.3981Z" fill="#F7C129"/>
<path id="Fill 440" fill-rule="evenodd" clip-rule="evenodd" d="M146.324 76.6344L145.895 61.7441L146.415 61.729L146.844 76.6194L146.324 76.6344Z" fill="#CB8B31"/>
<path id="Fill 441" fill-rule="evenodd" clip-rule="evenodd" d="M172.082 31.2742C158.66 25.9123 146.896 15.5092 146.896 15.5092C141.661 14.7826 136.427 14.4193 131.192 14.4193C125.958 14.4193 120.723 14.7826 115.489 15.5092C115.399 15.3241 103.57 25.5937 90.3021 31.2742C93.2827 38.4213 92.7749 46.9852 89.3921 56.7164C101.824 59.3763 109.685 65.4289 114.73 73.5713C120.217 71.6057 125.705 70.6229 131.192 70.6229C136.68 70.6229 142.167 71.6057 147.655 73.5713C152.7 65.4289 160.56 59.3763 172.993 56.7164C169.61 46.9852 169.102 38.4213 172.082 31.2742Z" fill="#FF3234"/>
<path id="Fill 442" fill-rule="evenodd" clip-rule="evenodd" d="M130.965 31.8044C125.496 21.8092 122.081 16.1365 115.475 15.7686L115.503 15.2499C122.72 15.6511 126.369 22.3222 131.421 31.5549L130.965 31.8044Z" fill="#D2292B"/>
<path id="Fill 443" fill-rule="evenodd" clip-rule="evenodd" d="M131.128 31.9317C128.548 31.2701 126.149 30.5446 123.83 29.842C113.077 26.588 104.585 24.0165 90.4239 31.504L90.1812 31.0446C104.531 23.4578 113.114 26.0558 123.98 29.3446C126.295 30.0452 128.687 30.7691 131.257 31.4281L131.128 31.9317Z" fill="#D2292B"/>
<path id="Fill 444" fill-rule="evenodd" clip-rule="evenodd" d="M89.6048 56.8656L89.1797 56.5672C97.8059 44.263 111.922 35.8046 131.135 31.4265L131.251 31.9332C112.167 36.2817 98.1557 44.6699 89.6048 56.8656Z" fill="#D2292B"/>
<path id="Fill 445" fill-rule="evenodd" clip-rule="evenodd" d="M114.982 73.6357L114.479 73.5068C121.23 47.1681 126.433 34.3447 131.348 31.928L131.578 32.3936C125.468 35.3986 119.499 56.0126 114.982 73.6357Z" fill="#D2292B"/>
<path id="Fill 446" fill-rule="evenodd" clip-rule="evenodd" d="M131.421 31.8044L130.965 31.5549C136.015 22.3222 139.664 15.6511 146.882 15.2499L146.911 15.7686C140.304 16.1365 136.888 21.8092 131.421 31.8044Z" fill="#D2292B"/>
<path id="Fill 447" fill-rule="evenodd" clip-rule="evenodd" d="M131.257 31.9317L131.128 31.4281C133.698 30.7691 136.09 30.0451 138.404 29.3446C149.271 26.0563 157.855 23.4583 172.204 31.0446L171.961 31.504C157.8 24.017 149.307 26.5875 138.554 29.8425C136.236 30.5446 133.837 31.2701 131.257 31.9317Z" fill="#D2292B"/>
<path id="Fill 448" fill-rule="evenodd" clip-rule="evenodd" d="M172.78 56.8656C164.229 44.6704 150.218 36.2822 131.135 31.9332L131.251 31.4265C150.463 35.8046 164.579 44.263 173.205 56.5672L172.78 56.8656Z" fill="#D2292B"/>
<path id="Fill 449" fill-rule="evenodd" clip-rule="evenodd" d="M147.403 73.6357C142.885 56.0126 136.917 35.3986 130.807 32.3936L131.037 31.928C135.953 34.3447 141.155 47.1686 147.906 73.5068L147.403 73.6357Z" fill="#D2292B"/>
<path id="Fill 450" fill-rule="evenodd" clip-rule="evenodd" d="M133.161 31.8028C133.161 32.228 132.28 32.572 131.192 32.572C130.105 32.572 129.224 32.228 129.224 31.8028C129.224 31.3782 130.105 31.0342 131.192 31.0342C132.28 31.0342 133.161 31.3782 133.161 31.8028Z" fill="#D2292B"/>
<path id="Fill 454" fill-rule="evenodd" clip-rule="evenodd" d="M3.34959 87.4627C3.34907 87.3629 3.51279 87.3557 3.51279 87.4627L3.69105 101.314C3.69417 101.654 3.16873 101.662 3.17133 101.314L3.34959 87.4627Z" fill="#CCD8E5"/>
<path id="Fill 456" fill-rule="evenodd" clip-rule="evenodd" d="M10.9956 22.331L11.1739 8.47952C11.1734 8.37921 11.3376 8.37246 11.3371 8.47952L11.5153 22.331C11.5184 22.6709 10.993 22.6787 10.9956 22.331Z" fill="#CCD8E5"/>
<path id="Fill 459" fill-rule="evenodd" clip-rule="evenodd" d="M55.7612 13.9291L55.9395 0.0775915C55.9395 -0.0221939 56.1032 -0.0294699 56.1027 0.0775915L56.281 13.9291C56.2841 14.2689 55.7592 14.2767 55.7612 13.9291Z" fill="#CCD8E5"/>
<path id="Fill 460" fill-rule="evenodd" clip-rule="evenodd" d="M34.0332 15.3343L34.2115 1.48286C34.2115 1.38308 34.3752 1.3758 34.3747 1.48286L34.5529 15.3343C34.556 15.6742 34.0311 15.682 34.0332 15.3343Z" fill="#CCD8E5"/>
<path id="Fill 461" fill-rule="evenodd" clip-rule="evenodd" d="M174.389 55.5153L174.567 41.6638C174.567 41.5635 174.731 41.5568 174.73 41.6638L174.908 55.5153C174.912 55.8552 174.387 55.863 174.389 55.5153Z" fill="#CCD8E5"/>
<path id="Fill 462" fill-rule="evenodd" clip-rule="evenodd" d="M185.618 147.603L185.796 133.751C185.796 133.651 185.96 133.644 185.959 133.751L186.137 147.603C186.141 147.942 185.615 147.95 185.618 147.603Z" fill="#CCD8E5"/>
<path id="Fill 463" fill-rule="evenodd" clip-rule="evenodd" d="M175.743 153.766L175.921 139.915C175.92 139.815 176.085 139.807 176.084 139.915L176.262 153.766C176.265 154.106 175.74 154.114 175.743 153.766Z" fill="#CCD8E5"/>
<path id="Fill 464" fill-rule="evenodd" clip-rule="evenodd" d="M126.205 132.031L126.383 118.18C126.383 118.08 126.547 118.072 126.546 118.18L126.725 132.031C126.727 132.371 126.202 132.379 126.205 132.031Z" fill="#CCD8E5"/>
<path id="Fill 465" fill-rule="evenodd" clip-rule="evenodd" d="M164.69 122.558L164.868 108.707C164.868 108.606 165.032 108.599 165.031 108.707L165.21 122.558C165.213 122.898 164.687 122.905 164.69 122.558Z" fill="#CCD8E5"/>
<path id="Fill 467" fill-rule="evenodd" clip-rule="evenodd" d="M167.766 132.735L167.944 118.883C167.944 118.783 168.108 118.776 168.108 118.883L168.286 132.735C168.289 133.075 167.764 133.082 167.766 132.735Z" fill="#CCD8E5"/>
<path id="Fill 474" fill-rule="evenodd" clip-rule="evenodd" d="M44.374 18.1187L44.5523 4.26724C44.5523 4.16693 44.716 4.16017 44.7155 4.26724L44.8937 18.1187C44.8969 18.4586 44.372 18.4664 44.374 18.1187Z" fill="#CCD8E5"/>
<path id="Fill 475" fill-rule="evenodd" clip-rule="evenodd" d="M30.9736 39.2161L31.1519 25.3646C31.1519 25.2643 31.3156 25.257 31.3151 25.3646L31.4934 39.2161C31.4965 39.5554 30.9716 39.5632 30.9736 39.2161Z" fill="#CCD8E5"/>
<path id="Fill 477" fill-rule="evenodd" clip-rule="evenodd" d="M14.6929 73.5494L14.8711 59.698C14.8711 59.5977 15.0349 59.5904 15.0343 59.698L15.2126 73.5494C15.2157 73.8893 14.6908 73.8966 14.6929 73.5494Z" fill="#CCD8E5"/>
<path id="Fill 478" fill-rule="evenodd" clip-rule="evenodd" d="M5.78077 29.2568L5.95903 15.4053C5.95851 15.305 6.12274 15.2982 6.12222 15.4053L6.30049 29.2568C6.30361 29.5967 5.77817 29.6044 5.78077 29.2568Z" fill="#CCD8E5"/>
<path id="Fill 479" fill-rule="evenodd" clip-rule="evenodd" d="M37.6333 63.6571L37.8116 49.8057C37.8116 49.7054 37.9753 49.6986 37.9748 49.8057L38.153 63.6571C38.1561 63.997 37.6307 64.0048 37.6333 63.6571Z" fill="#CCD8E5"/>
<path id="Fill 480" fill-rule="evenodd" clip-rule="evenodd" d="M47.2861 55.0138L47.4644 41.1623C47.4644 41.062 47.6281 41.0548 47.6276 41.1623L47.8059 55.0138C47.809 55.3537 47.2841 55.361 47.2861 55.0138Z" fill="#CCD8E5"/>
<path id="Fill 481" fill-rule="evenodd" clip-rule="evenodd" d="M180.181 39.5591L180.359 25.7076C180.359 25.6073 180.523 25.6 180.523 25.7076L180.701 39.5591C180.704 39.8985 180.179 39.9063 180.181 39.5591Z" fill="#CCD8E5"/>
<path id="Fill 487" fill-rule="evenodd" clip-rule="evenodd" d="M86.5723 129.484L86.7505 115.632C86.7505 115.532 86.9142 115.525 86.9137 115.632L87.092 129.484C87.0951 129.823 86.5702 129.831 86.5723 129.484Z" fill="#CCD8E5"/>
<path id="Fill 488" fill-rule="evenodd" clip-rule="evenodd" d="M74.1563 89.0843L74.3345 75.2329C74.3345 75.1331 74.4982 75.1258 74.4977 75.2329L74.676 89.0843C74.6791 89.4242 74.1542 89.432 74.1563 89.0843Z" fill="#CCD8E5"/>
<path id="Fill 489" fill-rule="evenodd" clip-rule="evenodd" d="M74.1563 116.169L74.3345 102.317C74.3345 102.217 74.4982 102.21 74.4977 102.317L74.676 116.169C74.6791 116.509 74.1542 116.516 74.1563 116.169Z" fill="#CCD8E5"/>
<path id="Fill 490" fill-rule="evenodd" clip-rule="evenodd" d="M66.0415 99.0545L66.2198 85.203C66.2193 85.1027 66.3835 85.096 66.383 85.203L66.5612 99.0545C66.5643 99.3944 66.0389 99.4022 66.0415 99.0545Z" fill="#CCD8E5"/>
<path id="Fill 491" fill-rule="evenodd" clip-rule="evenodd" d="M53.9126 109.087L54.0909 95.2357C54.0909 95.1354 54.2546 95.1281 54.2541 95.2357L54.4323 109.087C54.4354 109.427 53.9105 109.434 53.9126 109.087Z" fill="#CCD8E5"/>
<path id="Fill 493" fill-rule="evenodd" clip-rule="evenodd" d="M178.903 15.3206L179.081 1.46909C179.081 1.36879 179.244 1.36151 179.244 1.46909L179.423 15.3206C179.425 15.6604 178.9 15.6677 178.903 15.3206Z" fill="#CCD8E5"/>
<path id="Fill 496" fill-rule="evenodd" clip-rule="evenodd" d="M163.895 49.8057L164.074 35.9542C164.073 35.8539 164.237 35.8472 164.236 35.9542L164.415 49.8057C164.418 50.1456 163.893 50.1534 163.895 49.8057Z" fill="#CCD8E5"/>
<path id="Fill 509" fill-rule="evenodd" clip-rule="evenodd" d="M60.081 19.6399C60.0805 19.5396 60.2442 19.5329 60.2442 19.6399L60.4225 33.4914C60.4256 33.8313 59.9002 33.8391 59.9028 33.4914L60.081 19.6399Z" fill="#CCD8E5"/>
<path id="Fill 512" fill-rule="evenodd" clip-rule="evenodd" d="M146.826 51.9917L147.004 38.1402C147.004 38.0404 147.168 38.0332 147.167 38.1402L147.345 51.9917C147.349 52.3316 146.824 52.3394 146.826 51.9917Z" fill="#CCD8E5"/>
<path id="Fill 513" fill-rule="evenodd" clip-rule="evenodd" d="M142.067 31.3793L142.246 17.5273C142.245 17.4275 142.409 17.4202 142.408 17.5273L142.587 31.3793C142.59 31.7187 142.065 31.7264 142.067 31.3793Z" fill="#CCD8E5"/>
<path id="Fill 514" fill-rule="evenodd" clip-rule="evenodd" d="M88.6499 30.8542L88.8287 17.0028C88.8282 16.9025 88.9919 16.8952 88.9914 17.0028L89.1696 30.8542C89.1727 31.1941 88.6478 31.2014 88.6499 30.8542Z" fill="#CCD8E5"/>
<path id="Fill 515" fill-rule="evenodd" clip-rule="evenodd" d="M94.272 43.7385L94.4508 29.8871C94.4502 29.7868 94.614 29.7795 94.6134 29.8871L94.7917 43.7385C94.7953 44.0784 94.2699 44.0857 94.272 43.7385Z" fill="#CCD8E5"/>
<path id="Fill 516" fill-rule="evenodd" clip-rule="evenodd" d="M86.5723 63.6571L86.7505 49.8057C86.7505 49.7054 86.9142 49.6986 86.9137 49.8057L87.092 63.6571C87.0951 63.997 86.5702 64.0048 86.5723 63.6571Z" fill="#CCD8E5"/>
<path id="Fill 517" fill-rule="evenodd" clip-rule="evenodd" d="M124.047 29.2567L124.226 15.4052C124.225 15.3054 124.389 15.2982 124.389 15.4052L124.567 29.2567C124.57 29.5966 124.045 29.6044 124.047 29.2567Z" fill="#CCD8E5"/>
<path id="Fill 518" fill-rule="evenodd" clip-rule="evenodd" d="M120.219 42.88L120.398 29.0286C120.397 28.9283 120.561 28.9215 120.56 29.0286L120.739 42.88C120.742 43.2199 120.217 43.2277 120.219 42.88Z" fill="#CCD8E5"/>
<path id="Fill 520" fill-rule="evenodd" clip-rule="evenodd" d="M77.0874 19.9323L77.2657 6.08083C77.2657 5.98053 77.4294 5.97377 77.4289 6.08083L77.6071 19.9323C77.6102 20.2722 77.0853 20.28 77.0874 19.9323Z" fill="#CCD8E5"/>
<path id="Fill 524" fill-rule="evenodd" clip-rule="evenodd" d="M157.711 16.0692L157.89 2.21824C157.89 2.11793 158.053 2.11066 158.053 2.21824L158.231 16.0692C158.234 16.4091 157.709 16.4169 157.711 16.0692Z" fill="#CCD8E5"/>
<path id="Fill 531" fill-rule="evenodd" clip-rule="evenodd" d="M137.733 16.0692L137.912 2.21824C137.911 2.11793 138.075 2.11066 138.074 2.21824L138.253 16.0692C138.256 16.4096 137.731 16.4169 137.733 16.0692Z" fill="#CCD8E5"/>
<path id="Fill 532" fill-rule="evenodd" clip-rule="evenodd" d="M20.5879 43.1081L20.7667 29.2567C20.7662 29.1569 20.9299 29.1496 20.9293 29.2567L21.1076 43.1081C21.1107 43.448 20.5858 43.4558 20.5879 43.1081Z" fill="#CCD8E5"/>
<path id="Fill 533" fill-rule="evenodd" clip-rule="evenodd" d="M29.6968 105.142L29.875 91.2905C29.875 91.1902 30.0388 91.1829 30.0382 91.2905L30.2165 105.142C30.2196 105.482 29.6942 105.489 29.6968 105.142Z" fill="#CCD8E5"/>
<path id="Fill 534" fill-rule="evenodd" clip-rule="evenodd" d="M37.6333 84.0586L37.8116 70.2071C37.8116 70.1068 37.9753 70.1 37.9748 70.2076C37.9748 70.2071 38.153 84.0586 38.153 84.0586C38.1561 84.3985 37.6307 84.4063 37.6333 84.0586Z" fill="#CCD8E5"/>
<path id="Fill 549" fill-rule="evenodd" clip-rule="evenodd" d="M146.826 23.3449L147.004 9.49349C147.004 9.3937 147.168 9.38642 147.167 9.49349L147.345 23.3449C147.349 23.6848 146.824 23.6926 146.826 23.3449Z" fill="#CCD8E5"/>
<path id="Fill 550" fill-rule="evenodd" clip-rule="evenodd" d="M169.404 19.6399C169.404 19.5396 169.568 19.5329 169.567 19.6399L169.745 33.4914C169.748 33.8313 169.223 33.8391 169.226 33.4914L169.404 19.6399Z" fill="#CCD8E5"/>
<path id="Fill 557" fill-rule="evenodd" clip-rule="evenodd" d="M57.3735 59.367L57.5518 45.5155C57.5518 45.4152 57.7155 45.4085 57.715 45.5155L57.8933 59.367C57.8964 59.7069 57.3709 59.7142 57.3735 59.367Z" fill="#CCD8E5"/>
<path id="Fill 558" fill-rule="evenodd" clip-rule="evenodd" d="M67.4331 72.3162L67.6114 58.4647C67.6114 58.3644 67.7751 58.3577 67.7746 58.4647L67.9528 72.3162C67.9559 72.6561 67.431 72.6639 67.4331 72.3162Z" fill="#CCD8E5"/>
<path id="Fill 559" fill-rule="evenodd" clip-rule="evenodd" d="M133.558 59.7822L133.736 45.9307C133.735 45.831 133.899 45.8237 133.899 45.9307L134.077 59.7822C134.08 60.1221 133.555 60.1299 133.558 59.7822Z" fill="#CCD8E5"/>
<path id="Fill 560" fill-rule="evenodd" clip-rule="evenodd" d="M59.0723 144.93L59.2505 131.078C59.2505 130.978 59.4142 130.971 59.4137 131.078L59.592 144.93C59.5951 145.27 59.0702 145.277 59.0723 144.93Z" fill="#CCD8E5"/>
<path id="Fill 561" fill-rule="evenodd" clip-rule="evenodd" d="M34.7608 138.004L34.939 124.153C34.9385 124.052 35.1022 124.045 35.1022 124.153L35.2805 138.004C35.2836 138.344 34.7582 138.351 34.7608 138.004Z" fill="#CCD8E5"/>
<path id="Fill 562" fill-rule="evenodd" clip-rule="evenodd" d="M17.7979 148.944L17.9761 135.092C17.9761 134.992 18.1398 134.985 18.1393 135.092L18.3176 148.944C18.3207 149.283 17.7958 149.291 17.7979 148.944Z" fill="#CCD8E5"/>
<path id="Fill 563" fill-rule="evenodd" clip-rule="evenodd" d="M117.334 1.79495C117.333 1.69464 117.497 1.68788 117.497 1.79495L117.675 15.6464C117.679 15.9863 117.153 15.9941 117.156 15.6464L117.334 1.79495Z" fill="#CCD8E5"/>
<path id="Fill 569" fill-rule="evenodd" clip-rule="evenodd" d="M104.919 31.3793L105.098 17.5273C105.098 17.4275 105.261 17.4202 105.261 17.5273L105.439 31.3793C105.442 31.7187 104.917 31.7264 104.919 31.3793Z" fill="#CCD8E5"/>
<path id="Fill 570" fill-rule="evenodd" clip-rule="evenodd" d="M106.558 52.5155L106.736 38.664C106.736 38.5637 106.899 38.5565 106.899 38.664L107.077 52.5155C107.08 52.8554 106.555 52.8632 106.558 52.5155Z" fill="#CCD8E5"/>
<path id="Fill 572" fill-rule="evenodd" clip-rule="evenodd" d="M78.1274 40.417L78.3057 26.5656C78.3057 26.4653 78.4694 26.4585 78.4689 26.5656L78.6472 40.417C78.6503 40.7569 78.1254 40.7647 78.1274 40.417Z" fill="#CCD8E5"/>
<path id="Fill 574" fill-rule="evenodd" clip-rule="evenodd" d="M6.1586e-06 16.4192L0.178269 2.56777C0.178269 2.46747 0.341979 2.46071 0.341459 2.56777L0.519722 16.4192C0.52284 16.7591 -0.0020727 16.7669 6.1586e-06 16.4192Z" fill="#CCD8E5"/>
<path id="Fill 575" fill-rule="evenodd" clip-rule="evenodd" d="M16.0254 125.106L16.2037 111.254C16.2031 111.154 16.3674 111.147 16.3663 111.254L16.5451 125.106C16.5482 125.445 16.0228 125.453 16.0254 125.106Z" fill="#CCD8E5"/>
<path id="Fill 599" fill-rule="evenodd" clip-rule="evenodd" d="M185.618 90.5182L185.796 76.6667C185.796 76.5664 185.96 76.5591 185.959 76.6667L186.137 90.5182C186.141 90.8581 185.615 90.8659 185.618 90.5182Z" fill="#CCD8E5"/>
<path id="Fill 601" fill-rule="evenodd" clip-rule="evenodd" d="M83.958 94.7783L84.1363 80.9269C84.1363 80.8266 84.3 80.8193 84.2995 80.9269L84.4777 94.7783C84.4808 95.1182 83.9559 95.1255 83.958 94.7783Z" fill="#CCD8E5"/>
<path id="Fill 602" fill-rule="evenodd" clip-rule="evenodd" d="M42.6983 96.0101L42.8765 82.1586C42.876 82.0583 43.0402 82.0515 43.0397 82.1586L43.218 96.0101C43.2211 96.3499 42.6957 96.3577 42.6983 96.0101Z" fill="#CCD8E5"/>
<path id="Fill 603" fill-rule="evenodd" clip-rule="evenodd" d="M110.494 89.7043L110.672 75.8528C110.672 75.7525 110.836 75.7457 110.836 75.8528L111.014 89.7043C111.017 90.0442 110.492 90.052 110.494 89.7043Z" fill="#CCD8E5"/>
<path id="Fill 604" fill-rule="evenodd" clip-rule="evenodd" d="M119.321 105.124L119.5 91.2728C119.5 91.1725 119.663 91.1652 119.663 91.2728L119.841 105.124C119.844 105.464 119.319 105.472 119.321 105.124Z" fill="#CCD8E5"/>
<path id="Fill 605" fill-rule="evenodd" clip-rule="evenodd" d="M99.3267 84.9858L99.5054 71.1343C99.5049 71.034 99.6686 71.0272 99.6681 71.1343L99.8464 84.9858C99.85 85.3257 99.3246 85.3335 99.3267 84.9858Z" fill="#CCD8E5"/>
<path id="Fill 606" fill-rule="evenodd" clip-rule="evenodd" d="M9.04786 83.5924L9.22664 69.7409C9.22612 69.6406 9.38983 69.6334 9.38931 69.7409L9.56809 83.5924C9.57121 83.9323 9.04578 83.9396 9.04786 83.5924Z" fill="#CCD8E5"/>
<path id="Fill 609" fill-rule="evenodd" clip-rule="evenodd" d="M175.901 116.169L176.079 102.317C176.079 102.217 176.242 102.21 176.242 102.317L176.421 116.169C176.423 116.509 175.898 116.516 175.901 116.169Z" fill="#CCD8E5"/>
<path id="Fill 610" fill-rule="evenodd" clip-rule="evenodd" d="M177.163 80.7527L177.341 66.9012C177.341 66.8009 177.505 66.7936 177.505 66.9012L177.683 80.7527C177.686 81.0926 177.16 81.0999 177.163 80.7527Z" fill="#CCD8E5"/>
<path id="Fill 611" fill-rule="evenodd" clip-rule="evenodd" d="M156.445 69.0987L156.624 55.2472C156.623 55.1469 156.787 55.1402 156.787 55.2472L156.965 69.0987C156.968 69.4386 156.443 69.4464 156.445 69.0987Z" fill="#CCD8E5"/>
<path id="Fill 612" fill-rule="evenodd" clip-rule="evenodd" d="M167.766 89.3612L167.944 75.5098C167.944 75.41 168.108 75.4027 168.108 75.5103C168.108 75.5098 168.286 89.3612 168.286 89.3612C168.289 89.7011 167.764 89.7089 167.766 89.3612Z" fill="#CCD8E5"/>
<path id="Fill 613" fill-rule="evenodd" clip-rule="evenodd" d="M133.364 89.7896L133.542 75.9381C133.542 75.8378 133.706 75.8311 133.705 75.9381L133.883 89.7896C133.887 90.1295 133.361 90.1373 133.364 89.7896Z" fill="#CCD8E5"/>
<path id="Fill 614" fill-rule="evenodd" clip-rule="evenodd" d="M154.701 103.641L154.879 89.7896C154.879 89.6893 155.043 89.6825 155.043 89.7896L155.221 103.641C155.224 103.981 154.699 103.989 154.701 103.641Z" fill="#CCD8E5"/>
<path id="Fill 615" fill-rule="evenodd" clip-rule="evenodd" d="M140.906 126.713L141.085 112.862C141.085 112.761 141.248 112.754 141.248 112.862L141.426 126.713C141.43 127.053 140.904 127.06 140.906 126.713Z" fill="#CCD8E5"/>
<path id="Fill 616" fill-rule="evenodd" clip-rule="evenodd" d="M134.556 114.069L134.734 100.217C134.734 100.117 134.898 100.11 134.897 100.217L135.075 114.069C135.079 114.408 134.554 114.416 134.556 114.069Z" fill="#CCD8E5"/>
<path id="Fill 617" fill-rule="evenodd" clip-rule="evenodd" d="M10.9956 133.639L11.1739 119.788C11.1734 119.687 11.3376 119.68 11.3371 119.788L11.5153 133.639C11.5184 133.979 10.993 133.987 10.9956 133.639Z" fill="#CCD8E5"/>
<path id="Fill 618" fill-rule="evenodd" clip-rule="evenodd" d="M136.171 139.66L136.35 125.809C136.35 125.709 136.513 125.702 136.513 125.809L136.691 139.66C136.694 140 136.169 140.008 136.171 139.66Z" fill="#CCD8E5"/>
<path id="Fill 619" fill-rule="evenodd" clip-rule="evenodd" d="M156.445 135.273L156.624 121.422C156.623 121.322 156.787 121.314 156.787 121.422L156.965 135.273C156.968 135.613 156.443 135.621 156.445 135.273Z" fill="#CCD8E5"/>
<path id="Fill 620" fill-rule="evenodd" clip-rule="evenodd" d="M129.807 155.246L129.986 141.395C129.985 141.294 130.149 141.287 130.149 141.395L130.327 155.246C130.33 155.586 129.805 155.593 129.807 155.246Z" fill="#CCD8E5"/>
<path id="Fill 621" fill-rule="evenodd" clip-rule="evenodd" d="M110.032 120.755L110.211 106.903C110.21 106.803 110.374 106.796 110.374 106.903L110.552 120.755C110.555 121.095 110.03 121.102 110.032 120.755Z" fill="#CCD8E5"/>
<path id="Fill 622" fill-rule="evenodd" clip-rule="evenodd" d="M144.287 94.7783L144.465 80.9269C144.465 80.8266 144.629 80.8193 144.629 80.9269L144.807 94.7783C144.81 95.1182 144.285 95.1255 144.287 94.7783Z" fill="#CCD8E5"/>
<path id="Fill 623" fill-rule="evenodd" clip-rule="evenodd" d="M121.997 79.2419L122.175 65.3904C122.175 65.2901 122.339 65.2833 122.339 65.3904L122.517 79.2419C122.52 79.5818 121.994 79.5896 121.997 79.2419Z" fill="#CCD8E5"/>
<path id="Fill 624" fill-rule="evenodd" clip-rule="evenodd" d="M104.361 98.3815L104.54 84.53C104.54 84.4297 104.703 84.4224 104.703 84.53L104.881 98.3815C104.884 98.7214 104.359 98.7292 104.361 98.3815Z" fill="#CCD8E5"/>
<path id="Fill 625" fill-rule="evenodd" clip-rule="evenodd" d="M94.272 122.558L94.4508 108.707C94.4502 108.606 94.614 108.599 94.6134 108.707L94.7917 122.558C94.7953 122.898 94.2699 122.905 94.272 122.558Z" fill="#CCD8E5"/>
<path id="Fill 626" fill-rule="evenodd" clip-rule="evenodd" d="M108.711 142.199L108.89 128.348C108.889 128.247 109.053 128.24 109.052 128.348L109.231 142.199C109.234 142.539 108.709 142.546 108.711 142.199Z" fill="#CCD8E5"/>
<path id="Fill 627" fill-rule="evenodd" clip-rule="evenodd" d="M92.5625 147.364L92.7408 133.512C92.7408 133.412 92.9045 133.405 92.904 133.512L93.0822 147.364C93.0853 147.704 92.5599 147.711 92.5625 147.364Z" fill="#CCD8E5"/>
<path id="Fill 628" fill-rule="evenodd" clip-rule="evenodd" d="M95.9815 154.289L96.1597 140.438C96.1597 140.338 96.3234 140.33 96.3229 140.438L96.5012 154.289C96.5043 154.629 95.9794 154.637 95.9815 154.289Z" fill="#CCD8E5"/>
<path id="Fill 629" fill-rule="evenodd" clip-rule="evenodd" d="M51.7754 77.2368L51.9537 63.3854C51.9537 63.285 52.1174 63.2778 52.1168 63.3854L52.2951 77.2368C52.2982 77.5767 51.7733 77.5845 51.7754 77.2368Z" fill="#CCD8E5"/>
<path id="Fill 630" fill-rule="evenodd" clip-rule="evenodd" d="M54.165 131.078L54.3433 117.227C54.3433 117.127 54.507 117.119 54.5065 117.227L54.6848 131.078C54.6879 131.418 54.1625 131.426 54.165 131.078Z" fill="#CCD8E5"/>
<path id="Fill 643" fill-rule="evenodd" clip-rule="evenodd" d="M175.215 159.42C174.341 158.488 173.006 158.338 171.919 158.954C171.791 159.019 171.635 158.967 171.57 158.839C171.499 158.702 171.567 158.53 171.712 158.477C172.94 157.941 174.487 158.265 175.275 159.365C175.306 159.403 175.251 159.456 175.215 159.42Z" fill="#CCD8E5"/>
<path id="Fill 644" fill-rule="evenodd" clip-rule="evenodd" d="M175.453 158.901C175.273 157.855 174.426 157.147 173.393 157.077C173.25 157.06 173.148 156.931 173.164 156.788C173.281 156.149 174.735 157.087 174.944 157.387C175.326 157.812 175.495 158.363 175.533 158.889C175.538 158.938 175.463 158.95 175.453 158.901Z" fill="#CCD8E5"/>
<path id="Fill 645" fill-rule="evenodd" clip-rule="evenodd" d="M176.591 159.365C177.379 158.265 178.926 157.941 180.154 158.478C180.289 158.527 180.358 158.677 180.308 158.811C180.259 158.947 180.109 159.016 179.974 158.966C178.881 158.343 177.534 158.476 176.651 159.421C176.617 159.456 176.558 159.403 176.591 159.365Z" fill="#CCD8E5"/>
<path id="Fill 646" fill-rule="evenodd" clip-rule="evenodd" d="M176.333 158.889C176.348 157.753 177.272 156.782 178.377 156.566C178.517 156.53 178.659 156.614 178.695 156.753C178.731 156.892 178.648 157.034 178.508 157.07C177.464 157.139 176.594 157.837 176.413 158.901C176.404 158.95 176.328 158.939 176.333 158.889Z" fill="#CCD8E5"/>
<path id="Fill 647" fill-rule="evenodd" clip-rule="evenodd" d="M175.894 158.716L175.743 155.563C175.728 155.223 176.246 155.197 176.263 155.538C176.264 155.549 176.263 155.562 176.262 155.574L175.976 158.718C175.972 158.766 175.895 158.766 175.894 158.716Z" fill="#CCD8E5"/>
<path id="Fill 653" fill-rule="evenodd" clip-rule="evenodd" d="M105.661 159.42C104.787 158.488 103.452 158.338 102.366 158.954C102.237 159.019 102.081 158.967 102.016 158.839C101.945 158.702 102.013 158.53 102.158 158.477C103.386 157.941 104.933 158.265 105.721 159.365C105.753 159.403 105.697 159.456 105.661 159.42Z" fill="#CCD8E5"/>
<path id="Fill 654" fill-rule="evenodd" clip-rule="evenodd" d="M105.9 158.901C105.719 157.855 104.873 157.147 103.839 157.077C103.696 157.06 103.594 156.931 103.611 156.788C103.728 156.149 105.182 157.087 105.391 157.387C105.773 157.812 105.941 158.363 105.98 158.889C105.985 158.938 105.909 158.95 105.9 158.901Z" fill="#CCD8E5"/>
<path id="Fill 655" fill-rule="evenodd" clip-rule="evenodd" d="M107.038 159.365C107.826 158.265 109.373 157.941 110.601 158.478C110.735 158.527 110.805 158.677 110.755 158.811C110.705 158.947 110.556 159.016 110.421 158.966C109.328 158.343 107.98 158.476 107.098 159.421C107.064 159.456 107.005 159.403 107.038 159.365Z" fill="#CCD8E5"/>
<path id="Fill 656" fill-rule="evenodd" clip-rule="evenodd" d="M106.779 158.889C106.794 157.753 107.718 156.782 108.824 156.566C108.963 156.53 109.105 156.614 109.141 156.753C109.178 156.892 109.094 157.034 108.955 157.07C107.909 157.139 107.04 157.837 106.859 158.901C106.85 158.95 106.773 158.939 106.779 158.889Z" fill="#CCD8E5"/>
<path id="Fill 657" fill-rule="evenodd" clip-rule="evenodd" d="M106.341 158.716L106.189 155.563C106.174 155.223 106.691 155.197 106.71 155.538C106.71 155.549 106.71 155.562 106.708 155.574L106.422 158.718C106.418 158.766 106.342 158.766 106.341 158.716Z" fill="#CCD8E5"/>
<path id="Fill 658" fill-rule="evenodd" clip-rule="evenodd" d="M34.3018 159.42C33.4282 158.488 32.093 158.338 31.0068 158.954C30.8784 159.019 30.722 158.967 30.657 158.839C30.5863 158.702 30.6544 158.53 30.7994 158.477C32.027 157.941 33.5742 158.265 34.3616 159.365C34.3938 159.403 34.3382 159.456 34.3018 159.42Z" fill="#CCD8E5"/>
<path id="Fill 659" fill-rule="evenodd" clip-rule="evenodd" d="M34.5402 158.901C34.3604 157.855 33.5132 157.147 32.48 157.077C32.3371 157.06 32.2347 156.931 32.2519 156.788C32.3683 156.149 33.823 157.087 34.0319 157.387C34.4134 157.812 34.5818 158.363 34.6207 158.889C34.6254 158.938 34.5501 158.95 34.5402 158.901Z" fill="#CCD8E5"/>
<path id="Fill 660" fill-rule="evenodd" clip-rule="evenodd" d="M35.6788 159.365C36.4667 158.265 38.0134 157.941 39.2415 158.478C39.3761 158.527 39.4452 158.677 39.3958 158.811C39.3459 158.947 39.1962 159.016 39.0616 158.966C37.9682 158.343 36.6211 158.476 35.7386 159.421C35.7043 159.456 35.6455 159.403 35.6788 159.365Z" fill="#CCD8E5"/>
<path id="Fill 661" fill-rule="evenodd" clip-rule="evenodd" d="M35.4202 158.889C35.4348 157.753 36.3594 156.782 37.4648 156.566C37.6041 156.53 37.746 156.614 37.7823 156.753C37.8187 156.892 37.735 157.034 37.5958 157.07C36.5506 157.139 35.6811 157.837 35.5003 158.901C35.4914 158.95 35.4145 158.939 35.4202 158.889Z" fill="#CCD8E5"/>
<path id="Fill 662" fill-rule="evenodd" clip-rule="evenodd" d="M34.9816 158.716L34.8299 155.563C34.8153 155.223 35.3325 155.197 35.3506 155.538C35.3512 155.549 35.3506 155.562 35.3496 155.574L35.0632 158.718C35.0596 158.766 34.9827 158.766 34.9816 158.716Z" fill="#CCD8E5"/>
<path id="Fill 663" fill-rule="evenodd" clip-rule="evenodd" d="M94.0905 159.42C93.4757 158.803 92.587 158.727 91.8609 159.164C91.7341 159.233 91.5756 159.186 91.5075 159.059C91.2575 158.484 92.7242 158.475 93.0516 158.59C93.5152 158.712 93.8842 159.019 94.1503 159.365C94.1804 159.403 94.1259 159.454 94.0905 159.42Z" fill="#CCD8E5"/>
<path id="Fill 664" fill-rule="evenodd" clip-rule="evenodd" d="M94.251 159.056C94.1034 158.348 93.5297 157.9 92.8291 157.876C92.4533 157.839 92.5604 157.264 92.9247 157.366C93.6981 157.536 94.3487 158.246 94.3316 159.044C94.3352 159.092 94.2619 159.103 94.251 159.056Z" fill="#CCD8E5"/>
<path id="Fill 665" fill-rule="evenodd" clip-rule="evenodd" d="M95.0388 159.365C95.5679 158.58 96.6681 158.33 97.5356 158.688C97.6722 158.734 97.7455 158.882 97.6998 159.018C97.6499 159.171 97.468 159.242 97.3282 159.164C96.6027 158.726 95.7134 158.803 95.0986 159.421C95.0643 159.454 95.0077 159.403 95.0388 159.365Z" fill="#CCD8E5"/>
<path id="Fill 666" fill-rule="evenodd" clip-rule="evenodd" d="M94.8572 159.044C94.8406 158.245 95.4923 157.534 96.2667 157.365C96.5952 157.272 96.7391 157.771 96.4107 157.867C95.6935 157.894 95.088 158.32 94.9378 159.056C94.9274 159.103 94.8536 159.092 94.8572 159.044Z" fill="#CCD8E5"/>
<path id="Fill 667" fill-rule="evenodd" clip-rule="evenodd" d="M94.5548 158.926L94.3823 156.751C94.3568 156.411 94.8744 156.369 94.903 156.71C94.9046 156.727 94.9041 156.746 94.902 156.763L94.6364 158.928C94.6317 158.975 94.5574 158.974 94.5548 158.926Z" fill="#CCD8E5"/>
</g>
</svg>
