<svg width="14" height="16" viewBox="0 0 14 16" fill="none" xmlns="http://www.w3.org/2000/svg">
<g id="user-md">
<path id="Shape" fill-rule="evenodd" clip-rule="evenodd" d="M11.5 4.5C11.5 6.98438 9.48438 9 7 9C4.51562 9 2.5 6.98438 2.5 4.5C2.5 2.01562 4.51562 0 7 0C9.48438 0 11.5 2.01562 11.5 4.5ZM10 4.5C10 2.84687 8.65312 1.5 7 1.5C5.34688 1.5 4 2.84687 4 4.5C4 6.15312 5.34688 7.5 7 7.5C8.65312 7.5 10 6.15312 10 4.5ZM9.8 9.5C9.45625 9.5 9.11875 9.58125 8.79375 9.69375C8.23125 9.89062 7.62813 10 7 10C6.37187 10 5.76875 9.89062 5.20625 9.69375C4.88125 9.58125 4.54375 9.5 4.2 9.5C1.88125 9.5 0 11.3813 0 13.7V15.25C0 15.6656 0.334375 16 0.75 16C1.16562 16 1.5 15.6656 1.5 15.25V13.7C1.5 12.2781 2.60625 11.125 4 11.0188V12.5813C3.27813 12.7969 2.75 13.4594 2.75 14.25C2.75 15.2156 3.53437 16 4.5 16C5.46562 16 6.25 15.2156 6.25 14.25C6.25 13.4594 5.72188 12.7969 5 12.5813V11.1844C5.65 11.3813 6.32188 11.5 7 11.5C7.68125 11.5 8.35 11.3813 9 11.1844V12.3188C8.11875 12.5531 7.5 13.3969 7.5 14.3375V15.25C7.5 15.3813 7.55312 15.5094 7.64687 15.6031L7.96875 15.925C8.06563 16.0219 8.225 16.0219 8.32187 15.925L8.675 15.5719C8.77188 15.475 8.77188 15.3156 8.675 15.2188L8.49687 15.0406V14.25C8.49687 13.6438 9.04062 13.1625 9.66562 13.2625C10.1562 13.3438 10.4969 13.8062 10.4969 14.3031V15.0406L10.3188 15.2188C10.2219 15.3156 10.2219 15.475 10.3188 15.5719L10.6719 15.925C10.7688 16.0219 10.9281 16.0219 11.025 15.925L11.3469 15.6031C11.4406 15.5094 11.4937 15.3813 11.4937 15.25V14.25C11.4937 13.3219 10.8531 12.5469 9.99375 12.325V11.0219C11.3875 11.125 12.4937 12.2812 12.4937 13.7031V15.25C12.4937 15.6656 12.8281 16 13.2437 16C13.6594 16 13.9937 15.6656 13.9937 15.25V13.7C14 11.3813 12.1187 9.5 9.8 9.5ZM4.5 15C4.91563 15 5.25 14.6656 5.25 14.25C5.25 13.8344 4.91563 13.5 4.5 13.5C4.08437 13.5 3.75 13.8344 3.75 14.25C3.75 14.6656 4.08437 15 4.5 15Z" fill="#1396E5"/>
</g>
</svg>
