<?xml version="1.0" encoding="utf-8"?>
<!-- Generator: Adobe Illustrator 23.0.2, SVG Export Plug-In . SVG Version: 6.00 Build 0)  -->
<svg version="1.1" id="Layer_1" xmlns="http://www.w3.org/2000/svg" xmlns:xlink="http://www.w3.org/1999/xlink" x="0px" y="0px"
	 viewBox="0 0 243.3401 237.5156" enable-background="new 0 0 243.3401 237.5156" xml:space="preserve">
<g>
	<path d="M204.3166,93.6651c0.3506,0.458,0.6983,0.9238,1.044,1.3974h8.413c0.2852-0.0254,0.5723-0.042,0.8653-0.042
		c0.2715,0,0.5058,0.0147,0.7422,0.0303l0.2539,0.0146c0.0136,0,0.0312,0,0.0468,0c0.2579,0,0.5293,0.0186,0.795,0.045
		c3.4697,0.3154,6.9023,1.5976,9.9336,3.6782c-2.7041-5.2398-5.6768-9.9297-8.8262-14.1182
		C214.4172,89.0801,209.7424,92.333,204.3166,93.6651z"/>
	<path d="M93.5744,68.5488c4.4639-0.5556,8.5547-0.9707,11.9815-1.2617c0.6767-0.0576,1.3271-0.1103,1.9541-0.1587v24.2749
		c5.0234,12.0674,8.7236,26.9034,11.0351,44.4258c0.3047,2.3047-0.3086,4.5899-1.7226,6.4317
		c-1.416,1.8447-3.4649,3.0273-5.7676,3.331c-0.3692,0.0518-0.7578,0.0772-1.1445,0.0772c-0.8291,0-1.6348-0.1202-2.4004-0.3423
		v79.4927c0,6.83,5.5371,12.3632,12.3632,12.3632c6.8282,0,12.3653-5.5332,12.3653-12.3632v-90.2715h4.6347v90.2715
		c0,6.83,5.5372,12.3632,12.3633,12.3632c6.8282,0,12.3653-5.5332,12.3653-12.3632V172.978
		c-0.0391,0.0015-0.0782,0.0074-0.1172,0.0083c-0.0391,0.002-0.125,0.004-0.211,0.004c-4.9589,0-9.082-4.0313-9.1953-8.9874
		c-0.0058-0.25-0.0058-0.4052-0.0058-0.4599c0.0058-15.2393,1.3711-28.292,4.0664-38.7969
		c1.5039-5.7827,3.2998-10.5981,5.4629-14.626V67.3623c3.7148,0.648,8.6621,1.8574,14.1025,4.1192
		c-0.001-0.086-0.0068-0.1714-0.0068-0.2579c0-5.6342,2.0293-10.8017,5.3925-14.8168c-13.4179-5.4048-23.9677-5.7603-26.1875-5.7764
		c-0.3398,0-0.6728,0.0278-1.0019,0.0693c-0.0088,0-0.0176-0.0014-0.0274-0.0014h-38.6347c-0.127,0-0.25,0.0127-0.375,0.019
		c-2.1475,0.0249-5.7236,0.2144-10.6582,0.6289c-8.5899,0.7524-20.7686,2.1314-33.3828,4.6148
		c1.7226,0.3232,3.1191,0.6425,4.0293,0.8671C76.6897,57.1387,84.8576,59.0347,93.5744,68.5488z"/>
	<path d="M134.5568,45c12.4278,0,22.5-10.0732,22.5-22.5c0-12.4267-10.0722-22.5-22.5-22.5c-12.4257,0-22.5,10.0733-22.5,22.5
		C112.0568,34.9268,122.1311,45,134.5568,45z M146.8283,31.6045c-6.2187,12.5088-20.4414,8.041-23.1054,0.9473
		C131.7111,36.9531,146.8283,31.6045,146.8283,31.6045z"/>
	<path d="M36.5432,227.083c0,5.5235,4.4765,10,10,10c5.5215,0,10-4.4765,10-10v-50.2602c-7.6768-0.0948-14.3516-0.8277-20-1.8492
		V227.083z"/>
	<path d="M59.8772,227.083c0,5.5235,4.4765,10,10,10c5.5195,0,10-4.4765,10-10v-52.1089c-5.6485,1.021-12.3233,1.7544-20,1.8487
		V227.083z"/>
	<path d="M53.3361,51.8272c11.5625,2.6914,23.1172-4.4981,25.8086-16.0606c2.6934-11.5625-4.498-23.1172-16.0586-25.8105
		c-11.5625-2.6914-23.1171,4.5-25.8105,16.0605C34.5822,37.5791,41.7736,49.1358,53.3361,51.8272z M69.4963,41.5518
		c-2.4785,6.6006-15.7129,10.7588-21.502-0.8819C47.9943,40.6699,62.0627,45.6475,69.4963,41.5518z"/>
	<path d="M5.6506,143.4121c3.5586,0.4688,6.8242-2.0361,7.2949-5.5937c4.166-31.6123,12.3594-48.1787,19.127-56.6885
		l-17.1953,84.5098c0,0,15.0136,9,43.3339,9c28.3204,0,43.334-9,43.334-9L84.3518,81.1455c0.082,0.1016,0.1601,0.1905,0.2422,0.294
		c6.7128,8.5849,14.7675,25.1523,18.8808,56.3789c0.4317,3.2695,3.2246,5.6504,6.4356,5.6504c0.2832,0,0.5683-0.0186,0.8574-0.0567
		c3.5605-0.4707,6.0644-3.7363,5.5957-7.2939c-4.6094-34.9404-14.0957-54.1192-23.2383-64.7744
		c-8.4297-9.8682-16.541-12.0108-18.7148-12.3604c-1.8555-0.459-8.7266-2.0771-16.1993-2.0996
		c-7.4687,0.0225-14.3379,1.6397-16.1992,2.0986c-2.166,0.3477-10.2812,2.4854-18.7168,12.3614
		c-9.1426,10.6552-18.6269,29.834-23.2383,64.7715C-0.4139,139.6758,2.092,142.9414,5.6506,143.4121z"/>
	<path d="M175.9982,161.2647v65.8759c0,5.7286,4.6465,10.375,10.379,10.375c5.7265,0,10.373-4.6464,10.373-10.375v-49.417h4.1133
		v49.417c0,5.7286,4.6465,10.375,10.3769,10.375c5.7286,0,10.375-4.6464,10.375-10.375v-65.8759v-2.292h-45.6172V161.2647z"/>
	<path d="M227.7482,102.6904c-3.1562-2.9912-7.2148-5.0019-11.4941-5.3906c-0.209-0.0224-0.4219-0.0351-0.6387-0.0351h-0.0839
		c-0.2969-0.0137-0.5938-0.045-0.8926-0.043c-0.2559,0-0.5098,0.0156-0.7598,0.043h-30.1465c-0.25-0.0274-0.5019-0.043-0.7597-0.043
		c-0.2989-0.002-0.5957,0.0293-0.8926,0.043h-0.0821c-0.2148,0-0.4257,0.0127-0.6367,0.0341
		c-4.2793,0.3887-8.3379,2.3985-11.498,5.3936c-5.3789,5.0869-8.9903,12.5957-11.5957,22.6006
		c-2.5684,10.0234-3.9903,22.6767-3.9942,38.2529c0,0.0205-0.0019,0.1631,0.002,0.4072c0.0879,3.8096,3.2031,6.837,6.9961,6.837
		c0.0547,0,0.1094-0.001,0.164-0.002c3.8653-0.0889,6.9278-3.2959,6.8379-7.1611h-0.0019c0-0.0196,0-0.0469,0-0.0811
		c-0.0215-19.6006,2.4883-33.7158,5.9433-42.1787c0.5762-1.4336,1.1797-2.6846,1.7832-3.7861v24.2256v12.166h45.6172v-12.166
		v-24.2256c1.4922,2.7324,2.9766,6.4502,4.17,11.1884c2.1757,8.4629,3.5566,20.0674,3.5527,34.7696
		c0.0019,0.0263-0.0039,0.1679,0.0039,0.4101c0.0859,3.8116,3.2031,6.8409,6.9961,6.8409c0.0547,0,0.1074,0,0.1601-0.002
		c3.8672-0.0889,6.9297-3.293,6.8399-7.1592c0-0.0215,0-0.0517,0-0.0898c-0.0215-20.7715-2.5-36.3164-6.9629-47.4238
		C234.1193,110.5684,231.3498,106.0664,227.7482,102.6904z"/>
	<path d="M198.8068,92.1348c11.5508,0,20.9102-9.3633,20.9102-20.9121c0-11.5489-9.3594-20.9112-20.9102-20.9112
		c-11.5488,0-20.9082,9.3623-20.9082,20.9112C177.8986,82.7715,187.258,92.1348,198.8068,92.1348z M188.2268,81.3584
		c7.5547,4.1621,21.8515-0.8965,21.8515-0.8965C204.1955,92.292,190.7443,88.0664,188.2268,81.3584z"/>
</g>
</svg>
