<svg width="130" height="16" viewBox="0 0 130 16" fill="none" xmlns="http://www.w3.org/2000/svg">
<g id="Group 4">
<g id="heart">
<path id="Path" d="M10.231 2.07736L10.2314 2.07701C11.7576 0.50225 14.1759 0.292484 15.7662 1.64762C17.6398 3.24699 17.7411 6.12776 16.0588 7.86385L16.0586 7.864L9.25616 14.8879C9.25611 14.888 9.25606 14.888 9.25602 14.8881C9.1113 15.0373 8.8857 15.0373 8.74098 14.8881C8.74094 14.888 8.74089 14.888 8.74084 14.8879L1.93869 7.86433C0.259332 6.12819 0.360641 3.24706 2.23429 1.64762C3.82496 0.292233 6.24637 0.502685 7.76861 2.07647L7.76947 2.07736L8.46203 2.79102L9.00026 3.34563L9.53848 2.79102L10.231 2.07736Z" stroke="#FF3234" stroke-width="1.5"/>
</g>
<g id="heart_2">
<path id="Path_2" d="M38.231 2.07736L38.2314 2.07701C39.7576 0.50225 42.1759 0.292484 43.7662 1.64762C45.6398 3.24699 45.7411 6.12776 44.0588 7.86385L44.0586 7.864L37.2562 14.8879C37.2561 14.888 37.2561 14.888 37.256 14.8881C37.1113 15.0373 36.8857 15.0373 36.741 14.8881C36.7409 14.888 36.7409 14.888 36.7408 14.8879L29.9387 7.86433C28.2593 6.12819 28.3606 3.24706 30.2343 1.64762C31.825 0.292233 34.2464 0.502685 35.7686 2.07647L35.7695 2.07736L36.462 2.79102L37.0003 3.34563L37.5385 2.79102L38.231 2.07736Z" stroke="#FF3234" stroke-width="1.5"/>
</g>
<g id="heart_3">
<path id="Path_3" d="M66.231 2.07736L66.2314 2.07701C67.7576 0.50225 70.1759 0.292484 71.7662 1.64762C73.6398 3.24699 73.7411 6.12776 72.0588 7.86385L72.0586 7.864L65.2562 14.8879C65.2561 14.888 65.2561 14.888 65.256 14.8881C65.1113 15.0373 64.8857 15.0373 64.741 14.8881C64.7409 14.888 64.7409 14.888 64.7408 14.8879L57.9387 7.86433C56.2593 6.12819 56.3606 3.24706 58.2343 1.64762C59.825 0.292233 62.2464 0.502685 63.7686 2.07647L63.7695 2.07736L64.462 2.79102L65.0003 3.34563L65.5385 2.79102L66.231 2.07736Z" stroke="#FF3234" stroke-width="1.5"/>
</g>
<g id="heart_4">
<path id="Path_4" d="M94.231 2.07736L94.2314 2.07701C95.7576 0.50225 98.1759 0.292484 99.7662 1.64762C101.64 3.24699 101.741 6.12776 100.059 7.86385L100.059 7.864L93.2562 14.8879C93.2561 14.888 93.2561 14.888 93.256 14.8881C93.1113 15.0373 92.8857 15.0373 92.741 14.8881C92.7409 14.888 92.7409 14.888 92.7408 14.8879L85.9387 7.86433C84.2593 6.12819 84.3606 3.24706 86.2343 1.64762C87.825 0.292233 90.2464 0.502685 91.7686 2.07647L91.7695 2.07736L92.462 2.79102L93.0003 3.34563L93.5385 2.79102L94.231 2.07736Z" stroke="#FF3234" stroke-width="1.5"/>
</g>
<g id="heart_5">
<path id="Path_5" d="M122.231 2.07736L122.231 2.07701C123.758 0.50225 126.176 0.292484 127.766 1.64762C129.64 3.24699 129.741 6.12776 128.059 7.86385L128.059 7.864L121.256 14.8879C121.256 14.888 121.256 14.888 121.256 14.8881C121.111 15.0373 120.886 15.0373 120.741 14.8881C120.741 14.888 120.741 14.888 120.741 14.8879L113.939 7.86433C112.259 6.12819 112.361 3.24706 114.234 1.64762C115.825 0.292233 118.246 0.502685 119.769 2.07647L119.769 2.07736L120.462 2.79102L121 3.34563L121.538 2.79102L122.231 2.07736Z" stroke="#FF3234" stroke-width="1.5"/>
</g>
</g>
</svg>
