<svg width="21" height="21" viewBox="0 0 21 21" fill="none" xmlns="http://www.w3.org/2000/svg">
<g id="info-square">
<path id="Shape" fill-rule="evenodd" clip-rule="evenodd" d="M21 18.75V2.25C21 1.00734 19.9927 0 18.75 0H2.25C1.00734 0 0 1.00734 0 2.25V18.75C0 19.9927 1.00734 21 2.25 21H18.75C19.9927 21 21 19.9927 21 18.75ZM18.75 2.53125V18.4688C18.75 18.6241 18.6241 18.75 18.4688 18.75H2.53125C2.37592 18.75 2.25 18.6241 2.25 18.4688V2.53125C2.25 2.37592 2.37592 2.25 2.53125 2.25H18.4688C18.6241 2.25 18.75 2.37592 18.75 2.53125ZM10.5 4.03125C11.5873 4.03125 12.4688 4.91269 12.4688 6C12.4688 7.08731 11.5873 7.96875 10.5 7.96875C9.41269 7.96875 8.53125 7.08731 8.53125 6C8.53125 4.91269 9.41269 4.03125 10.5 4.03125ZM12.5625 16.5C12.8731 16.5 13.125 16.2481 13.125 15.9375V14.8125C13.125 14.5019 12.8731 14.25 12.5625 14.25H12V9.5625C12 9.25186 11.7481 9 11.4375 9H8.4375C8.12686 9 7.875 9.25186 7.875 9.5625V10.6875C7.875 10.9981 8.12686 11.25 8.4375 11.25H9V14.25H8.4375C8.12686 14.25 7.875 14.5019 7.875 14.8125V15.9375C7.875 16.2481 8.12686 16.5 8.4375 16.5H12.5625Z" fill="#22B840"/>
</g>
</svg>
