<svg width="48" height="48" viewBox="0 0 48 48" fill="none" xmlns="http://www.w3.org/2000/svg">
<g id="Group 17" opacity="0.2">
<circle id="Oval" cx="24" cy="24" r="23.25" transform="matrix(-1 0 0 1 48 0)" stroke="#000937" stroke-width="1.5"/>
<g id="arrow-right">
<path id="Path" d="M24.1844 17.1099L24.8031 17.7286C24.9495 17.875 24.9495 18.1124 24.8031 18.2589L19.9553 23.1067H30.625C30.8321 23.1067 31 23.2746 31 23.4817V24.3567C31 24.5638 30.8321 24.7317 30.625 24.7317H19.9553L24.8031 29.5795C24.9495 29.7259 24.9495 29.9634 24.8031 30.1098L24.1844 30.7286C24.0379 30.875 23.8005 30.875 23.654 30.7286L17.1098 24.1844C16.9634 24.0379 16.9634 23.8005 17.1098 23.654L23.654 17.1099C23.8005 16.9634 24.0379 16.9634 24.1844 17.1099Z" fill="#000937"/>
</g>
</g>
</svg>
