<svg width="919" height="268" viewBox="0 0 919 268" fill="none" xmlns="http://www.w3.org/2000/svg">
<path d="M64.7291 129.5C100.478 129.5 129.458 100.51 129.458 64.75C129.458 28.9896 100.478 0 64.7291 0C28.9802 0 0 28.9896 0 64.75C0 100.51 28.9802 129.5 64.7291 129.5Z" fill="#22B840"/>
<path fill-rule="evenodd" clip-rule="evenodd" d="M129.458 194.25L0 259V129.5L129.458 194.25Z" fill="#1396E5"/>
<path d="M258.916 129.5H129.458V259H258.916V129.5Z" fill="#F6BB05"/>
<path d="M382 235.3C373.3 235.3 368.6 233.9 367.9 231.1L362.95 211.75H339.1L334.75 230.35C334.15 233.45 329.35 235 320.35 235C315.55 235 312 234.75 309.7 234.25C307.4 233.65 306.25 233.2 306.25 232.9L332.8 131.35C332.8 130.55 339.65 130.15 353.35 130.15C367.05 130.15 373.9 130.55 373.9 131.35L399.85 233.05C399.85 233.75 397.55 234.3 392.95 234.7C388.35 235.1 384.7 235.3 382 235.3ZM342.85 192.7H358.6L351.85 161.65H350.95L342.85 192.7ZM408.291 160.9C408.291 159.8 412.591 159.25 421.191 159.25C429.791 159.25 434.091 159.8 434.091 160.9V204.7C434.091 209.7 435.691 212.2 438.891 212.2C441.291 212.2 443.991 211.15 446.991 209.05V160.9C446.991 159.9 451.241 159.4 459.741 159.4C468.241 159.4 472.491 159.9 472.491 160.9V210.1H476.391C479.791 210.1 481.491 213.35 481.491 219.85C481.491 223.15 480.791 226.5 479.391 229.9C477.391 234.3 474.691 236.5 471.291 236.5C464.591 236.5 459.641 233.75 456.441 228.25L456.291 228.4C450.191 233.8 443.641 236.5 436.641 236.5C426.941 236.5 419.791 234.1 415.191 229.3C410.591 224.4 408.291 216.35 408.291 205.15V160.9ZM525.133 234.1C525.133 235.3 520.933 235.9 512.533 235.9C502.533 235.5 497.533 234.85 497.533 233.95V180.85H489.883C487.883 180.85 486.883 177.4 486.883 170.5C486.883 168.7 487.033 166.5 487.333 163.9C487.733 161.3 488.483 160 489.583 160H497.533V146.8C497.533 144.8 501.733 143.8 510.133 143.8C518.633 143.8 522.883 144.6 522.883 146.2V155.8L523.033 160H535.783C537.483 160 538.333 163.5 538.333 170.5C538.333 177.5 537.483 181 535.783 181H525.133V234.1ZM573.307 234.1C573.307 234.9 568.707 235.3 559.507 235.3C550.407 235.3 545.857 234.95 545.857 234.25V160.6C545.857 159.9 550.407 159.55 559.507 159.55C568.707 159.55 573.307 159.85 573.307 160.45V234.1ZM573.307 151.6C573.307 152.3 568.707 152.65 559.507 152.65C550.407 152.65 545.857 152.35 545.857 151.75V130.15C545.857 129.15 550.407 128.65 559.507 128.65C568.707 128.65 573.307 128.95 573.307 129.55V151.6ZM590.023 208C598.123 212.9 604.523 215.35 609.223 215.35C612.223 215.35 613.723 214.3 613.723 212.2C613.723 210.7 611.123 208.75 605.923 206.35C593.423 201.25 587.173 192.9 587.173 181.3C587.173 173.9 589.873 168.25 595.273 164.35C600.673 160.45 607.123 158.5 614.623 158.5C622.223 158.5 628.623 159.3 633.823 160.9C639.123 162.5 641.773 164.6 641.773 167.2C641.773 169.4 640.673 172.3 638.473 175.9C636.373 179.5 634.923 181.45 634.123 181.75C629.823 179.35 625.173 178.15 620.173 178.15C617.473 178.15 616.123 179.1 616.123 181C616.123 182.2 616.623 183.25 617.623 184.15C618.723 184.95 620.673 186 623.473 187.3C626.273 188.5 628.573 189.6 630.373 190.6C632.273 191.6 634.373 193 636.673 194.8C641.473 198.6 643.873 203.55 643.873 209.65C643.873 217.65 641.223 224.15 635.923 229.15C630.623 234.05 622.623 236.5 611.923 236.5C604.823 236.5 598.373 235.3 592.573 232.9C586.773 230.5 583.873 227.2 583.873 223C583.873 220.2 584.523 217.25 585.823 214.15C587.223 211.05 588.623 209 590.023 208ZM732.252 160.75C732.252 159.85 735.002 159.4 740.502 159.4C752.902 159.4 759.002 159.8 758.802 160.6L744.102 233.5C743.802 235.1 738.252 235.9 727.452 235.9C716.652 235.9 711.102 235.1 710.802 233.5L704.652 199.9L697.002 233.5C696.702 235 690.952 235.75 679.752 235.75C668.652 235.75 662.952 234.85 662.652 233.05L649.302 160C649.002 159.4 653.302 159.1 662.202 159.1C671.002 159.2 675.402 159.4 675.402 159.7L682.302 210.4L694.752 160.3C694.952 159.7 698.252 159.4 704.652 159.4C711.052 159.4 714.352 159.7 714.552 160.3L726.852 209.8L732.252 160.75ZM776.645 180.55C773.845 175.55 772.445 171.5 772.445 168.4C772.445 165.2 773.295 163.15 774.995 162.25C780.695 159.75 788.495 158.5 798.395 158.5C808.395 158.5 815.445 160.85 819.545 165.55C823.645 170.15 825.695 177 825.695 186.1V209.8H830.795C832.495 209.8 833.795 210.8 834.695 212.8C835.695 214.8 836.195 217.55 836.195 221.05C836.195 224.55 835.295 228 833.495 231.4C831.795 234.8 829.445 236.5 826.445 236.5C821.045 236.5 816.695 235.05 813.395 232.15C811.895 230.95 810.745 229.5 809.945 227.8C805.345 233.6 798.195 236.5 788.495 236.5C781.195 236.5 775.045 233.9 770.045 228.7C765.045 223.5 762.545 217.35 762.545 210.25C762.545 193.95 772.295 185.8 791.795 185.8H800.045V184.3C800.045 181.7 799.595 180.05 798.695 179.35C797.895 178.55 795.945 178.15 792.845 178.15C789.045 178.15 783.645 178.95 776.645 180.55ZM788.645 208.15C788.645 210.35 789.245 212.05 790.445 213.25C791.645 214.35 793.145 214.9 794.945 214.9C796.845 214.9 798.545 214.15 800.045 212.65V201.1H795.845C791.045 201.1 788.645 203.45 788.645 208.15ZM839.436 160.75C839.436 159.65 843.986 159.1 853.086 159.1C862.286 159.1 867.036 159.6 867.336 160.6L878.136 196L888.486 160.3C888.886 159.5 891.986 159.1 897.786 159.1C911.086 159.1 917.436 159.75 916.836 161.05L881.586 261.4C881.486 262 878.736 262.3 873.336 262.3C868.036 262.3 863.086 262.1 858.486 261.7C853.886 261.4 851.686 261 851.886 260.5L864.936 229L839.436 160.75Z" fill="#2C3363"/>
</svg>
