<svg width="203" height="40" viewBox="0 0 203 40" fill="none" xmlns="http://www.w3.org/2000/svg">
<g id="Group 25">
<g id="cortiway">
<path id="Shape" fill-rule="evenodd" clip-rule="evenodd" d="M72.964 13.164H67.28L61.12 31H66.356L67.42 27.472H72.46L73.524 31H78.648L72.964 13.164ZM70.192 18.428L71.676 23.552H68.484L70.08 18.428H70.192Z" fill="#000937"/>
<path id="Path" d="M80.328 16.664H84.808V24.7C84.808 25.54 85.0273 26.1793 85.466 26.618C85.9047 27.0567 86.5067 27.276 87.272 27.276C88.0373 27.276 88.6347 27.0567 89.064 26.618C89.4933 26.1793 89.708 25.54 89.708 24.7V16.664H94.188V27.5L95.728 29.292L91.948 32.288L90.212 30.104C89.7827 30.384 89.2833 30.6033 88.714 30.762C88.1447 30.9207 87.44 31 86.6 31C84.4907 31 82.918 30.4867 81.882 29.46C80.846 28.4333 80.328 26.9307 80.328 24.952V16.664Z" fill="#000937"/>
<path id="Path_2" d="M99.452 20.472H97.128V17.14H99.564V13.192H104.044V17.14H107.852V20.5H104.072V25.708C104.072 26.4173 104.245 26.9027 104.59 27.164C104.935 27.4253 105.351 27.556 105.836 27.556C106.135 27.556 106.466 27.5233 106.83 27.458C107.194 27.3927 107.479 27.2947 107.684 27.164L108.44 30.468C107.973 30.7293 107.437 30.916 106.83 31.028C106.223 31.14 105.621 31.196 105.024 31.196C104.203 31.196 103.451 31.098 102.77 30.902C102.089 30.706 101.501 30.3933 101.006 29.964C100.511 29.5347 100.129 28.984 99.858 28.312C99.5873 27.64 99.452 26.8187 99.452 25.848V20.472Z" fill="#000937"/>
<path id="Shape_2" fill-rule="evenodd" clip-rule="evenodd" d="M111.142 15.124C111.637 15.5907 112.239 15.824 112.948 15.824C113.657 15.824 114.259 15.5907 114.754 15.124C115.249 14.6573 115.496 14.06 115.496 13.332C115.496 12.604 115.249 12.0113 114.754 11.554C114.259 11.0967 113.657 10.868 112.948 10.868C112.239 10.868 111.637 11.0967 111.142 11.554C110.647 12.0113 110.4 12.604 110.4 13.332C110.4 14.06 110.647 14.6573 111.142 15.124ZM115.188 31V17.504H110.708V31H115.188Z" fill="#000937"/>
<path id="Path_3" d="M119.164 26.436C119.388 26.604 119.673 26.7767 120.018 26.954C120.363 27.1313 120.741 27.29 121.152 27.43C121.563 27.57 121.992 27.6867 122.44 27.78C122.888 27.8733 123.336 27.92 123.784 27.92C124.456 27.92 124.951 27.8173 125.268 27.612C125.585 27.4067 125.744 27.1267 125.744 26.772C125.744 26.4547 125.623 26.226 125.38 26.086C125.137 25.946 124.773 25.8293 124.288 25.736L122.944 25.512C121.357 25.2507 120.135 24.7513 119.276 24.014C118.417 23.2767 117.988 22.2827 117.988 21.032C117.988 20.4347 118.1 19.8653 118.324 19.324C118.548 18.7827 118.893 18.3067 119.36 17.896C119.827 17.4853 120.424 17.1633 121.152 16.93C121.88 16.6967 122.757 16.58 123.784 16.58C124.456 16.58 125.095 16.6267 125.702 16.72C126.309 16.8133 126.869 16.9393 127.382 17.098C127.895 17.2567 128.353 17.4293 128.754 17.616C129.155 17.8027 129.487 17.9893 129.748 18.176L128.6 21.172C128.376 21.0227 128.091 20.8827 127.746 20.752C127.401 20.6213 127.032 20.5093 126.64 20.416C126.248 20.3227 125.842 20.248 125.422 20.192C125.002 20.136 124.605 20.108 124.232 20.108C123.616 20.108 123.168 20.1827 122.888 20.332C122.608 20.4813 122.468 20.696 122.468 20.976C122.468 21.256 122.58 21.4847 122.804 21.662C123.028 21.8393 123.28 21.9467 123.56 21.984L125.268 22.264C126.201 22.4133 126.985 22.6187 127.62 22.88C128.255 23.1413 128.763 23.454 129.146 23.818C129.529 24.182 129.804 24.5927 129.972 25.05C130.14 25.5073 130.224 26.016 130.224 26.576C130.224 27.2293 130.117 27.8593 129.902 28.466C129.687 29.0727 129.342 29.6047 128.866 30.062C128.39 30.5193 127.783 30.8833 127.046 31.154C126.309 31.4247 125.408 31.56 124.344 31.56C123.635 31.56 122.949 31.4993 122.286 31.378C121.623 31.2567 121.007 31.098 120.438 30.902C119.869 30.706 119.355 30.4773 118.898 30.216C118.441 29.9547 118.053 29.6933 117.736 29.432L119.164 26.436Z" fill="#000937"/>
<path id="Path_4" d="M132.464 18.932C132.819 18.5773 133.239 18.2553 133.724 17.966C134.209 17.6767 134.732 17.4247 135.292 17.21C135.852 16.9953 136.431 16.832 137.028 16.72C137.625 16.608 138.213 16.552 138.792 16.552C139.837 16.552 140.761 16.7247 141.564 17.07C142.367 17.4153 143.001 17.8587 143.468 18.4C143.953 17.896 144.607 17.462 145.428 17.098C146.249 16.734 147.201 16.552 148.284 16.552C149.143 16.552 149.936 16.6827 150.664 16.944C151.392 17.2053 152.017 17.5973 152.54 18.12C153.063 18.6427 153.469 19.2773 153.758 20.024C154.047 20.7707 154.192 21.6387 154.192 22.628V28.564L155.452 29.992L151.98 32.932L149.712 30.664V23.16C149.712 22.432 149.507 21.8533 149.096 21.424C148.685 20.9947 148.088 20.78 147.304 20.78C146.968 20.78 146.651 20.8173 146.352 20.892C146.053 20.9667 145.792 21.0693 145.568 21.2V31H141.088V23.048C141.088 22.2827 140.883 21.6947 140.472 21.284C140.061 20.8733 139.464 20.668 138.68 20.668C138.344 20.668 138.027 20.7053 137.728 20.78C137.429 20.8547 137.168 20.9573 136.944 21.088V31H132.464V18.932Z" fill="#000937"/>
<path id="Shape_3" fill-rule="evenodd" clip-rule="evenodd" d="M161.556 30.72C162.489 31.0747 163.535 31.252 164.692 31.252C165.849 31.252 166.89 31.0747 167.814 30.72C168.738 30.3653 169.522 29.8613 170.166 29.208C170.81 28.5547 171.305 27.7613 171.65 26.828C171.995 25.8947 172.168 24.8587 172.168 23.72C172.168 22.544 171.991 21.4987 171.636 20.584C171.281 19.6693 170.777 18.904 170.124 18.288C169.471 17.672 168.682 17.2007 167.758 16.874C166.834 16.5473 165.793 16.384 164.636 16.384C163.497 16.384 162.461 16.5473 161.528 16.874C160.595 17.2007 159.806 17.672 159.162 18.288C158.518 18.904 158.019 19.6647 157.664 20.57C157.309 21.4753 157.132 22.5067 157.132 23.664C157.132 24.8213 157.309 25.8667 157.664 26.8C158.019 27.7333 158.523 28.5313 159.176 29.194C159.829 29.8567 160.623 30.3653 161.556 30.72ZM166.834 26.478C166.339 27.1593 165.625 27.5 164.692 27.5C163.759 27.5 163.026 27.1593 162.494 26.478C161.962 25.7967 161.696 24.868 161.696 23.692C161.696 22.4973 161.962 21.5967 162.494 20.99C163.026 20.3833 163.74 20.08 164.636 20.08C165.532 20.08 166.246 20.3833 166.778 20.99C167.31 21.5967 167.576 22.5067 167.576 23.72C167.576 24.8773 167.329 25.7967 166.834 26.478Z" fill="#000937"/>
<path id="Path_5" d="M174.688 16.664H179.168V24.7C179.168 25.54 179.387 26.1793 179.826 26.618C180.265 27.0567 180.867 27.276 181.632 27.276C182.397 27.276 182.995 27.0567 183.424 26.618C183.853 26.1793 184.068 25.54 184.068 24.7V16.664H188.548V27.5L190.088 29.292L186.308 32.288L184.572 30.104C184.143 30.384 183.643 30.6033 183.074 30.762C182.505 30.9207 181.8 31 180.96 31C178.851 31 177.278 30.4867 176.242 29.46C175.206 28.4333 174.688 26.9307 174.688 24.952V16.664Z" fill="#000937"/>
<path id="Path_6" d="M193.812 20.472H191.488V17.14H193.924V13.192H198.404V17.14H202.212V20.5H198.432V25.708C198.432 26.4173 198.605 26.9027 198.95 27.164C199.295 27.4253 199.711 27.556 200.196 27.556C200.495 27.556 200.826 27.5233 201.19 27.458C201.554 27.3927 201.839 27.2947 202.044 27.164L202.8 30.468C202.333 30.7293 201.797 30.916 201.19 31.028C200.583 31.14 199.981 31.196 199.384 31.196C198.563 31.196 197.811 31.098 197.13 30.902C196.449 30.706 195.861 30.3933 195.366 29.964C194.871 29.5347 194.489 28.984 194.218 28.312C193.947 27.64 193.812 26.8187 193.812 25.848V20.472Z" fill="#000937"/>
</g>
<g id="Group 21">
<g id="Group 8">
<circle id="Oval" cx="10" cy="10" r="10" fill="#22B840"/>
<path id="Triangle" fill-rule="evenodd" clip-rule="evenodd" d="M20 30L0 40L0 20L20 30Z" fill="#1396E5"/>
<rect id="Rectangle" x="20" y="20" width="20" height="20" fill="#F6BB05"/>
</g>
</g>
</g>
</svg>
