<svg width="88" height="16" viewBox="0 0 88 16" fill="none" xmlns="http://www.w3.org/2000/svg">
<g id="Group 4">
<path id="Star" fill-rule="evenodd" clip-rule="evenodd" d="M8 12.7607L3.29772 14.4721L3.47233 9.47113L0.391548 5.52786L5.20175 4.14854L8 0L10.7983 4.14854L15.6085 5.52786L12.5277 9.47113L12.7023 14.4721L8 12.7607Z" fill="#F6BB05"/>
<path id="Star_2" fill-rule="evenodd" clip-rule="evenodd" d="M26 12.7607L21.2977 14.4721L21.4723 9.47113L18.3915 5.52786L23.2017 4.14854L26 0L28.7983 4.14854L33.6085 5.52786L30.5277 9.47113L30.7023 14.4721L26 12.7607Z" fill="#F6BB05"/>
<path id="Star_3" fill-rule="evenodd" clip-rule="evenodd" d="M44 12.7607L39.2977 14.4721L39.4723 9.47113L36.3915 5.52786L41.2017 4.14854L44 0L46.7983 4.14854L51.6085 5.52786L48.5277 9.47113L48.7023 14.4721L44 12.7607Z" fill="#F6BB05"/>
<path id="Star_4" fill-rule="evenodd" clip-rule="evenodd" d="M62 12.7607L57.2977 14.4721L57.4723 9.47113L54.3915 5.52786L59.2017 4.14854L62 0L64.7983 4.14854L69.6085 5.52786L66.5277 9.47113L66.7023 14.4721L62 12.7607Z" fill="#F6BB05"/>
<path id="Star_5" fill-rule="evenodd" clip-rule="evenodd" d="M80 12.7607L75.2977 14.4721L75.4723 9.47113L72.3915 5.52786L77.2017 4.14854L80 0L82.7983 4.14854L87.6085 5.52786L84.5277 9.47113L84.7023 14.4721L80 12.7607Z" fill="#F6BB05"/>
</g>
</svg>
