<svg width="48" height="48" viewBox="0 0 48 48" fill="none" xmlns="http://www.w3.org/2000/svg">
<g id="Group 17">
<circle id="Oval" cx="24" cy="24" r="23.25" stroke="#000937" stroke-width="1.5"/>
<g id="arrow-right">
<path id="Path" d="M23.8156 17.1099L23.1969 17.7286C23.0505 17.875 23.0505 18.1124 23.1969 18.2589L28.0447 23.1067H17.375C17.1679 23.1067 17 23.2746 17 23.4817V24.3567C17 24.5638 17.1679 24.7317 17.375 24.7317H28.0447L23.1969 29.5795C23.0505 29.7259 23.0505 29.9634 23.1969 30.1098L23.8156 30.7286C23.9621 30.875 24.1995 30.875 24.346 30.7286L30.8902 24.1844C31.0366 24.0379 31.0366 23.8005 30.8902 23.654L24.346 17.1099C24.1995 16.9634 23.9621 16.9634 23.8156 17.1099Z" fill="#000937"/>
</g>
</g>
</svg>
