<svg width="160" height="160" viewBox="0 0 160 160" fill="none" xmlns="http://www.w3.org/2000/svg">
<g id="Group 12" clip-path="url(#clip0_0_347)">
<mask id="mask0_0_347" style="mask-type:luminance" maskUnits="userSpaceOnUse" x="0" y="0" width="160" height="160">
<rect id="Rectangle" width="160" height="160" rx="20" fill="white"/>
</mask>
<g mask="url(#mask0_0_347)">
<path id="AQ score" d="M57.1699 26.8008L58.6592 23.8613H60.29L57.9219 28.2217V31H56.418V28.2705L54.0498 23.8613H55.6904L57.1699 26.8008ZM66.0322 28.2607C66.0322 28.7165 65.9704 29.1201 65.8467 29.4717C65.7262 29.8232 65.5488 30.1211 65.3145 30.3652C65.0833 30.6061 64.8034 30.7884 64.4746 30.9121C64.1491 31.0358 63.7812 31.0977 63.3711 31.0977C62.987 31.0977 62.6338 31.0358 62.3115 30.9121C61.9925 30.7884 61.7142 30.6061 61.4766 30.3652C61.2422 30.1211 61.0599 29.8232 60.9297 29.4717C60.8027 29.1201 60.7393 28.7165 60.7393 28.2607C60.7393 27.6553 60.8467 27.1426 61.0615 26.7227C61.2764 26.3027 61.5824 25.9837 61.9795 25.7656C62.3766 25.5475 62.8503 25.4385 63.4004 25.4385C63.9115 25.4385 64.3639 25.5475 64.7578 25.7656C65.1549 25.9837 65.4658 26.3027 65.6904 26.7227C65.9183 27.1426 66.0322 27.6553 66.0322 28.2607ZM62.2578 28.2607C62.2578 28.6188 62.2969 28.9199 62.375 29.1641C62.4531 29.4082 62.5752 29.5921 62.7412 29.7158C62.9072 29.8395 63.1237 29.9014 63.3906 29.9014C63.6543 29.9014 63.8675 29.8395 64.0303 29.7158C64.1963 29.5921 64.3167 29.4082 64.3916 29.1641C64.4697 28.9199 64.5088 28.6188 64.5088 28.2607C64.5088 27.8994 64.4697 27.5999 64.3916 27.3623C64.3167 27.1214 64.1963 26.9408 64.0303 26.8203C63.8643 26.6999 63.6478 26.6396 63.3809 26.6396C62.987 26.6396 62.7005 26.7747 62.5215 27.0449C62.3457 27.3151 62.2578 27.7204 62.2578 28.2607ZM72.2725 25.541V31H71.1299L70.9297 30.3018H70.8516C70.7344 30.4873 70.5879 30.6387 70.4121 30.7559C70.2363 30.873 70.0426 30.9593 69.8311 31.0146C69.6195 31.07 69.3997 31.0977 69.1719 31.0977C68.7812 31.0977 68.4411 31.0293 68.1514 30.8926C67.8617 30.7526 67.6354 30.5361 67.4727 30.2432C67.3132 29.9502 67.2334 29.5693 67.2334 29.1006V25.541H68.7227V28.7295C68.7227 29.1201 68.7926 29.4147 68.9326 29.6133C69.0726 29.8118 69.2956 29.9111 69.6016 29.9111C69.9043 29.9111 70.1419 29.8428 70.3145 29.7061C70.487 29.5661 70.6074 29.3626 70.6758 29.0957C70.7474 28.8255 70.7832 28.4967 70.7832 28.1094V25.541H72.2725ZM76.8818 25.4385C76.9567 25.4385 77.043 25.4434 77.1406 25.4531C77.2415 25.4596 77.3229 25.4694 77.3848 25.4824L77.2725 26.8789C77.2236 26.8626 77.1536 26.8512 77.0625 26.8447C76.9746 26.835 76.8981 26.8301 76.833 26.8301C76.641 26.8301 76.4538 26.8545 76.2715 26.9033C76.0924 26.9521 75.9313 27.0319 75.7881 27.1426C75.6449 27.25 75.5309 27.3932 75.4463 27.5723C75.3649 27.748 75.3242 27.9645 75.3242 28.2217V31H73.835V25.541H74.9629L75.1826 26.459H75.2559C75.3633 26.2734 75.4967 26.1042 75.6562 25.9512C75.819 25.7949 76.0029 25.6712 76.208 25.5801C76.4163 25.4857 76.641 25.4385 76.8818 25.4385ZM84.7822 29.3789C84.7822 29.75 84.6943 30.0641 84.5186 30.3213C84.346 30.5752 84.0872 30.7689 83.7422 30.9023C83.3971 31.0326 82.9674 31.0977 82.4531 31.0977C82.0723 31.0977 81.7451 31.0732 81.4717 31.0244C81.2015 30.9756 80.9281 30.8942 80.6514 30.7803V29.5498C80.9476 29.6833 81.265 29.7939 81.6035 29.8818C81.9453 29.9665 82.2448 30.0088 82.502 30.0088C82.7917 30.0088 82.9984 29.9665 83.1221 29.8818C83.249 29.7939 83.3125 29.68 83.3125 29.54C83.3125 29.4489 83.2865 29.3675 83.2344 29.2959C83.1855 29.221 83.0781 29.138 82.9121 29.0469C82.7461 28.9525 82.4857 28.8304 82.1309 28.6807C81.7891 28.5374 81.5075 28.3926 81.2861 28.2461C81.068 28.0996 80.9053 27.9271 80.7979 27.7285C80.6937 27.5267 80.6416 27.2712 80.6416 26.9619C80.6416 26.4574 80.8369 26.0781 81.2275 25.8242C81.6214 25.5671 82.1471 25.4385 82.8047 25.4385C83.1432 25.4385 83.4655 25.4727 83.7715 25.541C84.0807 25.6094 84.3981 25.7184 84.7236 25.8682L84.2744 26.9424C84.0042 26.8252 83.7487 26.7292 83.5078 26.6543C83.2702 26.5794 83.0277 26.542 82.7803 26.542C82.5622 26.542 82.3978 26.5713 82.2871 26.6299C82.1764 26.6885 82.1211 26.778 82.1211 26.8984C82.1211 26.9863 82.1488 27.0645 82.2041 27.1328C82.2627 27.2012 82.3734 27.2777 82.5361 27.3623C82.7021 27.4437 82.9447 27.5495 83.2637 27.6797C83.5729 27.8066 83.8415 27.9401 84.0693 28.0801C84.2972 28.2168 84.473 28.3877 84.5967 28.5928C84.7204 28.7946 84.7822 29.0566 84.7822 29.3789ZM88.1611 31.0977C87.6208 31.0977 87.1602 31 86.7793 30.8047C86.3984 30.6061 86.1087 30.3001 85.9102 29.8867C85.7116 29.4733 85.6123 28.9443 85.6123 28.2998C85.6123 27.6325 85.7246 27.0889 85.9492 26.6689C86.1771 26.2458 86.4912 25.9349 86.8916 25.7363C87.2952 25.5378 87.7624 25.4385 88.293 25.4385C88.6706 25.4385 88.9961 25.4759 89.2695 25.5508C89.5462 25.6224 89.7871 25.7087 89.9922 25.8096L89.5527 26.9619C89.3184 26.8675 89.1003 26.791 88.8984 26.7324C88.6966 26.6706 88.4948 26.6396 88.293 26.6396C88.0326 26.6396 87.8161 26.7015 87.6436 26.8252C87.471 26.9456 87.3424 27.1279 87.2578 27.3721C87.1732 27.6162 87.1309 27.9222 87.1309 28.29C87.1309 28.6514 87.1764 28.9508 87.2676 29.1885C87.3587 29.4261 87.4906 29.6035 87.6631 29.7207C87.8356 29.8346 88.0456 29.8916 88.293 29.8916C88.6022 29.8916 88.8773 29.8509 89.1182 29.7695C89.359 29.6849 89.5934 29.5677 89.8213 29.418V30.6924C89.5934 30.8356 89.3542 30.9382 89.1035 31C88.8561 31.0651 88.542 31.0977 88.1611 31.0977ZM96.0518 28.2607C96.0518 28.7165 95.9899 29.1201 95.8662 29.4717C95.7458 29.8232 95.5684 30.1211 95.334 30.3652C95.1029 30.6061 94.8229 30.7884 94.4941 30.9121C94.1686 31.0358 93.8008 31.0977 93.3906 31.0977C93.0065 31.0977 92.6533 31.0358 92.3311 30.9121C92.012 30.7884 91.7337 30.6061 91.4961 30.3652C91.2617 30.1211 91.0794 29.8232 90.9492 29.4717C90.8223 29.1201 90.7588 28.7165 90.7588 28.2607C90.7588 27.6553 90.8662 27.1426 91.0811 26.7227C91.2959 26.3027 91.6019 25.9837 91.999 25.7656C92.3962 25.5475 92.8698 25.4385 93.4199 25.4385C93.931 25.4385 94.3835 25.5475 94.7773 25.7656C95.1745 25.9837 95.4854 26.3027 95.71 26.7227C95.9378 27.1426 96.0518 27.6553 96.0518 28.2607ZM92.2773 28.2607C92.2773 28.6188 92.3164 28.9199 92.3945 29.1641C92.4727 29.4082 92.5947 29.5921 92.7607 29.7158C92.9268 29.8395 93.1432 29.9014 93.4102 29.9014C93.6738 29.9014 93.887 29.8395 94.0498 29.7158C94.2158 29.5921 94.3363 29.4082 94.4111 29.1641C94.4893 28.9199 94.5283 28.6188 94.5283 28.2607C94.5283 27.8994 94.4893 27.5999 94.4111 27.3623C94.3363 27.1214 94.2158 26.9408 94.0498 26.8203C93.8838 26.6999 93.6673 26.6396 93.4004 26.6396C93.0065 26.6396 92.7201 26.7747 92.541 27.0449C92.3652 27.3151 92.2773 27.7204 92.2773 28.2607ZM100.329 25.4385C100.404 25.4385 100.49 25.4434 100.588 25.4531C100.689 25.4596 100.77 25.4694 100.832 25.4824L100.72 26.8789C100.671 26.8626 100.601 26.8512 100.51 26.8447C100.422 26.835 100.345 26.8301 100.28 26.8301C100.088 26.8301 99.901 26.8545 99.7188 26.9033C99.5397 26.9521 99.3786 27.0319 99.2354 27.1426C99.0921 27.25 98.9782 27.3932 98.8936 27.5723C98.8122 27.748 98.7715 27.9645 98.7715 28.2217V31H97.2822V25.541H98.4102L98.6299 26.459H98.7031C98.8105 26.2734 98.944 26.1042 99.1035 25.9512C99.2663 25.7949 99.4502 25.6712 99.6553 25.5801C99.8636 25.4857 100.088 25.4385 100.329 25.4385ZM104.074 25.4385C104.579 25.4385 105.013 25.5361 105.378 25.7314C105.743 25.9235 106.024 26.2035 106.223 26.5713C106.421 26.9391 106.521 27.3883 106.521 27.9189V28.6416H103C103.016 29.0615 103.142 29.3919 103.376 29.6328C103.614 29.8704 103.942 29.9893 104.362 29.9893C104.711 29.9893 105.03 29.9535 105.319 29.8818C105.609 29.8102 105.907 29.7028 106.213 29.5596V30.7119C105.943 30.8454 105.66 30.943 105.363 31.0049C105.07 31.0667 104.714 31.0977 104.294 31.0977C103.747 31.0977 103.262 30.9967 102.839 30.7949C102.419 30.5931 102.089 30.2855 101.848 29.8721C101.61 29.4587 101.491 28.9378 101.491 28.3096C101.491 27.6715 101.599 27.141 101.813 26.7178C102.032 26.2913 102.334 25.9723 102.722 25.7607C103.109 25.5459 103.56 25.4385 104.074 25.4385ZM104.084 26.498C103.794 26.498 103.553 26.5908 103.361 26.7764C103.173 26.9619 103.063 27.2533 103.034 27.6504H105.124C105.121 27.429 105.08 27.2321 105.002 27.0596C104.927 26.887 104.813 26.7503 104.66 26.6494C104.51 26.5485 104.318 26.498 104.084 26.498Z" fill="#000937"/>
<path id="Path 4" fill-rule="evenodd" clip-rule="evenodd" d="M0 109.339C77.7143 109.453 105.143 58.3378 160 60.0417C160 94.6863 160 160 160 160C160 160 0 160 0 160C0 160 0 135.578 0 109.339Z" fill="url(#paint0_linear_0_347)"/>
<path id="Path 4_2" d="M0 108.999C77.7143 109.114 105.5 59 160 59" stroke="url(#paint1_linear_0_347)" stroke-width="2" stroke-linecap="round" stroke-linejoin="round"/>
<circle id="Oval" cx="101" cy="77" r="7" fill="url(#paint2_linear_0_347)"/>
<circle id="Oval_2" cx="14.5" cy="108" r="4.5" fill="#1396E5"/>
<path id="0-11" opacity="0.596126" d="M11.5195 95.1367C11.5195 96.1237 11.3633 96.8607 11.0508 97.3477C10.7409 97.8346 10.2656 98.0781 9.625 98.0781C9.01042 98.0781 8.54297 97.8294 8.22266 97.332C7.90234 96.832 7.74219 96.1003 7.74219 95.1367C7.74219 94.1419 7.89714 93.4036 8.20703 92.9219C8.51693 92.4401 8.98958 92.1992 9.625 92.1992C10.2448 92.1992 10.7148 92.4505 11.0352 92.9531C11.3581 93.4557 11.5195 94.1836 11.5195 95.1367ZM8.39844 95.1367C8.39844 95.9674 8.49609 96.5729 8.69141 96.9531C8.88672 97.3307 9.19792 97.5195 9.625 97.5195C10.0573 97.5195 10.3698 97.3281 10.5625 96.9453C10.7578 96.5599 10.8555 95.957 10.8555 95.1367C10.8555 94.3164 10.7578 93.7161 10.5625 93.3359C10.3698 92.9531 10.0573 92.7617 9.625 92.7617C9.19792 92.7617 8.88672 92.9505 8.69141 93.3281C8.49609 93.7031 8.39844 94.306 8.39844 95.1367ZM12.25 96.1523V95.5586H14.168V96.1523H12.25ZM17.293 98H16.6602V93.9297C16.6602 93.5911 16.6706 93.2708 16.6914 92.9688C16.6367 93.0234 16.5755 93.0807 16.5078 93.1406C16.4401 93.2005 16.1302 93.4544 15.5781 93.9023L15.2344 93.457L16.7461 92.2891H17.293V98ZM21.8711 98H21.2383V93.9297C21.2383 93.5911 21.2487 93.2708 21.2695 92.9688C21.2148 93.0234 21.1536 93.0807 21.0859 93.1406C21.0182 93.2005 20.7083 93.4544 20.1562 93.9023L19.8125 93.457L21.3242 92.2891H21.8711V98Z" fill="#000937"/>
<circle id="Oval_3" cx="145.5" cy="60" r="4.5" fill="#FF3234"/>
<path id="32-50" opacity="0.596126" d="M139.984 45.6328C139.984 45.9974 139.882 46.2956 139.676 46.5273C139.473 46.7591 139.184 46.9141 138.809 46.9922V47.0234C139.267 47.0807 139.607 47.2266 139.828 47.4609C140.049 47.6953 140.16 48.0026 140.16 48.3828C140.16 48.9271 139.971 49.3464 139.594 49.6406C139.216 49.9323 138.68 50.0781 137.984 50.0781C137.682 50.0781 137.405 50.0547 137.152 50.0078C136.902 49.9635 136.659 49.8841 136.422 49.7695V49.1523C136.669 49.2747 136.932 49.3685 137.211 49.4336C137.492 49.4961 137.758 49.5273 138.008 49.5273C138.995 49.5273 139.488 49.1406 139.488 48.3672C139.488 47.6745 138.944 47.3281 137.855 47.3281H137.293V46.7695H137.863C138.309 46.7695 138.661 46.6719 138.922 46.4766C139.182 46.2786 139.312 46.0052 139.312 45.6562C139.312 45.3776 139.216 45.1589 139.023 45C138.833 44.8411 138.574 44.7617 138.246 44.7617C137.996 44.7617 137.76 44.7956 137.539 44.8633C137.318 44.931 137.065 45.056 136.781 45.2383L136.453 44.8008C136.688 44.6159 136.957 44.4714 137.262 44.3672C137.569 44.2604 137.892 44.207 138.23 44.207C138.785 44.207 139.216 44.3346 139.523 44.5898C139.831 44.8424 139.984 45.1901 139.984 45.6328ZM144.777 50H141.023V49.4414L142.527 47.9297C142.986 47.4661 143.288 47.1354 143.434 46.9375C143.579 46.7396 143.689 46.5469 143.762 46.3594C143.835 46.1719 143.871 45.9701 143.871 45.7539C143.871 45.4492 143.779 45.2083 143.594 45.0312C143.409 44.8516 143.152 44.7617 142.824 44.7617C142.587 44.7617 142.362 44.8008 142.148 44.8789C141.938 44.957 141.702 45.099 141.441 45.3047L141.098 44.8633C141.624 44.4258 142.197 44.207 142.816 44.207C143.353 44.207 143.773 44.3451 144.078 44.6211C144.383 44.8945 144.535 45.263 144.535 45.7266C144.535 46.0885 144.434 46.4466 144.23 46.8008C144.027 47.1549 143.647 47.6029 143.09 48.1445L141.84 49.3672V49.3984H144.777V50ZM145.539 48.1523V47.5586H147.457V48.1523H145.539ZM149.965 46.5117C150.566 46.5117 151.039 46.6615 151.383 46.9609C151.729 47.2578 151.902 47.6654 151.902 48.1836C151.902 48.7747 151.714 49.2383 151.336 49.5742C150.961 49.9102 150.443 50.0781 149.781 50.0781C149.138 50.0781 148.647 49.9753 148.309 49.7695V49.1445C148.491 49.2617 148.717 49.3542 148.988 49.4219C149.259 49.487 149.526 49.5195 149.789 49.5195C150.247 49.5195 150.603 49.4115 150.855 49.1953C151.111 48.9792 151.238 48.6667 151.238 48.2578C151.238 47.4609 150.75 47.0625 149.773 47.0625C149.526 47.0625 149.195 47.1003 148.781 47.1758L148.445 46.9609L148.66 44.2891H151.5V44.8867H149.215L149.07 46.6016C149.37 46.5417 149.668 46.5117 149.965 46.5117ZM156.543 47.1367C156.543 48.1237 156.387 48.8607 156.074 49.3477C155.764 49.8346 155.289 50.0781 154.648 50.0781C154.034 50.0781 153.566 49.8294 153.246 49.332C152.926 48.832 152.766 48.1003 152.766 47.1367C152.766 46.1419 152.921 45.4036 153.23 44.9219C153.54 44.4401 154.013 44.1992 154.648 44.1992C155.268 44.1992 155.738 44.4505 156.059 44.9531C156.382 45.4557 156.543 46.1836 156.543 47.1367ZM153.422 47.1367C153.422 47.9674 153.52 48.5729 153.715 48.9531C153.91 49.3307 154.221 49.5195 154.648 49.5195C155.081 49.5195 155.393 49.3281 155.586 48.9453C155.781 48.5599 155.879 47.957 155.879 47.1367C155.879 46.3164 155.781 45.7161 155.586 45.3359C155.393 44.9531 155.081 44.7617 154.648 44.7617C154.221 44.7617 153.91 44.9505 153.715 45.3281C153.52 45.7031 153.422 46.306 153.422 47.1367Z" fill="#000937"/>
</g>
</g>
<defs>
<linearGradient id="paint0_linear_0_347" x1="0.29065" y1="60" x2="0.29065" y2="159.637" gradientUnits="userSpaceOnUse">
<stop stop-color="#1396E5" stop-opacity="0.2"/>
<stop offset="1" stop-color="#1396E5" stop-opacity="0.01"/>
</linearGradient>
<linearGradient id="paint1_linear_0_347" x1="99.0527" y1="128.185" x2="117.068" y2="53.0607" gradientUnits="userSpaceOnUse">
<stop stop-color="#1396E5"/>
<stop offset="1" stop-color="#FF3234"/>
</linearGradient>
<linearGradient id="paint2_linear_0_347" x1="45.0117" y1="171.543" x2="166.218" y2="120.229" gradientUnits="userSpaceOnUse">
<stop stop-color="#1396E5"/>
<stop offset="1" stop-color="#FF3234"/>
</linearGradient>
<clipPath id="clip0_0_347">
<rect width="160" height="160" fill="white"/>
</clipPath>
</defs>
</svg>
