<?xml version="1.0" encoding="utf-8"?>
<!-- Generator: Adobe Illustrator 26.4.1, SVG Export Plug-In . SVG Version: 6.00 Build 0)  -->
<svg version="1.1" id="Layer_1" xmlns="http://www.w3.org/2000/svg" xmlns:xlink="http://www.w3.org/1999/xlink" x="0px" y="0px"
	 viewBox="0 0 223.4352 347.568" enable-background="new 0 0 223.4352 347.568" xml:space="preserve">
<g>
	<polygon points="163.7621,20.8291 170.0238,33.0957 181.349,0 148.2523,11.3242 160.5199,17.5859 143.1207,34.0088 
		151.3219,34.0088 	"/>
	<path d="M111.8902,157.9608c-4.0444-1.7773-8.7646,0.0566-10.5449,4.0996l-11.752,26.7012
		c-8.5341-11.4267-17.8182-22.3418-24.5521-26.165c-1.2825-0.9465-2.8627-1.5129-4.5794-1.5129H21.8271
		c-0.3685,0-0.7281,0.0347-1.0828,0.0845c-2.0013,0.2003-4.7144,0.9926-7.4963,3.4047
		c-5.6216,4.8749-9.4331,14.8073-11.4751,30.0053c-1.8539,13.7984-2.2498,31.9354-1.2065,54.6011
		c0.1973,4.2881,3.7363,7.6318,7.9854,7.6318c0.124,0,0.248-0.0029,0.374-0.0088c4.4131-0.2031,7.8262-3.9453,7.623-8.3594
		c-1.1872-25.8075-0.23-42.4861,1.3281-53.1998l2.3212,0.0958c-1.5411,10.4409-2.5472,27.0034-1.3514,52.9985
		c0.1748,3.8037-1.7528,7.2197-4.748,9.1421v77.7251c0,6.8301,5.5371,12.3633,12.3652,12.3633
		c6.8262,0,12.3633-5.5332,12.3633-12.3633v-90.2715h4.6348v90.2715c0,6.8301,5.5371,12.3633,12.3652,12.3633
		c6.8262,0,12.3633-5.5332,12.3633-12.3633v-98v-18.9395v-20.9948v-9.7122c5.2429,6.305,11.3563,14.3881,16.5118,21.8107
		c1.5034,2.165,3.9653,3.4365,6.5693,3.4365c0.2554,0,0.5127-0.0127,0.77-0.0371c2.8813-0.2783,5.3877-2.0908,6.5537-4.7402
		l17.3945-39.5225C117.7696,164.4618,115.9341,159.7411,111.8902,157.9608z"/>
	<path d="M41.1455,110.3856c-12.4278,0-22.5,10.0732-22.5,22.5c0,12.4267,10.0722,22.5,22.5,22.5c12.4257,0,22.5-10.0733,22.5-22.5
		C63.6455,120.4589,53.5713,110.3856,41.1455,110.3856z M46.7759,144.5013c-6.0178,1.3494-11.1655,2.6248-11.7294,0.1099
		s3.8573-5.6475,9.875-6.9969c6.0178-1.3494,11.3533-0.4045,11.9172,2.1104S52.7937,143.1519,46.7759,144.5013z"/>
	<path d="M182.2896,110.3856c-6.0903,0-11.6119,2.424-15.6631,6.3549c3.0743,0.6801,5.4431,3.0682,6.1699,6.0452l3.2603,0.2901
		c1.2658-2.8995,4.1309-4.8743,7.4731-4.8743c0.2417,0,0.4854,0.0107,0.7305,0.0322c2.1748,0.1934,4.144,1.2217,5.5454,2.8975
		c0.8188,0.9786,1.378,2.1116,1.6697,3.3165l12.0753,1.0743C200.5003,116.7131,192.1373,110.3856,182.2896,110.3856z"/>
	<path d="M191.6787,127.1009c-0.3779,4.248-3.876,7.4512-8.1367,7.4512c-0.0005,0-0.0005,0-0.001,0
		c-0.2412,0-0.4844-0.0107-0.73-0.0322c-4.4897-0.4004-7.8174-4.3789-7.418-8.8672c0.0075-0.0842,0.024-0.1652,0.0339-0.2485
		l-2.4149-0.2148c-0.0049,0.0838-0.0021,0.1663-0.0096,0.2505c-0.3779,4.2471-3.876,7.4502-8.1367,7.4502c0,0,0,0-0.0005,0
		c-0.2412,0-0.4849-0.0107-0.73-0.0322c-1.5809-0.1406-3.0503-0.7272-4.2747-1.6779c-0.0423,0.5637-0.0709,1.1312-0.0709,1.7057
		c0,12.4267,10.0743,22.5,22.5,22.5c12.4278,0,22.5-10.0733,22.5-22.5c0-1.6899-0.1923-3.334-0.5455-4.9175l-12.5554-1.1171
		C191.6839,126.9344,191.6862,127.0173,191.6787,127.1009z M188.3887,144.6112c-0.5639,2.5149-5.7117,1.2394-11.7294-0.1099
		c-6.0177-1.3494-10.6266-2.2617-10.0627-4.7766s5.8994-3.4597,11.9172-2.1104
		C184.5315,138.9637,188.9527,142.0963,188.3887,144.6112z"/>
	<path d="M155.2448,198.7018v19.5635v18.9395v98c0,6.8301,5.5371,12.3633,12.3633,12.3633c6.8281,0,12.3652-5.5332,12.3652-12.3633
		v-90.2715h4.6348v90.2715c0,6.8301,5.5371,12.3633,12.3633,12.3633c6.8281,0,12.3652-5.5332,12.3652-12.3633v-77.7251
		c-2.9952-1.9224-4.9229-5.3384-4.748-9.1421c1.0754-23.3767,0.3681-39.1074-0.9056-49.6357h2.3304
		c1.2754,10.7439,1.9395,26.5588,0.873,49.7412c-0.2031,4.4141,3.21,8.1562,7.623,8.3594c0.126,0.0059,0.25,0.0088,0.374,0.0088
		c4.249,0,7.7881-3.3438,7.9854-7.6318c1.0433-22.6658,0.6473-40.8027-1.2065-54.6011
		c-2.042-15.1981-5.8535-25.1304-11.4751-30.0053c-2.7819-2.4122-5.4949-3.2044-7.4963-3.4047
		c-0.3547-0.0499-0.7143-0.0845-1.0828-0.0845h-38.6348c-0.3588,0-0.709,0.033-1.0547,0.0803
		c-2.0037,0.1953-4.7297,0.9839-7.5256,3.4083c-10.7246,9.2998-14.873,36.9756-12.6812,84.6074
		c0.1973,4.2881,3.7358,7.6328,7.9854,7.6318c0.124,0,0.249-0.0029,0.374-0.0088c1.0239-0.0471,1.9901-0.2916,2.8737-0.6838v-57.417
		H155.2448z"/>
	<path d="M165.3802,118.863c-3.2314-0.2875-6.085,2.0998-6.3725,5.3312c-0.2876,3.2324,2.0998,6.085,5.3312,6.3726
		c3.2313,0.2875,6.085-2.0989,6.3725-5.3312C170.999,122.0042,168.6116,119.1506,165.3802,118.863z"/>
	<path d="M184.0565,120.5247c-3.2314-0.2875-6.085,2.0998-6.3726,5.3312c-0.2876,3.2323,2.0998,6.085,5.3312,6.3725
		c3.2313,0.2875,6.085-2.0989,6.3726-5.3312C189.6752,123.6658,187.2878,120.8122,184.0565,120.5247z"/>
	<path d="M158.154,105.0791l-16.7812-21.3574h18.377c3.7695,0,6.8262-3.0557,6.8262-6.8262V43.835
		c0-3.7705-3.0566-6.8262-6.8262-6.8262H111.829l-0.0154,0.2465l-5.7474,5.4448l-6.9573-2.7224l1.3917-2.9689h-20.237
		c-3.7695,0-6.8252,3.0557-6.8252,6.8262v33.0605c0,3.7705,3.0557,6.8262,6.8252,6.8262h5.8185l16.9842-16.0312l-14.9311,2.8307
		l19.8514-7.4749l1.1813-1.1151l-22.3538-3.4651l23.367-2.0642l-13.2936-8.6973l16.4036,5.3945l-0.8807-9.688l8.6697,11.0092
		l13.3486-10.789l-2.9449,11.5321l24.5229-4.4862l-24,9.578l19.1559,13.7614l-20.9174-7.0458l-0.8807,12.1101l-7.5809-9.4067
		l-3.6792,3.8978l-2.7216,6.9401l0.2158-4.2853l-7.0745,7.495h20.9492L158.154,105.0791z M87.4765,48.68l-5.1999,2.5336
		l-0.2214-6.5914l4.0101-3.7327l3.2432,2.7725L87.4765,48.68z M120.8872,44.7079l2.7653-2.1625l1.9181,1.9483l-1.4455,3.1029
		l-3.0109,0.1293L120.8872,44.7079z M141.7401,48.7656l-2.5618-0.9551l-0.0013-3.423l2.6741-1.3898l1.4812,2.6394L141.7401,48.7656z
		 M149.0677,64.2507l4.0684-5.1907l5.4713-0.2806l0.7014,4.2087l-4.6295,2.6655L149.0677,64.2507z"/>
	<polygon points="124.7625,62.1472 118.6325,57.1228 65.7074,107.0781 73.7259,107.623 74.2708,115.6406 	"/>
	<polygon points="64.4679,81.0899 69.0974,78.4244 68.396,74.2158 62.9246,74.4963 58.8563,79.687 	"/>
	<polygon points="112.9627,111.5975 114.7946,106.5793 111.5514,103.8069 107.5413,107.5396 108.5297,111.3928 	"/>
	<polygon points="123.3284,96.1089 126.9688,97.5334 129.9762,94.6844 130.1345,92.1519 125.7026,91.0439 	"/>
	<polygon points="106.689,29.1899 105.9875,24.9812 100.5163,25.2618 98.0985,29.3194 102.0594,31.8554 103.233,31.1797 
		104.4259,30.4929 	"/>
	<polygon points="118.9987,29.9174 116.5404,27.4115 113.5667,27.9749 114.0322,30.9524 117.2774,32.0415 	"/>
	<path d="M167.7865,86.6685c-0.5424,0.0972-0.9058,0.6163-0.8091,1.16c0.097,0.544,0.6163,0.9057,1.1602,0.809
		c2.3361-0.4164,4.0564-1.4331,5.1136-3.0231c1.6333-2.4545,1.0116-5.3444,0.9845-5.4661
		c-0.1202-0.5372-0.6517-0.8741-1.1898-0.7563c-0.0367,0.0079-0.0725,0.0179-0.1074,0.0297
		c-0.475,0.161-0.7634,0.6578-0.6555,1.1595c0.0048,0.0216,0.457,2.2069-0.7066,3.9397
		C170.8318,85.6307,169.5566,86.3541,167.7865,86.6685z"/>
	<path d="M169.3593,92.9207c3.5013-0.4871,6.1205-1.8832,7.785-4.1518c2.5336-3.4525,1.8668-7.6295,1.8371-7.806
		c-0.0913-0.5434-0.6053-0.909-1.1491-0.819c-0.0546,0.0092-0.1076,0.0225-0.1584,0.0397
		c-0.4548,0.1542-0.7446,0.6195-0.6652,1.1086c0.0057,0.0352,0.5485,3.5499-1.4883,6.3092
		c-1.3336,1.8074-3.4977,2.9317-6.4361,3.3378c-0.5474,0.0788-0.9286,0.5818-0.8528,1.1284
		C168.3073,92.6148,168.8122,92.9964,169.3593,92.9207z"/>
	<path d="M69.0653,31.7094c-2.3347,1.8003-2.6736,4.7368-2.687,4.8608c-0.0586,0.5474,0.3367,1.0371,0.884,1.0981
		c0.0374,0.0044,0.0745,0.0063,0.1113,0.0063c0.5015,0,0.9341-0.3779,0.9929-0.8877c0.0024-0.022,0.2756-2.2368,1.9338-3.5044
		c1.0615-0.812,2.5015-1.0879,4.2788-0.8174c0.5449,0.082,1.0557-0.293,1.1387-0.8389c0.0828-0.5464-0.293-1.0557-0.8391-1.1387
		C72.5326,30.1323,70.577,30.5429,69.0653,31.7094z"/>
	<path d="M75.0965,26.039c-3.4724-0.6626-6.4011-0.1812-8.7058,1.4331c-3.5078,2.4565-4.217,6.6265-4.2456,6.8032
		c-0.0879,0.5439,0.2815,1.0552,0.8254,1.1445c0.0547,0.0088,0.1091,0.0132,0.1628,0.0132c0.4802,0,0.9041-0.3477,0.9858-0.8364
		c0.0059-0.0352,0.6201-3.5381,3.4348-5.4976c1.8433-1.2837,4.2537-1.6538,7.167-1.0952c0.5437,0.1011,1.0662-0.2529,1.1699-0.7949
		C75.9947,26.6664,75.639,26.143,75.0965,26.039z"/>
	<polygon points="80.33,86.7217 58.8545,105.3768 59.8379,106.5096 81.6363,87.5741 80.8963,86.7217 80.6529,86.4413 	"/>
	
		<rect x="62.6856" y="105.936" transform="matrix(0.6819 -0.7314 0.7314 0.6819 -49.6576 99.1791)" width="53.0459" height="1.5008"/>
	
		<rect x="137.0972" y="23.725" transform="matrix(0.7438 -0.6684 0.6684 0.7438 21.3787 104.728)" width="20.4247" height="1.4999"/>
	<rect x="155.2579" y="28.514" transform="matrix(0.6731 -0.7395 0.7395 0.6731 30.7384 128.0715)" width="9.975" height="1.5001"/>
</g>
</svg>
