<svg width="17" height="17" viewBox="0 0 17 17" fill="none" xmlns="http://www.w3.org/2000/svg">
<g id="star">
<path id="Shape" fill-rule="evenodd" clip-rule="evenodd" d="M11.2969 4.69414L15.8625 5.35976C16.6812 5.47851 17.0094 6.48788 16.4156 7.06601L13.1125 10.2848L13.8937 14.8316C14.0344 15.6535 13.1687 16.266 12.4437 15.8847L8.35938 13.7379L4.27501 15.8847C3.55001 16.2691 2.68439 15.6535 2.82501 14.8316L3.60626 10.2848L0.303139 7.06601C-0.29061 6.48788 0.0375148 5.47851 0.856263 5.35976L5.42188 4.69414L7.4625 0.556645C7.83125 -0.190228 8.89062 -0.180853 9.25625 0.556645L11.2969 4.69414ZM12.2437 14.0847L11.5031 9.75975L14.6469 6.69726L10.3031 6.06601L8.35938 2.12852L6.41563 6.06601L2.07189 6.69726L5.21563 9.75975L4.47501 14.0847L8.35938 12.0441L12.2437 14.0847Z" fill="#F6BB05"/>
</g>
</svg>
