<svg width="130" height="18" viewBox="0 0 130 18" fill="none" xmlns="http://www.w3.org/2000/svg">
<g id="Group 4">
<path id="Star" d="M9.25129 13.6933L9 13.604L8.74871 13.6933L4.48974 15.2078L4.61401 10.6893L4.62134 10.4227L4.45871 10.2113L1.70224 6.62881L6.03802 5.3507L6.29384 5.27529L6.44461 5.0553L9 1.32668L11.5554 5.0553L11.7062 5.27529L11.962 5.3507L16.2978 6.62881L13.5413 10.2113L13.3787 10.4227L13.386 10.6893L13.5103 15.2078L9.25129 13.6933Z" stroke="#F6BB05" stroke-width="1.5"/>
<path id="Star_2" d="M37.2513 13.6933L37 13.604L36.7487 13.6933L32.4897 15.2078L32.614 10.6893L32.6213 10.4227L32.4587 10.2113L29.7022 6.62881L34.038 5.3507L34.2938 5.27529L34.4446 5.0553L37 1.32668L39.5554 5.0553L39.7062 5.27529L39.962 5.3507L44.2978 6.62881L41.5413 10.2113L41.3787 10.4227L41.386 10.6893L41.5103 15.2078L37.2513 13.6933Z" stroke="#F6BB05" stroke-width="1.5"/>
<path id="Star_3" d="M65.2513 13.6933L65 13.604L64.7487 13.6933L60.4897 15.2078L60.614 10.6893L60.6213 10.4227L60.4587 10.2113L57.7022 6.62881L62.038 5.3507L62.2938 5.27529L62.4446 5.0553L65 1.32668L67.5554 5.0553L67.7062 5.27529L67.962 5.3507L72.2978 6.62881L69.5413 10.2113L69.3787 10.4227L69.386 10.6893L69.5103 15.2078L65.2513 13.6933Z" stroke="#F6BB05" stroke-width="1.5"/>
<path id="Star_4" d="M93.2513 13.6933L93 13.604L92.7487 13.6933L88.4897 15.2078L88.614 10.6893L88.6213 10.4227L88.4587 10.2113L85.7022 6.62881L90.038 5.3507L90.2938 5.27529L90.4446 5.0553L93 1.32668L95.5554 5.0553L95.7062 5.27529L95.962 5.3507L100.298 6.62881L97.5413 10.2113L97.3787 10.4227L97.386 10.6893L97.5103 15.2078L93.2513 13.6933Z" stroke="#F6BB05" stroke-width="1.5"/>
<path id="Star_5" d="M121.251 13.6933L121 13.604L120.749 13.6933L116.49 15.2078L116.614 10.6893L116.621 10.4227L116.459 10.2113L113.702 6.62881L118.038 5.3507L118.294 5.27529L118.445 5.0553L121 1.32668L123.555 5.0553L123.706 5.27529L123.962 5.3507L128.298 6.62881L125.541 10.2113L125.379 10.4227L125.386 10.6893L125.51 15.2078L121.251 13.6933Z" stroke="#F6BB05" stroke-width="1.5"/>
</g>
</svg>
