<svg width="100" height="19" viewBox="0 0 100 19" fill="none" xmlns="http://www.w3.org/2000/svg">
<g clip-path="url(#clip0_126_747)">
<path d="M39.0625 0H20.3125V18.75H39.0625V0Z" fill="#F3DB00"/>
<path d="M59.375 0H40.625V18.75H59.375V0Z" fill="#F3DB00"/>
<path d="M79.6875 0H60.9375V18.75H79.6875V0Z" fill="#F3DB00"/>
<path d="M100 0H81.25V18.75H100V0Z" fill="#F3DB00"/>
<path d="M18.75 0H0V18.75H18.75V0Z" fill="#F3DB00"/>
<path d="M9.375 12.6367L12.2266 11.9141L13.418 15.5859L9.375 12.6367ZM15.9375 7.89063H10.918L9.375 3.16406L7.83203 7.89063H2.8125L6.875 10.8203L5.33203 15.5469L9.39453 12.6172L11.8945 10.8203L15.9375 7.89063Z" fill="white"/>
<path d="M29.6875 12.6367L32.5391 11.9141L33.7305 15.5859L29.6875 12.6367ZM36.25 7.89063H31.2305L29.6875 3.16406L28.1445 7.89063H23.125L27.1875 10.8203L25.6445 15.5469L29.707 12.6172L32.207 10.8203L36.25 7.89063Z" fill="white"/>
<path d="M50 12.6367L52.8516 11.9141L54.043 15.5859L50 12.6367ZM56.5625 7.89063H51.543L50 3.16406L48.457 7.89063H43.4375L47.5 10.8203L45.957 15.5469L50.0195 12.6172L52.5195 10.8203L56.5625 7.89063Z" fill="white"/>
<path d="M70.3125 12.6367L73.1641 11.9141L74.3555 15.5859L70.3125 12.6367ZM76.875 7.89063H71.8555L70.3125 3.16406L68.7695 7.89063H63.75L67.8125 10.8203L66.2695 15.5469L70.332 12.6172L72.832 10.8203L76.875 7.89063Z" fill="white"/>
<path d="M90.625 12.6367L93.4766 11.9141L94.668 15.5859L90.625 12.6367ZM97.1875 7.89063H92.168L90.625 3.16406L89.082 7.89063H84.0625L88.125 10.8203L86.582 15.5469L90.6445 12.6172L93.1445 10.8203L97.1875 7.89063Z" fill="white"/>
</g>
<defs>
<clipPath id="clip0_126_747">
<rect width="100" height="19" fill="white"/>
</clipPath>
</defs>
</svg>
