<?xml version="1.0" encoding="UTF-8" standalone="no"?> <svg width="512" height="512" viewBox="0 0 512 512" fill="none" xmlns="http://www.w3.org/2000/svg">
<path d="M472 409.68V344C472 327.026 465.257 310.748 453.255 298.745C441.253 286.743 424.974 280 408 280C391.026 280 374.748 286.743 362.745 298.745C350.743 310.748 344 327.026 344 344V409.68C339.104 412.697 335.063 416.918 332.262 421.941C329.461 426.963 327.994 432.619 328 438.37V495.5C328 497.622 328.843 499.657 330.343 501.157C331.843 502.657 333.878 503.5 336 503.5H480C482.122 503.5 484.157 502.657 485.657 501.157C487.157 499.657 488 497.622 488 495.5V438.37C488.006 432.619 486.539 426.963 483.738 421.941C480.937 416.918 476.896 412.697 472 409.68V409.68ZM360 344C360 331.27 365.057 319.061 374.059 310.059C383.061 301.057 395.27 296 408 296C420.73 296 432.939 301.057 441.941 310.059C450.943 319.061 456 331.27 456 344V402.46L437.91 394.78C444.417 387.92 448.031 378.816 448 369.36V328C448 326.514 447.586 325.058 446.805 323.794C446.024 322.53 444.907 321.509 443.578 320.845C442.249 320.18 440.761 319.899 439.282 320.032C437.802 320.166 436.389 320.709 435.2 321.6C406.8 342.9 378.96 336.97 377.83 336.71C376.656 336.434 375.434 336.427 374.257 336.69C373.079 336.953 371.977 337.479 371.031 338.228C370.086 338.977 369.322 339.931 368.797 341.017C368.272 342.103 368 343.294 368 344.5V369.36C367.969 378.816 371.583 387.92 378.09 394.78L360 402.46V344ZM432 342.57V369.36C432 381.61 421.52 391.21 408.15 391.21H407.85C394.48 391.21 384 381.61 384 369.36V353.5C400.696 354.287 417.291 350.508 432 342.57ZM472 487.5H456V447.5C456 445.378 455.157 443.343 453.657 441.843C452.157 440.343 450.122 439.5 448 439.5C445.878 439.5 443.843 440.343 442.343 441.843C440.843 443.343 440 445.378 440 447.5V487.5H376V447.5C376 445.378 375.157 443.343 373.657 441.843C372.157 440.343 370.122 439.5 368 439.5C365.878 439.5 363.843 440.343 362.343 441.843C360.843 443.343 360 445.378 360 447.5V487.5H344V438.37C343.995 434.893 345.016 431.491 346.935 428.592C348.855 425.692 351.587 423.424 354.79 422.07L394.61 405.14C398.887 406.52 403.355 407.219 407.85 407.21H408.15C412.645 407.219 417.113 406.52 421.39 405.14L461.21 422.07C464.413 423.424 467.145 425.692 469.065 428.592C470.984 431.491 472.005 434.893 472 438.37V487.5Z" fill="black"/>
<path d="M496 8H192C189.878 8 187.843 8.84285 186.343 10.3431C184.843 11.8434 184 13.8783 184 16V168C184 170.122 184.843 172.157 186.343 173.657C187.843 175.157 189.878 176 192 176H208V216C208 217.582 208.469 219.129 209.348 220.445C210.227 221.76 211.477 222.786 212.938 223.391C214.4 223.997 216.009 224.155 217.561 223.847C219.113 223.538 220.538 222.776 221.657 221.657L267.313 176H496C498.122 176 500.157 175.157 501.657 173.657C503.157 172.157 504 170.122 504 168V16C504 13.8783 503.157 11.8434 501.657 10.3431C500.157 8.84285 498.122 8 496 8ZM488 160H264C262.949 160 261.909 160.207 260.938 160.609C259.968 161.011 259.086 161.6 258.343 162.343L224 196.687V168C224 165.878 223.157 163.843 221.657 162.343C220.157 160.843 218.122 160 216 160H200V24H488V160Z" fill="black"/>
<path d="M319.73 248.27H184V198.87C184.007 192.253 182.063 185.78 178.411 180.261C174.76 174.742 169.563 170.422 163.47 167.84L133.91 155.28C140.417 148.42 144.031 139.316 144 129.86V90.8C144 48.5 121.66 40 85.61 40H47.81C45.6883 40 43.6534 40.8429 42.1532 42.3431C40.6529 43.8434 39.81 45.8783 39.81 48V60.7C39.81 78.34 40.36 91.51 47.44 100.27C51.48 105.28 57 108.13 64 109.71V129.86C63.969 139.316 67.5826 148.42 74.09 155.28L44.53 167.84C38.4371 170.422 33.2401 174.742 29.5888 180.261C25.9374 185.78 23.9935 192.253 24 198.87V248.27H15.73C13.6083 248.27 11.5734 249.113 10.0732 250.613C8.57287 252.113 7.73001 254.148 7.73001 256.27V408.27C7.73001 410.392 8.57287 412.427 10.0732 413.927C11.5734 415.427 13.6083 416.27 15.73 416.27H244.42L290.07 461.93C291.189 463.05 292.615 463.813 294.168 464.122C295.72 464.431 297.33 464.273 298.792 463.667C300.255 463.061 301.505 462.035 302.384 460.718C303.263 459.401 303.731 457.853 303.73 456.27V416.27H319.73C321.852 416.27 323.887 415.427 325.387 413.927C326.887 412.427 327.73 410.392 327.73 408.27V256.27C327.73 254.148 326.887 252.113 325.387 250.613C323.887 249.113 321.852 248.27 319.73 248.27V248.27ZM59.89 90.22C56.48 86 55.81 76.2 55.81 60.7V56H85.61C119.28 56 128 63.15 128 90.8V95.5H85.61C70.36 95.5 62.91 93.97 59.89 90.22ZM128 111.5V129.86C128 142.11 117.52 151.71 104.15 151.71H103.85C90.48 151.71 80 142.11 80 129.86V111.42C81.81 111.47 128 111.5 128 111.5ZM40 198.87C39.9949 195.393 41.0161 191.991 42.9354 189.092C44.8548 186.192 47.5871 183.924 50.79 182.57L90.61 165.64C94.8874 167.02 99.3554 167.719 103.85 167.71H104.15C108.645 167.719 113.113 167.02 117.39 165.64L157.21 182.57C160.413 183.924 163.145 186.192 165.065 189.092C166.984 191.991 168.005 195.393 168 198.87V248H152V208C152 205.878 151.157 203.843 149.657 202.343C148.157 200.843 146.122 200 144 200C141.878 200 139.843 200.843 138.343 202.343C136.843 203.843 136 205.878 136 208V248H72V208C72 205.878 71.1572 203.843 69.6569 202.343C68.1566 200.843 66.1217 200 64 200C61.8783 200 59.8434 200.843 58.3432 202.343C56.8429 203.843 56 205.878 56 208V248H40V198.87ZM311.73 400.27H295.73C293.608 400.27 291.573 401.113 290.073 402.613C288.573 404.113 287.73 406.148 287.73 408.27V436.96L253.39 402.61C251.887 401.112 249.852 400.271 247.73 400.27H23.73V264.27H311.73V400.27Z" fill="black"/>
<path d="M232 64H456C458.122 64 460.157 63.1571 461.657 61.6569C463.157 60.1566 464 58.1217 464 56C464 53.8783 463.157 51.8434 461.657 50.3431C460.157 48.8429 458.122 48 456 48H232C229.878 48 227.843 48.8429 226.343 50.3431C224.843 51.8434 224 53.8783 224 56C224 58.1217 224.843 60.1566 226.343 61.6569C227.843 63.1571 229.878 64 232 64Z" fill="black"/>
<path d="M232 88H456C458.122 88 460.157 87.1571 461.657 85.6569C463.157 84.1566 464 82.1217 464 80C464 77.8783 463.157 75.8434 461.657 74.3431C460.157 72.8429 458.122 72 456 72H232C229.878 72 227.843 72.8429 226.343 74.3431C224.843 75.8434 224 77.8783 224 80C224 82.1217 224.843 84.1566 226.343 85.6569C227.843 87.1571 229.878 88 232 88Z" fill="black"/>
<path d="M232 112H456C458.122 112 460.157 111.157 461.657 109.657C463.157 108.157 464 106.122 464 104C464 101.878 463.157 99.8434 461.657 98.3431C460.157 96.8429 458.122 96 456 96H232C229.878 96 227.843 96.8429 226.343 98.3431C224.843 99.8434 224 101.878 224 104C224 106.122 224.843 108.157 226.343 109.657C227.843 111.157 229.878 112 232 112Z" fill="black"/>
<path d="M232 136H360C362.122 136 364.157 135.157 365.657 133.657C367.157 132.157 368 130.122 368 128C368 125.878 367.157 123.843 365.657 122.343C364.157 120.843 362.122 120 360 120H232C229.878 120 227.843 120.843 226.343 122.343C224.843 123.843 224 125.878 224 128C224 130.122 224.843 132.157 226.343 133.657C227.843 135.157 229.878 136 232 136Z" fill="black"/>
<path d="M56 304H280C282.122 304 284.157 303.157 285.657 301.657C287.157 300.157 288 298.122 288 296C288 293.878 287.157 291.843 285.657 290.343C284.157 288.843 282.122 288 280 288H56C53.8783 288 51.8434 288.843 50.3431 290.343C48.8429 291.843 48 293.878 48 296C48 298.122 48.8429 300.157 50.3431 301.657C51.8434 303.157 53.8783 304 56 304Z" fill="black"/>
<path d="M56 328H280C282.122 328 284.157 327.157 285.657 325.657C287.157 324.157 288 322.122 288 320C288 317.878 287.157 315.843 285.657 314.343C284.157 312.843 282.122 312 280 312H56C53.8783 312 51.8434 312.843 50.3431 314.343C48.8429 315.843 48 317.878 48 320C48 322.122 48.8429 324.157 50.3431 325.657C51.8434 327.157 53.8783 328 56 328Z" fill="black"/>
<path d="M56 352H280C282.122 352 284.157 351.157 285.657 349.657C287.157 348.157 288 346.122 288 344C288 341.878 287.157 339.843 285.657 338.343C284.157 336.843 282.122 336 280 336H56C53.8783 336 51.8434 336.843 50.3431 338.343C48.8429 339.843 48 341.878 48 344C48 346.122 48.8429 348.157 50.3431 349.657C51.8434 351.157 53.8783 352 56 352Z" fill="black"/>
<path d="M56 376H184C186.122 376 188.157 375.157 189.657 373.657C191.157 372.157 192 370.122 192 368C192 365.878 191.157 363.843 189.657 362.343C188.157 360.843 186.122 360 184 360H56C53.8783 360 51.8434 360.843 50.3431 362.343C48.8429 363.843 48 365.878 48 368C48 370.122 48.8429 372.157 50.3431 373.657C51.8434 375.157 53.8783 376 56 376Z" fill="black"/>
</svg>
