<svg width="16" height="16" viewBox="0 0 16 16" fill="none" xmlns="http://www.w3.org/2000/svg">
<g id="times">
<path id="Path" d="M9.59122 8.00023L14.3989 3.19258L15.3903 2.20115C15.5366 2.05489 15.5366 1.81723 15.3903 1.67097L14.3295 0.61016C14.1832 0.463905 13.9456 0.463905 13.7993 0.61016L8.00023 6.40925L2.20115 0.609691C2.05489 0.463436 1.81723 0.463436 1.67097 0.609691L0.609691 1.67051C0.463436 1.81676 0.463436 2.05442 0.609691 2.20068L6.40925 8.00023L0.609691 13.7993C0.463436 13.9456 0.463436 14.1832 0.609691 14.3295L1.67051 15.3903C1.81676 15.5366 2.05442 15.5366 2.20068 15.3903L8.00023 9.59122L12.8079 14.3989L13.7993 15.3903C13.9456 15.5366 14.1832 15.5366 14.3295 15.3903L15.3903 14.3295C15.5366 14.1832 15.5366 13.9456 15.3903 13.7993L9.59122 8.00023Z" fill="#000937"/>
</g>
</svg>
