<svg width="15" height="16" viewBox="0 0 15 16" fill="none" xmlns="http://www.w3.org/2000/svg">
<g id="shield-alt">
<path id="Shape" fill-rule="evenodd" clip-rule="evenodd" d="M14.0781 2.61485L8.07812 0.114846C7.709 -0.0382819 7.29412 -0.0382819 6.925 0.114846L0.925 2.61485C0.365625 2.8461 0 3.39297 0 3.99922C0 10.2023 3.57812 14.4898 6.92188 15.8836C7.29063 16.0367 7.70625 16.0367 8.075 15.8836C10.7531 14.768 15 10.9148 15 3.99922C15 3.39297 14.6344 2.8461 14.0781 2.61485ZM7.5 12.7992V3.12422L3.03437 4.9836C3.29688 8.61485 5.07187 11.3148 7.5 12.7992ZM1.5 3.99922C1.5 9.28985 4.45312 13.2305 7.5 14.4992C10.425 13.2805 13.5 9.43047 13.5 3.99922L7.5 1.49922L1.5 3.99922Z" fill="#22B840"/>
</g>
</svg>
