<svg version="1.1" id="Layer_1" xmlns="http://www.w3.org/2000/svg" xmlns:xlink="http://www.w3.org/1999/xlink" x="0px" y="0px" viewBox="0 0 24 24" enable-background="new 0 0 24 24" xml:space="preserve">
<path fill="#00ad28" d="M20.6660156,3.0284424l-8.5-3c-0.1074219-0.0380859-0.2246094-0.0380859-0.3320313,0l-8.5,3
	C3.1337891,3.0992432,3,3.288208,3,3.5001221v6c0,7.7646484,1.1513672,10.6025391,8.7744141,14.4462891
	C11.8457031,23.9820557,11.9228516,24.0001221,12,24.0001221s0.1542969-0.0180664,0.2255859-0.0537109
	C19.8486328,20.1026611,21,17.2647705,21,9.5001221v-6C21,3.288208,20.8662109,3.0992432,20.6660156,3.0284424z
	 M17.8535156,7.8536377l-7,7C10.7558594,14.9512939,10.6279297,15.0001221,10.5,15.0001221
	s-0.2558594-0.0488281-0.3535156-0.1464844l-4-4c-0.1953125-0.1953125-0.1953125-0.5117188,0-0.7070313
	s0.5117188-0.1953125,0.7070313,0L10.5,13.7930908l6.6464844-6.6464844c0.1953125-0.1953125,0.5117188-0.1953125,0.7070313,0
	S18.0488281,7.6583252,17.8535156,7.8536377z" id="id_101"></path>
<g>
</g>
<g>
</g>
<g>
</g>
<g>
</g>
<g>
</g>
<g>
</g>
<g>
</g>
<g>
</g>
<g>
</g>
<g>
</g>
<g>
</g>
<g>
</g>
<g>
</g>
<g>
</g>
<g>
</g>
</svg>