<?xml version="1.0" encoding="UTF-8"?>
<!DOCTYPE svg PUBLIC "-//W3C//DTD SVG 1.1//EN" "http://www.w3.org/Graphics/SVG/1.1/DTD/svg11.dtd">
<!-- Creator: CorelDRAW -->
<svg xmlns="http://www.w3.org/2000/svg" xml:space="preserve" width="1.70666in" height="1.70666in" version="1.1" style="shape-rendering:geometricPrecision; text-rendering:geometricPrecision; image-rendering:optimizeQuality; fill-rule:evenodd; clip-rule:evenodd"
viewBox="0 0 1707 1707"
 xmlns:xlink="http://www.w3.org/1999/xlink">
 <defs>
  <style type="text/css">
   <![CDATA[
    .fil0 {fill:black}
   ]]>
  </style>
 </defs>
 <g id="Layer_x0020_1">
  <metadata id="CorelCorpID_0Corel-Layer"/>
  <g id="_520516200">
   <g>
    <g>
     <g>
      <g id="_520515792">
       <path class="fil0" d="M470 1400c-13,0 -24,-11 -24,-24l0 -322c0,-13 11,-23 24,-23 13,0 23,10 23,23l0 322c0,13 -10,24 -23,24z"/>
      </g>
      <g id="_520515216">
       <path class="fil0" d="M470 1312c-7,0 -13,-2 -17,-6 -9,-9 -9,-24 0,-33l144 -137c8,-9 23,-9 32,0 8,8 8,23 0,32l-144 138c-4,4 -9,6 -15,6z"/>
      </g>
      <g id="_520516272">
       <path class="fil0" d="M635 1407c-6,0 -15,-5 -19,-11l-105 -155c-7,-11 -5,-26 6,-32 11,-7 26,-4 32,6l106 155c6,11 4,26 -7,32 -2,5 -6,5 -13,5z"/>
      </g>
     </g>
     <g id="_520516032">
      <path class="fil0" d="M786 1407c-69,0 -125,-63 -125,-138 0,-75 56,-137 125,-137 45,0 86,27 107,70 7,11 0,26 -11,33 -10,6 -25,0 -32,-11 -13,-28 -39,-45 -66,-45 -43,0 -78,41 -78,90 0,49 35,90 78,90 27,0 51,-17 66,-45 7,-11 19,-15 32,-11 11,7 15,20 11,33 -21,45 -62,71 -107,71z"/>
     </g>
     <g>
      <g id="_520516224">
       <path class="fil0" d="M1121 1407c-13,0 -24,-11 -24,-24l0 -183c0,-25 -21,-45 -45,-45l-28 0c-26,0 -45,22 -45,45 0,13 -11,24 -24,24 -13,0 -23,-11 -23,-24 0,-51 41,-92 92,-92l28 0c52,0 92,41 92,92l0 183c0,13 -10,24 -23,24z"/>
      </g>
      <g id="_520513296">
       <path class="fil0" d="M1031 1400c-50,0 -91,-39 -91,-82 0,-17 7,-47 48,-70 32,-18 77,-28 133,-28 13,0 23,10 23,23 0,13 -10,24 -23,24 -62,0 -95,11 -112,21 -11,7 -24,18 -24,30 0,18 18,37 46,37 28,0 62,-30 73,-41 8,-8 23,-8 32,0 8,9 8,24 0,32 -4,5 -54,54 -105,54z"/>
      </g>
     </g>
     <g id="_520517256">
      <path class="fil0" d="M1235 1407c-13,0 -24,-11 -24,-24l0 -320c0,-13 11,-24 24,-24 13,0 23,11 23,24l0 320c0,13 -10,24 -23,24z"/>
     </g>
    </g>
    <g id="_520516920">
     <path class="fil0" d="M852 1707c-386,0 -702,-316 -702,-702 0,-168 60,-331 169,-460 7,-6 18,-11 26,-6 9,4 15,12 15,21 -6,174 86,279 142,327 -24,-348 32,-600 170,-752 118,-131 251,-136 258,-136 6,0 12,3 17,7 4,4 6,11 6,17 0,402 67,580 110,653 26,-309 283,-324 288,-324 6,0 13,2 19,8 4,5 6,13 6,20 -21,152 37,264 95,373 43,84 86,164 86,252 -2,387 -318,702 -705,702zm-535 -1080c-77,109 -120,242 -120,378 0,361 294,655 655,655 361,0 656,-294 656,-655 0,-78 -39,-153 -80,-230 -54,-103 -114,-219 -103,-372 -65,13 -221,73 -217,338 0,8 -4,17 -13,21 -9,4 -17,4 -24,0 -6,-4 -159,-112 -163,-711 -41,6 -124,32 -200,118 -131,148 -184,415 -152,767 0,9 -5,17 -11,22 -6,4 -17,4 -24,0 -10,-5 -182,-108 -204,-331z"/>
    </g>
    <g id="_520517184">
     <path class="fil0" d="M973 865c-7,0 -13,-2 -20,-8 -221,-286 -204,-527 -202,-538 2,-12 13,-21 26,-21 13,2 22,13 22,26 0,2 -18,234 193,505 8,10 6,25 -4,32 -5,4 -11,4 -15,4z"/>
    </g>
   </g>
  </g>
 </g>
</svg>
