<?xml version="1.0" encoding="UTF-8" standalone="no"?> <svg width="64" height="64" viewBox="0 0 64 64" fill="none" xmlns="http://www.w3.org/2000/svg">
<path d="M32 27.44C32.2652 27.44 32.5196 27.3346 32.7071 27.1471C32.8946 26.9595 33 26.7052 33 26.44V25.09C33 24.8247 32.8946 24.5704 32.7071 24.3829C32.5196 24.1953 32.2652 24.09 32 24.09C31.7348 24.09 31.4804 24.1953 31.2929 24.3829C31.1054 24.5704 31 24.8247 31 25.09V26.44C31 26.7052 31.1054 26.9595 31.2929 27.1471C31.4804 27.3346 31.7348 27.44 32 27.44Z" fill="black"/>
<path d="M60 16.29H50.76L53.56 13.48C53.6647 13.3904 53.7497 13.28 53.8098 13.156C53.8698 13.0319 53.9035 12.8968 53.9088 12.7591C53.9142 12.6213 53.8909 12.484 53.8407 12.3557C53.7904 12.2274 53.7141 12.1108 53.6167 12.0134C53.5192 11.9159 53.4027 11.8396 53.2744 11.7894C53.146 11.7391 53.0087 11.7159 52.871 11.7212C52.7333 11.7265 52.5981 11.7603 52.4741 11.8203C52.35 11.8803 52.2397 11.9653 52.15 12.07L47.64 16.57C47.5463 16.663 47.4719 16.7736 47.4211 16.8954C47.3704 17.0173 47.3442 17.148 47.3442 17.28C47.3442 17.412 47.3704 17.5427 47.4211 17.6646C47.4719 17.7864 47.5463 17.897 47.64 17.99V17.99L52.15 22.5C52.2427 22.5945 52.3531 22.6697 52.475 22.7212C52.5968 22.7727 52.7277 22.7995 52.86 22.8C53.1253 22.8 53.3796 22.6946 53.5671 22.5071C53.7547 22.3196 53.86 22.0652 53.86 21.8C53.8595 21.6677 53.8327 21.5368 53.7812 21.4149C53.7297 21.2931 53.6545 21.1826 53.56 21.09L50.76 18.29H60C60.2653 18.29 60.5196 18.1846 60.7071 17.9971C60.8947 17.8096 61 17.5552 61 17.29C61 17.0248 60.8947 16.7704 60.7071 16.5829C60.5196 16.3954 60.2653 16.29 60 16.29Z" fill="black"/>
<path d="M10.44 21.09C10.2537 21.2774 10.1492 21.5308 10.1492 21.795C10.1492 22.0592 10.2537 22.3126 10.44 22.5C10.6246 22.6884 10.8762 22.7962 11.14 22.8C11.2723 22.7994 11.4032 22.7726 11.5251 22.7212C11.6469 22.6697 11.7574 22.5945 11.85 22.5L16.36 18C16.4537 17.907 16.5281 17.7964 16.5789 17.6746C16.6297 17.5527 16.6558 17.422 16.6558 17.29C16.6558 17.158 16.6297 17.0273 16.5789 16.9054C16.5281 16.7836 16.4537 16.673 16.36 16.58V16.58L11.85 12.07C11.6626 11.8837 11.4092 11.7792 11.145 11.7792C10.8808 11.7792 10.6274 11.8837 10.44 12.07C10.2537 12.2574 10.1492 12.5108 10.1492 12.775C10.1492 13.0392 10.2537 13.2926 10.44 13.48L13.24 16.29H4C3.73478 16.29 3.48043 16.3954 3.29289 16.5829C3.10536 16.7704 3 17.0248 3 17.29C3 17.5552 3.10536 17.8096 3.29289 17.9971C3.48043 18.1846 3.73478 18.29 4 18.29H13.24L10.44 21.09Z" fill="black"/>
<path d="M44.18 14.44L45.37 4.88999C45.3871 4.75041 45.3746 4.6088 45.3332 4.47439C45.2919 4.33999 45.2226 4.21582 45.13 4.10999C45.0363 4.00332 44.921 3.91783 44.7917 3.85921C44.6623 3.80058 44.522 3.77017 44.38 3.76999H19.62C19.4781 3.77017 19.3377 3.80058 19.2084 3.85921C19.0791 3.91783 18.9638 4.00332 18.87 4.10999C18.7774 4.21582 18.7082 4.33999 18.6669 4.47439C18.6255 4.6088 18.613 4.75041 18.63 4.88999L19.82 14.44C20.1182 17.0248 19.8524 19.6434 19.041 22.1156C18.2296 24.5877 16.8919 26.8546 15.12 28.76C12.2081 31.8715 10.3812 35.8419 9.91259 40.0777C9.44395 44.3134 10.3587 48.5871 12.52 52.26L16.89 59.73C16.9889 59.8726 17.1182 59.9915 17.2687 60.078C17.4192 60.1645 17.587 60.2164 17.76 60.23H46.24C46.4163 60.2307 46.5895 60.1848 46.7423 60.097C46.8951 60.0092 47.0219 59.8826 47.11 59.73L51.48 52.26C53.6414 48.5871 54.5561 44.3134 54.0875 40.0777C53.6189 35.8419 51.792 31.8715 48.88 28.76C47.1082 26.8546 45.7705 24.5877 44.9591 22.1156C44.1477 19.6434 43.8819 17.0248 44.18 14.44V14.44ZM21.8 14.19L20.75 5.76999H43.25L42.25 14.19C41.9272 16.8732 42.1583 19.5941 42.9288 22.1844C43.6994 24.7748 44.9931 27.1795 46.73 29.25C42.2838 31.8768 37.2142 33.2625 32.05 33.2625C26.8858 33.2625 21.8162 31.8768 17.37 29.25C19.0982 27.1756 20.3828 24.769 21.1447 22.1788C21.9067 19.5886 22.1297 16.8697 21.8 14.19V14.19ZM16 30.8C20.8221 33.7315 26.3568 35.2819 32 35.2819C37.6433 35.2819 43.178 33.7315 48 30.8C49.1901 32.2374 50.1575 33.8453 50.87 35.57C42.18 36.07 34.65 41.37 32.02 46.89C29.39 41.37 21.86 36.07 13.17 35.57C13.8702 33.8478 14.8241 32.24 16 30.8V30.8ZM12.43 37.56C23.08 37.87 31 45.76 31 50.92V58.23H18.33L14.25 51.23C13.041 49.1916 12.2582 46.9292 11.9488 44.5795C11.6394 42.2298 11.8099 39.8418 12.45 37.56H12.43ZM49.73 51.25L45.65 58.25H33V50.92C33 45.76 40.92 37.87 51.55 37.56C52.193 39.8448 52.365 42.2365 52.0556 44.5898C51.7462 46.9431 50.9618 49.209 49.75 51.25H49.73Z" fill="black"/>
</svg>
